<svg width="1000" height="1000" viewBox="0 0 1000 1000" fill="none" xmlns="http://www.w3.org/2000/svg">
<path d="M869.75 499.833C869.75 704.109 704.151 869.713 499.875 869.713C295.599 869.713 130 704.109 130 499.833C130 295.557 295.599 129.958 499.875 129.958C704.151 129.958 869.75 295.557 869.75 499.833Z" fill="#F6EED6"/>
<path d="M869.75 499.833C869.75 704.109 704.151 869.713 499.875 869.713C295.599 869.713 130 704.109 130 499.833C130 295.557 295.599 129.958 499.875 129.958C704.151 129.958 869.75 295.557 869.75 499.833Z" stroke="black" stroke-width="4" stroke-miterlimit="10" stroke-linecap="round" stroke-linejoin="round"/>
<path d="M576.948 385.365L573.094 386.141C561.208 370.5 533.036 359.5 500.167 359.5C468.542 359.5 441.271 369.682 428.661 384.385L421.276 378.88L420.75 404.74C422.901 427.573 457.943 445.99 500.167 445.99C543.781 445.99 579.188 427.115 579.188 403.229L579.115 378.13C579.109 377.104 578.057 385.141 576.948 385.365Z" fill="#495CDE"/>
<path d="M576.948 385.365L573.094 386.141C561.208 370.5 533.036 359.5 500.167 359.5C468.542 359.5 441.271 369.682 428.661 384.385L421.276 378.88L420.75 404.74C422.901 427.573 457.943 445.99 500.167 445.99C543.781 445.99 579.188 427.115 579.188 403.229L579.115 378.13C579.109 377.104 578.057 385.141 576.948 385.365Z" stroke="black" stroke-width="4" stroke-miterlimit="10" stroke-linecap="round" stroke-linejoin="round"/>
<path d="M579.135 378.833C579.135 402.719 543.781 422.078 500.166 422.078C456.557 422.078 421.197 402.719 421.197 378.833C421.197 354.948 456.557 335.588 500.166 335.588C543.781 335.588 579.135 354.948 579.135 378.833Z" fill="#495CDE"/>
<path d="M579.135 378.833C579.135 402.719 543.781 422.078 500.166 422.078C456.557 422.078 421.197 402.719 421.197 378.833C421.197 354.948 456.557 335.588 500.166 335.588C543.781 335.588 579.135 354.948 579.135 378.833Z" stroke="black" stroke-width="4" stroke-miterlimit="10" stroke-linecap="round" stroke-linejoin="round"/>
<path d="M541.51 375.385C541.51 388.599 522.645 399.307 499.38 399.307C476.109 399.307 457.244 388.599 457.244 375.385C457.244 362.172 476.109 351.463 499.38 351.463C522.645 351.463 541.51 362.172 541.51 375.385Z" fill="#FFB300"/>
<path d="M541.51 375.385C541.51 388.599 522.645 399.307 499.38 399.307C476.109 399.307 457.244 388.599 457.244 375.385C457.244 362.172 476.109 351.463 499.38 351.463C522.645 351.463 541.51 362.172 541.51 375.385Z" stroke="black" stroke-width="4" stroke-miterlimit="10" stroke-linecap="round" stroke-linejoin="round"/>
<path d="M599.406 751.651L614.677 731.906L581.719 718.661L561.672 738.39C574.021 743.442 586.734 747.484 599.406 751.651Z" fill="black"/>
<path d="M599.406 751.651L614.677 731.906L581.719 718.661L561.672 738.39C574.021 743.442 586.734 747.484 599.406 751.651Z" stroke="black" stroke-width="4" stroke-miterlimit="10" stroke-linecap="round" stroke-linejoin="round"/>
<path d="M448.219 416.401C448.219 416.401 456.302 419.161 458.182 438.458L447.359 436.01L447.859 416.88M512.042 378L560.458 351.526L532.849 339.479L508.823 374.542C507.406 376.667 509.812 379.26 512.042 378Z" fill="black"/>
<path d="M512.041 378L560.458 351.526L532.848 339.479L508.822 374.542C507.406 376.667 509.812 379.26 512.041 378Z" stroke="black" stroke-width="4" stroke-miterlimit="10" stroke-linecap="round" stroke-linejoin="round"/>
<path d="M522.001 368.51L606.428 195.609C644.897 116.839 587.542 25 499.876 25C412.214 25 354.86 116.839 393.324 195.609L477.756 368.51C486.751 386.927 513.006 386.927 522.001 368.51Z" fill="#E05B66"/>
<path d="M522.001 368.51L606.428 195.609C644.897 116.839 587.542 25 499.876 25C412.214 25 354.86 116.839 393.324 195.609L477.756 368.51C486.751 386.927 513.006 386.927 522.001 368.51Z" stroke="black" stroke-width="4" stroke-miterlimit="10" stroke-linecap="round" stroke-linejoin="round"/>
<path d="M592.594 145.271C592.594 196.479 551.083 237.989 499.875 237.989C448.672 237.989 407.156 196.479 407.156 145.271C407.156 94.0622 448.672 52.5518 499.875 52.5518C551.083 52.5518 592.594 94.0622 592.594 145.271Z" fill="#FFB300"/>
<path d="M592.594 145.271C592.594 196.479 551.083 237.989 499.875 237.989C448.672 237.989 407.156 196.479 407.156 145.271C407.156 94.0622 448.672 52.5518 499.875 52.5518C551.083 52.5518 592.594 94.0622 592.594 145.271Z" stroke="black" stroke-width="4" stroke-miterlimit="10" stroke-linecap="round" stroke-linejoin="round"/>
<path d="M447.426 418.229C447.374 418.203 447.322 418.177 447.265 418.151C445.072 417.078 442.505 417.12 440.348 418.26L315.65 480.13C319.27 481.948 323.192 483.062 327.083 484.224C331.702 485.604 336.229 487.255 340.671 489.135C341.796 489.609 342.911 490.099 344.02 490.594L448.015 431.588C453.171 428.469 452.838 420.88 447.426 418.229Z" fill="#FFB300"/>
<path d="M447.426 418.229C447.374 418.203 447.322 418.177 447.265 418.151C445.072 417.078 442.505 417.12 440.348 418.26L315.65 480.13C319.27 481.948 323.192 483.062 327.083 484.224C331.702 485.604 336.229 487.255 340.671 489.135C341.796 489.609 342.911 490.099 344.02 490.594L448.015 431.588C453.171 428.469 452.838 420.88 447.426 418.229Z" stroke="black" stroke-width="4" stroke-miterlimit="10" stroke-linecap="round" stroke-linejoin="round"/>
<path d="M323.781 477.515L330.557 474.005C330.557 474.005 344.865 478.271 354.151 484.547L343.021 491.599L323.781 477.515Z" fill="black"/>
<path d="M174.214 516.667L173.594 547.224C176.13 574.125 217.417 595.823 267.167 595.823C318.557 595.823 360.276 573.583 360.276 545.443L360.188 515.917C360.182 514.708 174.214 516.667 174.214 516.667Z" fill="#495CDE"/>
<path d="M174.214 516.667L173.594 547.224C176.13 574.125 217.417 595.823 267.167 595.823C318.557 595.823 360.276 573.583 360.276 545.443L360.188 515.917C360.182 514.708 174.214 516.667 174.214 516.667Z" stroke="black" stroke-width="4" stroke-miterlimit="10" stroke-linecap="round" stroke-linejoin="round"/>
<path d="M360.214 516.047C360.214 544.188 318.557 567 267.167 567C215.781 567 174.125 544.188 174.125 516.047C174.125 487.906 215.781 465.094 267.167 465.094C318.557 465.094 360.214 487.906 360.214 516.047Z" fill="#495CDE"/>
<path d="M360.214 516.047C360.214 544.188 318.557 567 267.167 567C215.781 567 174.125 544.188 174.125 516.047C174.125 487.906 215.781 465.094 267.167 465.094C318.557 465.094 360.214 487.906 360.214 516.047Z" stroke="black" stroke-width="4" stroke-miterlimit="10" stroke-linecap="round" stroke-linejoin="round"/>
<path d="M315.88 511.984C315.88 527.552 293.656 540.172 266.24 540.172C238.818 540.172 216.594 527.552 216.594 511.984C216.594 496.417 238.818 483.797 266.24 483.797C293.656 483.797 315.88 496.417 315.88 511.984Z" fill="#FFB300"/>
<path d="M315.88 511.984C315.88 527.552 293.656 540.172 266.24 540.172C238.818 540.172 216.594 527.552 216.594 511.984C216.594 496.417 238.818 483.797 266.24 483.797C293.656 483.797 315.88 496.417 315.88 511.984Z" stroke="black" stroke-width="4" stroke-miterlimit="10" stroke-linecap="round" stroke-linejoin="round"/>
<path d="M552.718 657.031C557.129 651.093 561.609 645.203 566.181 639.385L348.197 555.536C345.64 554.536 342.833 554.406 340.192 555.156C340.072 555.192 339.952 555.229 339.827 555.26C328.64 558.468 327.515 573.89 338.124 578.672C388.577 601.411 487.838 645.239 543.395 669.729C546.494 665.489 549.588 661.244 552.718 657.031Z" fill="#FFB300"/>
<path d="M552.718 657.031C557.129 651.093 561.609 645.203 566.181 639.385L348.197 555.536C345.64 554.536 342.833 554.406 340.192 555.156C340.072 555.192 339.952 555.229 339.827 555.26C328.64 558.468 327.515 573.89 338.124 578.672C388.577 601.411 487.838 645.239 543.395 669.729C546.494 665.489 549.588 661.244 552.718 657.031Z" stroke="black" stroke-width="4" stroke-miterlimit="10" stroke-linecap="round" stroke-linejoin="round"/>
<path d="M536.042 627.792C528.136 636.885 521.688 647.333 519.256 659.083C527.923 662.906 536.053 666.489 543.396 669.729C546.495 665.489 549.589 661.25 552.719 657.031C557.131 651.094 561.61 645.203 566.183 639.385L536.042 627.792Z" fill="black"/>
<path d="M528.333 672.151L527.578 710.047C530.656 746.062 580.719 775.114 641.052 775.114C703.37 775.114 753.964 745.338 753.964 707.667L753.849 672.906C753.844 671.286 528.333 672.151 528.333 672.151Z" fill="#495CDE"/>
<path d="M528.333 672.151L527.578 710.047C530.656 746.062 580.719 775.114 641.052 775.114C703.37 775.114 753.964 745.338 753.964 707.667L753.849 672.906C753.844 671.286 528.333 672.151 528.333 672.151Z" stroke="black" stroke-width="4" stroke-miterlimit="10" stroke-linecap="round" stroke-linejoin="round"/>
<path d="M587.875 738.599C587.875 738.599 600.49 743.869 605.573 770.599L588.958 767.198L587.312 739.349" fill="black"/>
<path d="M753.885 672.135C753.885 709.812 703.37 740.354 641.052 740.354C578.734 740.354 528.219 709.812 528.219 672.135C528.219 634.463 578.734 603.917 641.052 603.917C703.37 603.917 753.885 634.463 753.885 672.135Z" fill="#495CDE"/>
<path d="M753.885 672.135C753.885 709.812 703.37 740.354 641.052 740.354C578.734 740.354 528.219 709.812 528.219 672.135C528.219 634.463 578.734 603.917 641.052 603.917C703.37 603.917 753.885 634.463 753.885 672.135Z" stroke="black" stroke-width="4" stroke-miterlimit="10" stroke-linecap="round" stroke-linejoin="round"/>
<path d="M700.126 663.797C700.126 683.031 673.173 698.625 639.923 698.625C606.673 698.625 579.725 683.031 579.725 663.797C579.725 644.557 606.673 628.963 639.923 628.963C673.173 628.963 700.126 644.557 700.126 663.797Z" fill="#FFB300"/>
<path d="M700.126 663.797C700.126 683.031 673.173 698.625 639.923 698.625C606.673 698.625 579.725 683.031 579.725 663.797C579.725 644.557 606.673 628.963 639.923 628.963C673.173 628.963 700.126 644.557 700.126 663.797Z" stroke="black" stroke-width="4" stroke-miterlimit="10" stroke-linecap="round" stroke-linejoin="round"/>
<path d="M582.599 737.849C582.422 737.792 582.25 737.734 582.078 737.677C575.599 735.516 568.464 736.896 563.255 741.312L421.703 861.406C446.906 866.828 473.052 869.708 499.875 869.708C503.13 869.708 506.375 869.667 509.615 869.583C536.938 835.979 571.151 793.891 591.594 768.703C600.203 758.104 595.552 742.172 582.599 737.849Z" fill="#FFB300"/>
<path d="M582.599 737.849C582.422 737.792 582.25 737.734 582.078 737.677C575.599 735.516 568.464 736.896 563.255 741.312L421.703 861.406C446.906 866.828 473.052 869.708 499.875 869.708C503.13 869.708 506.375 869.667 509.615 869.583C536.938 835.979 571.151 793.891 591.594 768.703C600.203 758.104 595.552 742.172 582.599 737.849Z" stroke="black" stroke-width="4" stroke-miterlimit="10" stroke-linecap="round" stroke-linejoin="round"/>
</svg>
