<svg width="1000" height="1000" viewBox="0 0 1000 1000" fill="none" xmlns="http://www.w3.org/2000/svg">
<path d="M869.75 500.583C869.75 704.86 704.151 870.464 499.875 870.464C295.599 870.464 130 704.86 130 500.583C130 296.307 295.599 130.708 499.875 130.708C704.151 130.708 869.75 296.307 869.75 500.583Z" fill="#F6EED6"/>
<path d="M869.75 500.584C869.75 704.86 704.151 870.464 499.875 870.464C295.599 870.464 130 704.86 130 500.584C130 296.307 295.599 130.708 499.875 130.708C704.151 130.708 869.75 296.307 869.75 500.584Z" stroke="black" stroke-width="4" stroke-miterlimit="10" stroke-linecap="round" stroke-linejoin="round"/>
<path d="M497.099 415.703H234.062V383.901L195.937 363.792C192.114 361.776 187.401 363.776 186.208 367.938C183.271 378.193 178.807 393.792 174.666 410.157C172.625 418.229 169.802 426.058 172.708 433.86L317.916 822.662C371.646 853.078 433.724 870.464 499.875 870.464C561.739 870.464 620.041 855.25 671.286 828.401L519.614 431.209C516.052 421.87 507.093 415.703 497.099 415.703Z" fill="#495CDE"/>
<path d="M497.099 415.703H234.062V383.901L195.937 363.792C192.114 361.776 187.401 363.776 186.208 367.938C183.271 378.193 178.807 393.792 174.666 410.157C172.625 418.229 169.802 426.058 172.708 433.86L317.916 822.662C371.646 853.078 433.724 870.464 499.875 870.464C561.739 870.464 620.041 855.25 671.286 828.401L519.614 431.209C516.052 421.87 507.093 415.703 497.099 415.703Z" stroke="black" stroke-width="4" stroke-miterlimit="10" stroke-linecap="round" stroke-linejoin="round"/>
<path d="M284.15 732.255L317.916 822.662C343.218 836.985 370.369 848.417 398.926 856.505C389.984 842.307 381.01 828.13 372.057 813.943C343.031 786.406 313.942 758.938 284.15 732.255Z" fill="black"/>
<path d="M284.15 732.255L317.916 822.662C343.218 836.985 370.369 848.417 398.926 856.505C389.984 842.307 381.01 828.13 372.057 813.943C343.031 786.406 313.942 758.938 284.15 732.255Z" stroke="black" stroke-width="4" stroke-miterlimit="10" stroke-linecap="round" stroke-linejoin="round"/>
<path d="M519.698 356.469H201.51C190.302 356.469 182.568 367.698 186.568 378.172L364.844 845.031C406.672 861.443 452.219 870.464 499.875 870.464C575.172 870.464 645.198 847.943 703.625 809.297L534.641 366.76C532.276 360.562 526.333 356.469 519.698 356.469Z" fill="#495CDE"/>
<path d="M519.698 356.469H201.51C190.302 356.469 182.568 367.698 186.568 378.172L364.844 845.031C406.672 861.443 452.219 870.464 499.875 870.464C575.172 870.464 645.198 847.943 703.625 809.297L534.641 366.76C532.276 360.562 526.333 356.469 519.698 356.469Z" stroke="black" stroke-width="4" stroke-miterlimit="10" stroke-linecap="round" stroke-linejoin="round"/>
<path d="M514.348 397.021H230.676C226.025 397.021 222.817 401.677 224.473 406.021L395.952 855.641C428.926 865.271 463.79 870.464 499.874 870.464C565.827 870.464 627.733 853.177 681.353 822.927L520.546 401.287C519.567 398.719 517.098 397.021 514.348 397.021Z" fill="#F6EED6"/>
<path d="M514.348 397.021H230.676C226.025 397.021 222.817 401.677 224.473 406.021L395.952 855.641C428.926 865.271 463.79 870.464 499.874 870.464C565.827 870.464 627.733 853.177 681.353 822.927L520.546 401.287C519.567 398.719 517.098 397.021 514.348 397.021Z" stroke="black" stroke-width="4" stroke-miterlimit="10" stroke-linecap="round" stroke-linejoin="round"/>
<path d="M635.353 815.677H420.504C418.634 815.677 416.952 814.521 416.285 812.771L282.483 461.938C281.353 458.984 283.54 455.812 286.702 455.812H501.546C503.421 455.812 505.103 456.969 505.77 458.719L639.572 809.552C640.697 812.505 638.514 815.677 635.353 815.677Z" fill="#FF7E00"/>
<path d="M635.353 815.677H420.504C418.634 815.677 416.952 814.521 416.285 812.771L282.483 461.938C281.353 458.984 283.54 455.812 286.702 455.812H501.546C503.421 455.812 505.103 456.969 505.77 458.719L639.572 809.552C640.697 812.505 638.514 815.677 635.353 815.677Z" stroke="black" stroke-width="4" stroke-miterlimit="10" stroke-linecap="round" stroke-linejoin="round"/>
<path d="M595.234 525.271L603.521 548.485L491.901 548.927C482.385 548.969 473.286 552.833 466.661 559.662L434.766 592.521L466.484 506.073L587.328 481.224L595.234 525.271Z" fill="black" stroke="black" stroke-width="4" stroke-miterlimit="10" stroke-linecap="round" stroke-linejoin="round"/>
<path d="M501.546 455.812H286.702C283.54 455.812 281.353 458.984 282.483 461.938L293.978 492.073C293.978 492.078 293.983 492.083 293.988 492.083H518.473C518.483 492.083 518.488 492.073 518.483 492.062L505.77 458.719C505.103 456.969 503.421 455.812 501.546 455.812Z" fill="#00B36C"/>
<path d="M355.238 559.885H514.671M377.29 617.839H536.723M399.337 675.786H558.77M421.389 733.734H580.822M501.546 455.812H286.702C283.54 455.812 281.353 458.984 282.483 461.938L293.978 492.073C293.978 492.078 293.983 492.083 293.988 492.083H518.473C518.483 492.083 518.488 492.073 518.483 492.063L505.77 458.719C505.103 456.969 503.421 455.812 501.546 455.812Z" stroke="black" stroke-width="4" stroke-miterlimit="10" stroke-linecap="round" stroke-linejoin="round"/>
<path d="M427.817 382.281H296.947C293.458 382.281 290.635 379.458 290.635 375.969C290.635 372.479 293.458 369.656 296.947 369.656H427.817C431.301 369.656 434.13 372.479 434.13 375.969C434.13 379.458 431.301 382.281 427.817 382.281Z" fill="#F6EED6"/>
<path d="M427.817 382.281H296.947C293.458 382.281 290.635 379.458 290.635 375.969C290.635 372.479 293.458 369.656 296.947 369.656H427.817C431.301 369.656 434.13 372.479 434.13 375.969C434.13 379.458 431.301 382.281 427.817 382.281Z" stroke="black" stroke-width="4" stroke-miterlimit="10" stroke-linecap="round" stroke-linejoin="round"/>
<path d="M430.344 542.214L398.719 359.25H439.375L430.344 542.214Z" fill="black" stroke="black" stroke-width="4" stroke-miterlimit="10" stroke-linecap="round" stroke-linejoin="round"/>
<path d="M875.072 236.297H453.463C437.859 236.297 425.213 248.943 425.213 264.547V590.109C425.213 595.385 432.26 597.167 434.765 592.521L459.437 546.865C464.369 537.74 473.911 532.047 484.291 532.047H875.072C890.671 532.047 903.317 519.401 903.317 503.802V264.547C903.317 248.943 890.671 236.297 875.072 236.297Z" fill="#00B36C"/>
<path d="M875.072 236.297H453.463C437.859 236.297 425.213 248.943 425.213 264.547V590.109C425.213 595.385 432.26 597.167 434.765 592.521L459.437 546.865C464.369 537.74 473.911 532.047 484.291 532.047H875.072C890.671 532.047 903.317 519.401 903.317 503.802V264.547C903.317 248.943 890.671 236.297 875.072 236.297Z" stroke="black" stroke-width="4" stroke-miterlimit="10" stroke-linecap="round" stroke-linejoin="round"/>
<path d="M875.072 236.297H453.463C437.859 236.297 425.213 248.943 425.213 264.547V590.109C425.213 595.385 432.26 597.167 434.765 592.521L459.437 546.865C464.369 537.74 473.911 532.047 484.291 532.047H875.072C890.671 532.047 903.317 519.401 903.317 503.802V264.547C903.317 248.943 890.671 236.297 875.072 236.297Z" fill="#FFB300"/>
<mask id="mask0_773_1649" style="mask-type:luminance" maskUnits="userSpaceOnUse" x="451" y="235" width="429" height="300">
<path d="M451.135 235.344H879.135V534.01H451.135V235.344Z" fill="white"/>
</mask>
<g mask="url(#mask0_773_1649)">
<mask id="mask1_773_1649" style="mask-type:luminance" maskUnits="userSpaceOnUse" x="425" y="236" width="479" height="360">
<path d="M453.458 236.297C437.859 236.297 425.213 248.943 425.213 264.547V590.109C425.213 595.38 432.26 597.161 434.765 592.521L459.437 546.865C464.369 537.74 473.911 532.047 484.286 532.047H875.072C890.671 532.047 903.317 519.401 903.317 503.802V264.547C903.317 248.943 890.671 236.297 875.072 236.297H453.458Z" fill="white"/>
</mask>
<g mask="url(#mask1_773_1649)">
<path d="M873.224 473.573L874.041 471.542C876.218 466.156 877.646 460.521 878.364 454.765H878.547C880.573 438.495 876.854 421.281 867.656 406.099L866.619 404.39C854.151 383.812 851.718 359.5 860.057 338.875L860.88 336.844C869.291 316.031 866.734 291.479 853.994 270.802C841.26 250.125 838.703 225.578 847.114 204.76C847.114 204.76 863.651 151.693 837.942 124.109C829.385 114.922 815.776 106.588 800.672 105.995H451.974C467.078 106.588 478.099 112.63 486.656 121.812C512.369 149.396 494.521 204.76 494.521 204.76C486.109 225.578 488.666 250.125 501.406 270.802C514.14 291.479 516.698 316.031 508.286 336.844L507.463 338.875C499.125 359.5 501.557 383.812 514.026 404.39L515.062 406.099C517.724 410.489 519.916 415.052 521.656 419.713C521.599 419.713 521.541 419.713 521.489 419.708C527.869 436.859 528.005 455.333 521.448 471.542L520.63 473.573C513.026 492.38 514.411 514.25 524.161 533.562H876.755C867 514.25 865.619 492.38 873.224 473.573Z" fill="black"/>
</g>
</g>
<mask id="mask2_773_1649" style="mask-type:luminance" maskUnits="userSpaceOnUse" x="449" y="235" width="433" height="302">
<path d="M449.801 235.344H881.801V536.677H449.801V235.344Z" fill="white"/>
</mask>
<g mask="url(#mask2_773_1649)">
<mask id="mask3_773_1649" style="mask-type:luminance" maskUnits="userSpaceOnUse" x="425" y="236" width="479" height="360">
<path d="M453.457 236.297C437.858 236.297 425.212 248.943 425.212 264.547V590.109C425.212 595.38 432.259 597.161 434.764 592.521L459.436 546.865C464.368 537.74 473.91 532.047 484.285 532.047H875.071C890.67 532.047 903.316 519.401 903.316 503.802V264.547C903.316 248.943 890.67 236.297 875.071 236.297H453.457Z" fill="white"/>
</mask>
<g mask="url(#mask3_773_1649)">
<path d="M873.223 473.573L874.04 471.542C876.217 466.156 877.645 460.521 878.363 454.765H878.546C880.572 438.495 876.853 421.281 867.655 406.099L866.619 404.39C854.15 383.812 851.717 359.5 860.056 338.875L860.879 336.844C869.29 316.031 866.733 291.479 853.994 270.802C841.259 250.125 838.702 225.578 847.113 204.76C847.113 204.76 863.65 151.693 837.941 124.109C829.384 114.922 815.775 106.588 800.671 105.995H451.973C467.077 106.588 478.098 112.63 486.655 121.812C512.368 149.396 494.52 204.76 494.52 204.76C486.108 225.578 488.665 250.125 501.405 270.802C514.139 291.479 516.697 316.031 508.285 336.844L507.462 338.875C499.124 359.5 501.556 383.812 514.025 404.39L515.061 406.099C517.723 410.489 519.915 415.052 521.655 419.713C521.598 419.713 521.54 419.713 521.488 419.708C527.868 436.859 528.004 455.333 521.447 471.542L520.629 473.573C513.025 492.38 514.41 514.25 524.16 533.562H876.754C866.999 514.25 865.619 492.38 873.223 473.573Z" stroke="black" stroke-width="4" stroke-miterlimit="10" stroke-linecap="round" stroke-linejoin="round"/>
</g>
</g>
<path d="M875.072 236.297H453.463C437.859 236.297 425.213 248.943 425.213 264.547V590.109C425.213 595.385 432.26 597.167 434.765 592.521L459.437 546.865C464.369 537.74 473.911 532.047 484.291 532.047H875.072C890.671 532.047 903.317 519.401 903.317 503.802V264.547C903.317 248.943 890.671 236.297 875.072 236.297Z" stroke="black" stroke-width="4" stroke-miterlimit="10" stroke-linecap="round" stroke-linejoin="round"/>
<path d="M847.118 471.99L848.139 469.958C850.842 464.568 852.816 458.922 854.098 453.161H854.28C857.895 436.875 855.858 419.641 848.145 404.443L847.275 402.729C836.822 382.13 836.764 357.792 847.118 337.141L848.139 335.109C858.587 314.271 858.426 289.693 847.712 268.995C836.993 248.292 836.837 223.714 847.285 202.88C847.285 202.88 869.009 149.75 845.999 122.135C838.332 112.943 825.54 104.594 810.499 104H461.801C476.842 104.594 487.275 110.641 494.936 119.833C517.947 147.453 494.691 202.88 494.691 202.88C484.243 223.714 484.4 248.292 495.118 268.995C505.832 289.693 505.993 314.271 495.546 335.109L494.525 337.141C484.171 357.792 484.228 382.13 494.681 402.729L495.551 404.443C497.785 408.839 499.535 413.406 500.816 418.073C500.759 418.068 500.702 418.073 500.645 418.068C505.353 435.24 503.681 453.729 495.546 469.958L494.525 471.99C485.082 490.823 484.327 512.714 492.191 532.047H844.785C836.921 512.714 837.676 490.823 847.118 471.99Z" fill="#F8EED3"/>
<path d="M847.119 471.99L848.139 469.958C850.842 464.568 852.816 458.922 854.098 453.161H854.28C857.895 436.875 855.858 419.641 848.145 404.443L847.275 402.729C836.822 382.13 836.764 357.792 847.119 337.141L848.139 335.109C858.587 314.271 858.426 289.693 847.712 268.995C836.993 248.292 836.837 223.714 847.285 202.88C847.285 202.88 869.009 149.75 845.999 122.135C838.332 112.943 825.54 104.594 810.499 104H461.801C476.842 104.594 487.275 110.641 494.936 119.833C517.947 147.453 494.691 202.88 494.691 202.88C484.243 223.714 484.4 248.292 495.118 268.995C505.832 289.693 505.993 314.271 495.546 335.109L494.525 337.141C484.171 357.792 484.228 382.13 494.681 402.729L495.551 404.443C497.785 408.839 499.535 413.406 500.816 418.073C500.759 418.068 500.702 418.073 500.645 418.068C505.353 435.24 503.681 453.729 495.546 469.958L494.525 471.99C485.082 490.823 484.327 512.714 492.191 532.047H844.785C836.921 512.714 837.676 490.823 847.119 471.99Z" stroke="black" stroke-width="4" stroke-miterlimit="10" stroke-linecap="round" stroke-linejoin="round"/>
<path d="M504.129 146.026C504.129 122.818 485.316 104 462.103 104C438.895 104 420.082 122.818 420.082 146.026V155.125C420.082 158.062 422.457 160.443 425.395 160.443H504.129V146.026Z" fill="black" stroke="black" stroke-width="4" stroke-miterlimit="10" stroke-linecap="round" stroke-linejoin="round"/>
<path d="M507.197 436.276H710.239M778.426 390.302H839.343M767.958 231.698H837.937" stroke="black" stroke-width="4" stroke-miterlimit="10" stroke-linecap="round" stroke-linejoin="round"/>
<path d="M695.609 197.099C695.609 207.885 686.864 216.63 676.072 216.63C665.286 216.63 656.541 207.885 656.541 197.099C656.541 186.307 665.286 177.562 676.072 177.562C686.864 177.562 695.609 186.307 695.609 197.099Z" fill="#FFB300"/>
<path d="M695.609 197.099C695.609 207.885 686.864 216.63 676.072 216.63C665.286 216.63 656.541 207.885 656.541 197.099C656.541 186.307 665.286 177.562 676.072 177.562C686.864 177.562 695.609 186.307 695.609 197.099Z" stroke="black" stroke-width="4" stroke-miterlimit="10" stroke-linecap="round" stroke-linejoin="round"/>
<path d="M666.291 223.646V244.24C666.291 250.037 670.989 254.729 676.786 254.729H701.921C696.27 254.537 691.791 249.901 691.791 244.245V223.995C691.791 223.995 665.593 222.943 666.291 223.646Z" fill="#F7B625"/>
<path d="M666.291 223.646V244.24C666.291 250.037 670.989 254.729 676.786 254.729H701.921C696.27 254.537 691.791 249.901 691.791 244.245V223.995C691.791 223.995 665.593 222.943 666.291 223.646Z" stroke="black" stroke-width="4" stroke-miterlimit="10" stroke-linecap="round" stroke-linejoin="round"/>
<path d="M691.792 235.844V223.995C691.792 223.995 665.594 222.948 666.297 223.646V242.224C674.834 240.261 683.323 238.094 691.792 235.844Z" fill="black"/>
<path d="M691.792 235.844V223.995C691.792 223.995 665.594 222.948 666.297 223.646V242.224C674.834 240.261 683.323 238.094 691.792 235.844Z" stroke="black" stroke-width="4" stroke-miterlimit="10" stroke-linecap="round" stroke-linejoin="round"/>
<path d="M716.578 286.75V264.985C716.578 259.188 711.88 254.49 706.089 254.49H680.953C686.599 254.688 691.078 259.323 691.078 264.974V286.865C691.078 286.865 704.792 276.62 704.552 276.735C704.443 276.792 716.943 287.115 716.578 286.75Z" fill="#F7B625"/>
<path d="M716.578 286.75V264.985C716.578 259.188 711.88 254.49 706.089 254.49H680.953C686.599 254.688 691.078 259.323 691.078 264.974V286.865C691.078 286.865 704.792 276.62 704.552 276.735C704.443 276.792 716.943 287.115 716.578 286.75Z" stroke="black" stroke-width="4" stroke-miterlimit="10" stroke-linecap="round" stroke-linejoin="round"/>
<path d="M684.431 146.672L685.733 148.583C687.291 150.88 690.358 151.583 692.759 150.188L694.759 149.026C697.989 147.151 702.093 149.13 702.64 152.823L702.978 155.109C703.384 157.854 705.848 159.818 708.614 159.604L710.916 159.427C714.64 159.141 717.483 162.698 716.374 166.266L715.686 168.474C714.864 171.125 716.228 173.958 718.811 174.969L720.968 175.807C724.447 177.161 725.463 181.604 722.916 184.333L721.338 186.026C719.447 188.057 719.447 191.203 721.338 193.234L722.916 194.922C725.463 197.656 724.447 202.094 720.968 203.453L718.811 204.292C716.228 205.302 714.864 208.135 715.686 210.786L716.374 212.995C717.483 216.557 714.64 220.12 710.916 219.833L708.614 219.656C705.848 219.443 703.384 221.406 702.978 224.151L702.64 226.438C702.093 230.13 697.989 232.104 694.759 230.229L692.759 229.073C690.358 227.677 687.291 228.38 685.733 230.672L684.431 232.589C682.338 235.677 677.785 235.677 675.686 232.589L674.39 230.672C672.832 228.38 669.759 227.677 667.358 229.073L665.364 230.229C662.129 232.104 658.03 230.13 657.478 226.438L657.14 224.151C656.733 221.406 654.275 219.443 651.504 219.656L649.202 219.833C645.478 220.12 642.64 216.557 643.749 212.995L644.431 210.786C645.254 208.135 643.89 205.302 641.306 204.292L639.15 203.453C635.671 202.094 634.66 197.656 637.207 194.922L638.78 193.234C640.676 191.203 640.676 188.057 638.78 186.026L637.207 184.333C634.66 181.604 635.671 177.161 639.15 175.807L641.306 174.969C643.89 173.958 645.254 171.125 644.431 168.474L643.749 166.266C642.64 162.698 645.478 159.141 649.202 159.427L651.504 159.604C654.275 159.818 656.733 157.854 657.14 155.109L657.478 152.823C658.03 149.13 662.129 147.151 665.364 149.026L667.358 150.188C669.759 151.583 672.832 150.88 674.39 148.583L675.686 146.672C677.785 143.583 682.338 143.583 684.431 146.672Z" fill="#FFB300"/>
<path d="M684.431 146.672L685.733 148.583C687.291 150.88 690.358 151.583 692.759 150.188L694.759 149.026C697.989 147.151 702.093 149.13 702.64 152.823L702.978 155.109C703.384 157.854 705.848 159.818 708.614 159.604L710.916 159.427C714.64 159.141 717.483 162.698 716.374 166.266L715.686 168.474C714.864 171.125 716.228 173.958 718.811 174.969L720.968 175.807C724.447 177.161 725.463 181.604 722.916 184.333L721.338 186.026C719.447 188.057 719.447 191.203 721.338 193.234L722.916 194.922C725.463 197.656 724.447 202.094 720.968 203.453L718.811 204.292C716.228 205.302 714.864 208.135 715.686 210.786L716.374 212.995C717.483 216.557 714.64 220.12 710.916 219.833L708.614 219.656C705.848 219.443 703.384 221.406 702.978 224.151L702.64 226.438C702.093 230.13 697.989 232.104 694.759 230.229L692.759 229.073C690.358 227.677 687.291 228.38 685.733 230.672L684.431 232.589C682.338 235.677 677.785 235.677 675.686 232.589L674.39 230.672C672.832 228.38 669.759 227.677 667.358 229.073L665.364 230.229C662.129 232.104 658.03 230.13 657.478 226.438L657.14 224.151C656.733 221.406 654.275 219.443 651.504 219.656L649.202 219.833C645.478 220.12 642.64 216.557 643.749 212.995L644.431 210.786C645.254 208.135 643.89 205.302 641.306 204.292L639.15 203.453C635.671 202.094 634.66 197.656 637.207 194.922L638.78 193.234C640.676 191.203 640.676 188.057 638.78 186.026L637.207 184.333C634.66 181.604 635.671 177.161 639.15 175.807L641.306 174.969C643.89 173.958 645.254 171.125 644.431 168.474L643.749 166.266C642.64 162.698 645.478 159.141 649.202 159.427L651.504 159.604C654.275 159.818 656.733 157.854 657.14 155.109L657.478 152.823C658.03 149.13 662.129 147.151 665.364 149.026L667.358 150.188C669.759 151.583 672.832 150.88 674.39 148.583L675.686 146.672C677.785 143.583 682.338 143.583 684.431 146.672Z" stroke="black" stroke-width="4" stroke-miterlimit="10" stroke-linecap="round" stroke-linejoin="round"/>
<path d="M706.02 189.631C706.02 203.969 694.4 215.594 680.061 215.594C665.723 215.594 654.098 203.969 654.098 189.631C654.098 175.292 665.723 163.667 680.061 163.667C694.4 163.667 706.02 175.292 706.02 189.631Z" fill="#FFB300"/>
<path d="M706.02 189.631C706.02 203.969 694.4 215.594 680.061 215.594C665.723 215.594 654.098 203.969 654.098 189.631C654.098 175.292 665.723 163.667 680.061 163.667C694.4 163.667 706.02 175.292 706.02 189.631Z" stroke="black" stroke-width="4" stroke-miterlimit="10" stroke-linecap="round" stroke-linejoin="round"/>
<path d="M554.614 318.584C557.187 318.584 559.197 320.49 559.197 322.917C559.197 325.021 560.911 326.729 563.01 326.729C565.109 326.729 566.817 325.021 566.817 322.917C566.817 316.328 561.348 310.964 554.614 310.964C547.89 310.964 542.416 316.328 542.416 322.917V362.245C542.416 368.839 547.89 374.203 554.614 374.203C561.348 374.203 566.817 368.839 566.817 362.245C566.817 360.146 565.109 358.438 563.01 358.438C560.911 358.438 559.197 360.146 559.197 362.245C559.197 364.677 557.187 366.584 554.614 366.584C552.088 366.584 550.036 364.636 550.036 362.245V322.917C550.036 320.526 552.088 318.584 554.614 318.584ZM580.119 319.407H586.041C588.145 319.407 589.854 317.698 589.854 315.599C589.854 313.495 588.145 311.787 586.041 311.787H580.119C575.385 311.787 571.536 315.599 571.536 320.287V364.881C571.536 369.568 575.385 373.381 580.119 373.381H586.041C588.145 373.381 589.854 371.672 589.854 369.568C589.854 367.469 588.145 365.761 586.041 365.761H580.119C579.645 365.761 579.156 365.318 579.156 364.881V349.058H586.041C588.145 349.058 589.854 347.349 589.854 345.245C589.854 343.146 588.145 341.438 586.041 341.438H579.156V320.287C579.156 319.849 579.645 319.407 580.119 319.407ZM609.817 327.422H602.604V319.407H609.817C611.854 319.407 613.577 321.245 613.577 323.412C613.577 325.584 611.854 327.422 609.817 327.422ZM609.817 311.787H598.791C596.692 311.787 594.984 313.495 594.984 315.599V369.573C594.984 371.672 596.692 373.381 598.791 373.381C600.895 373.381 602.604 371.672 602.604 369.573V335.042H609.817C611.942 335.042 613.52 336.573 613.577 338.636V369.573C613.577 371.672 615.286 373.381 617.39 373.381C619.489 373.381 621.197 371.672 621.197 369.573V338.636C621.197 335.693 620.098 333.058 618.114 331.094C620.098 329.037 621.197 326.344 621.197 323.412C621.197 317.11 615.989 311.787 609.817 311.787ZM644.781 311.787H627.671C625.567 311.787 623.859 313.495 623.859 315.599C623.859 317.698 625.567 319.407 627.671 319.407H632.416V369.573C632.416 371.672 634.124 373.381 636.223 373.381C638.322 373.381 640.036 371.672 640.036 369.573V319.407H644.781C646.88 319.407 648.593 317.698 648.593 315.599C648.593 313.495 646.88 311.787 644.781 311.787ZM655.062 311.787C652.963 311.787 651.255 313.495 651.255 315.599V369.573C651.255 371.672 652.963 373.381 655.062 373.381C657.161 373.381 658.874 371.672 658.874 369.573V315.599C658.874 313.495 657.161 311.787 655.062 311.787ZM684.765 311.787H673.411C668.676 311.787 664.827 315.599 664.827 320.287V369.573C664.827 371.672 666.536 373.381 668.635 373.381C670.739 373.381 672.447 371.672 672.447 369.573V345.573H680.895C682.999 345.573 684.708 343.865 684.708 341.761C684.708 339.662 682.999 337.953 680.895 337.953H672.447V320.287C672.447 319.854 672.932 319.407 673.411 319.407H684.765C686.864 319.407 688.572 317.698 688.572 315.599C688.572 313.495 686.864 311.787 684.765 311.787ZM695.869 311.787C693.77 311.787 692.057 313.495 692.057 315.599V369.573C692.057 371.672 693.77 373.381 695.869 373.381C697.968 373.381 699.676 371.672 699.676 369.573V315.599C699.676 313.495 697.968 311.787 695.869 311.787ZM717.833 318.584C720.4 318.584 722.416 320.49 722.416 322.917C722.416 325.021 724.124 326.729 726.229 326.729C728.327 326.729 730.036 325.021 730.036 322.917C730.036 316.328 724.562 310.964 717.833 310.964C711.104 310.964 705.63 316.328 705.63 322.917V362.245C705.63 368.839 711.104 374.203 717.833 374.203C724.562 374.203 730.036 368.839 730.036 362.245C730.036 360.146 728.327 358.438 726.229 358.438C724.124 358.438 722.416 360.146 722.416 362.245C722.416 364.677 720.4 366.584 717.833 366.584C715.307 366.584 713.249 364.636 713.249 362.245V322.917C713.249 320.526 715.307 318.584 717.833 318.584ZM746.541 318.584C748.921 318.584 750.718 320.625 750.718 323.334V338.776H742.374V323.334C742.374 320.625 744.166 318.584 746.541 318.584ZM746.541 310.964C740.15 310.964 734.755 316.631 734.755 323.334V369.568C734.755 371.672 736.463 373.381 738.562 373.381C740.666 373.381 742.374 371.672 742.374 369.568V346.396H750.718V369.568C750.718 371.672 752.426 373.381 754.525 373.381C756.624 373.381 758.338 371.672 758.338 369.568V323.334C758.338 316.631 752.937 310.964 746.541 310.964ZM781.921 311.787H764.807C762.708 311.787 760.999 313.495 760.999 315.599C760.999 317.698 762.708 319.407 764.807 319.407H769.557V369.573C769.557 371.672 771.265 373.381 773.364 373.381C775.463 373.381 777.171 371.672 777.171 369.573V319.407H781.921C784.02 319.407 785.729 317.698 785.729 315.599C785.729 313.495 784.02 311.787 781.921 311.787ZM802.9 349.058C804.999 349.058 806.708 347.349 806.708 345.245C806.708 343.146 804.999 341.438 802.9 341.438H796.01V320.287C796.01 319.854 796.494 319.407 796.973 319.407H802.9C804.999 319.407 806.708 317.698 806.708 315.599C806.708 313.495 804.999 311.787 802.9 311.787H796.973C792.244 311.787 788.39 315.599 788.39 320.287V364.881C788.39 369.568 792.244 373.381 796.973 373.381H802.9C804.999 373.381 806.708 371.672 806.708 369.573C806.708 367.469 804.999 365.761 802.9 365.761H796.973C796.494 365.761 796.01 365.318 796.01 364.881V349.058H802.9Z" fill="black"/>
</svg>
