<svg width="1000" height="1000" viewBox="0 0 1000 1000" fill="none" xmlns="http://www.w3.org/2000/svg">
<path d="M869.025 502.198C869.025 706.474 703.426 872.073 499.15 872.073C294.874 872.073 129.275 706.474 129.275 502.198C129.275 297.916 294.874 132.317 499.15 132.317C703.426 132.317 869.025 297.916 869.025 502.198Z" fill="#F6EED6"/>
<path d="M819.15 502.198H179.15M869.025 502.198C869.025 706.474 703.426 872.073 499.15 872.073C294.874 872.073 129.275 706.474 129.275 502.198C129.275 297.916 294.874 132.317 499.15 132.317C703.426 132.317 869.025 297.916 869.025 502.198Z" stroke="black" stroke-width="4" stroke-miterlimit="10" stroke-linecap="round" stroke-linejoin="round"/>
<path d="M819.15 510.192H179.15V494.192H819.15V510.192Z" fill="#FFB300" stroke="black" stroke-width="4" stroke-miterlimit="10" stroke-linecap="round" stroke-linejoin="round"/>
<path d="M209.437 502.192H179.15C189.239 502.229 199.327 502.244 209.411 502.271C209.421 502.244 209.432 502.218 209.437 502.192Z" fill="black"/>
<path d="M209.437 502.192H179.15C189.239 502.229 199.327 502.244 209.411 502.271C209.421 502.244 209.432 502.218 209.437 502.192Z" stroke="black" stroke-width="4" stroke-miterlimit="10" stroke-linecap="round" stroke-linejoin="round"/>
<path d="M269.718 502.192C269.676 502.271 269.64 502.343 269.604 502.416C422.077 502.744 574.515 502.687 726.567 502.192H269.718ZM785.046 502.192C784.979 502.343 784.906 502.489 784.833 502.635C796.098 502.646 807.442 502.5 819.15 502.192H785.046Z" fill="black" stroke="black" stroke-width="4" stroke-miterlimit="10" stroke-linecap="round" stroke-linejoin="round"/>
<path d="M212.301 494.198H179.15V510.198H206.786C208.515 504.823 210.343 499.484 212.301 494.198Z" fill="black"/>
<path d="M212.301 494.198H179.15V510.198H206.786C208.515 504.823 210.343 499.484 212.301 494.198Z" stroke="black" stroke-width="4" stroke-miterlimit="10" stroke-linecap="round" stroke-linejoin="round"/>
<path d="M273.791 494.198C271.098 499.578 268.354 504.927 265.463 510.198H726.567C728.364 504.818 730.291 499.484 732.343 494.198H273.791ZM789.067 494.198C786.348 499.484 783.718 504.807 781.249 510.198H819.15V494.198H789.067Z" fill="black" stroke="black" stroke-width="4" stroke-miterlimit="10" stroke-linecap="round" stroke-linejoin="round"/>
<path d="M177.738 525.677C164.77 525.677 154.254 515.167 154.254 502.193C154.254 489.229 164.77 478.713 177.738 478.713C190.707 478.713 201.217 489.229 201.217 502.193C201.217 515.167 190.707 525.677 177.738 525.677Z" fill="#FF7E00"/>
<path d="M177.738 525.677C164.77 525.677 154.254 515.167 154.254 502.193C154.254 489.229 164.77 478.713 177.738 478.713C190.707 478.713 201.217 489.229 201.217 502.193C201.217 515.167 190.707 525.677 177.738 525.677Z" stroke="black" stroke-width="4" stroke-miterlimit="10" stroke-linecap="round" stroke-linejoin="round"/>
<path d="M820.566 525.677C807.598 525.677 797.082 515.167 797.082 502.193C797.082 489.229 807.598 478.713 820.566 478.713C833.535 478.713 844.046 489.229 844.046 502.193C844.046 515.167 833.535 525.677 820.566 525.677Z" fill="#FF7E00"/>
<path d="M820.566 525.677C807.598 525.677 797.082 515.167 797.082 502.193C797.082 489.229 807.598 478.713 820.566 478.713C833.535 478.713 844.046 489.229 844.046 502.193C844.046 515.167 833.535 525.677 820.566 525.677Z" stroke="black" stroke-width="4" stroke-miterlimit="10" stroke-linecap="round" stroke-linejoin="round"/>
<path d="M724.302 863.469H708.302V666.177C708.302 657.312 701.093 650.104 692.229 650.104H627.458V634.104H692.229C709.916 634.104 724.302 648.495 724.302 666.177V863.469Z" fill="#FFB300" stroke="black" stroke-width="4" stroke-miterlimit="10" stroke-linecap="round" stroke-linejoin="round"/>
<path d="M708.302 845.896V863.469H724.302V838.354C719.062 841.042 713.744 843.588 708.302 845.896Z" fill="black"/>
<path d="M708.302 845.896V863.469H724.302V838.354C719.062 841.042 713.744 843.588 708.302 845.896Z" stroke="black" stroke-width="4" stroke-miterlimit="10" stroke-linecap="round" stroke-linejoin="round"/>
<path d="M697.192 634.489C695.573 634.234 693.916 634.104 692.229 634.104H627.458V650.104H677.474C683.994 644.828 690.536 639.578 697.192 634.489Z" fill="black"/>
<path d="M697.192 634.489C695.573 634.234 693.916 634.104 692.229 634.104H627.458V650.104H677.474C683.994 644.828 690.536 639.578 697.192 634.489Z" stroke="black" stroke-width="4" stroke-miterlimit="10" stroke-linecap="round" stroke-linejoin="round"/>
<path d="M739.786 874.51C739.786 887.479 729.275 897.995 716.301 897.995C703.333 897.995 692.822 887.479 692.822 874.51C692.822 861.542 703.333 851.031 716.301 851.031C729.275 851.031 739.786 861.542 739.786 874.51Z" fill="#FF7E00"/>
<path d="M739.786 874.51C739.786 887.479 729.275 897.995 716.301 897.995C703.333 897.995 692.822 887.479 692.822 874.51C692.822 861.542 703.333 851.031 716.301 851.031C729.275 851.031 739.786 861.542 739.786 874.51Z" stroke="black" stroke-width="4" stroke-miterlimit="10" stroke-linecap="round" stroke-linejoin="round"/>
<path d="M289.999 863.469H273.999V666.177C273.999 648.495 288.384 634.104 306.072 634.104H370.848V650.104H306.072C297.207 650.104 289.999 657.312 289.999 666.177V863.469Z" fill="#FFB300" stroke="black" stroke-width="4" stroke-miterlimit="10" stroke-linecap="round" stroke-linejoin="round"/>
<path d="M308.677 634.104C312.463 639.39 316.187 644.724 319.843 650.104H370.849V634.104H308.677Z" fill="black" stroke="black" stroke-width="4" stroke-miterlimit="10" stroke-linecap="round" stroke-linejoin="round"/>
<path d="M273.999 846.099V863.469H289.999V837.87C284.64 840.568 279.291 843.281 273.999 846.099Z" fill="black"/>
<path d="M273.999 846.099V863.469H289.999V837.87C284.64 840.568 279.291 843.281 273.999 846.099Z" stroke="black" stroke-width="4" stroke-miterlimit="10" stroke-linecap="round" stroke-linejoin="round"/>
<path d="M258.515 874.51C258.515 887.479 269.03 897.995 281.999 897.995C294.968 897.995 305.483 887.479 305.483 874.51C305.483 861.542 294.968 851.031 281.999 851.031C269.03 851.031 258.515 861.542 258.515 874.51Z" fill="#FF7E00"/>
<path d="M258.515 874.51C258.515 887.479 269.03 897.995 281.999 897.995C294.968 897.995 305.483 887.479 305.483 874.51C305.483 861.542 294.968 851.031 281.999 851.031C269.03 851.031 258.515 861.542 258.515 874.51Z" stroke="black" stroke-width="4" stroke-miterlimit="10" stroke-linecap="round" stroke-linejoin="round"/>
<path d="M370.848 366.89H306.072C288.384 366.89 273.999 352.5 273.999 334.812V137.526H289.999V334.812C289.999 343.677 297.207 350.89 306.072 350.89H370.848V366.89Z" fill="#FFB300" stroke="black" stroke-width="4" stroke-miterlimit="10" stroke-linecap="round" stroke-linejoin="round"/>
<path d="M289.999 159.713V137.526H273.999V166.333C279.322 164.099 284.655 161.896 289.999 159.713Z" fill="black"/>
<path d="M289.999 159.713V137.526H273.999V166.333C279.322 164.099 284.655 161.896 289.999 159.713Z" stroke="black" stroke-width="4" stroke-miterlimit="10" stroke-linecap="round" stroke-linejoin="round"/>
<path d="M258.515 126.479C258.515 113.51 269.03 103 281.999 103C294.968 103 305.483 113.51 305.483 126.479C305.483 139.453 294.968 149.964 281.999 149.964C269.03 149.964 258.515 139.453 258.515 126.479Z" fill="#FF7E00"/>
<path d="M258.515 126.479C258.515 113.51 269.03 103 281.999 103C294.968 103 305.483 113.51 305.483 126.479C305.483 139.453 294.968 149.964 281.999 149.964C269.03 149.964 258.515 139.453 258.515 126.479Z" stroke="black" stroke-width="4" stroke-miterlimit="10" stroke-linecap="round" stroke-linejoin="round"/>
<path d="M692.229 366.89H627.458V350.89H692.229C701.093 350.89 708.302 343.677 708.302 334.812V137.526H724.302V334.812C724.302 352.5 709.916 366.89 692.229 366.89Z" fill="#FFB300"/>
<path d="M692.229 366.89H627.458V350.89H692.229C701.093 350.89 708.302 343.677 708.302 334.812V137.526H724.302V334.812C724.302 352.5 709.916 366.89 692.229 366.89Z" stroke="black" stroke-width="4" stroke-miterlimit="10" stroke-linecap="round" stroke-linejoin="round"/>
<path d="M724.302 158.281V137.526H708.302V163.844C713.63 161.969 718.979 160.151 724.302 158.281Z" fill="black"/>
<path d="M724.302 158.281V137.526H708.302V163.844C713.63 161.969 718.979 160.151 724.302 158.281Z" stroke="black" stroke-width="4" stroke-miterlimit="10" stroke-linecap="round" stroke-linejoin="round"/>
<path d="M739.786 126.479C739.786 113.51 729.275 103 716.301 103C703.333 103 692.822 113.51 692.822 126.479C692.822 139.453 703.333 149.964 716.301 149.964C729.275 149.964 739.786 139.453 739.786 126.479Z" fill="#FF7E00"/>
<path d="M499.15 182.198V822.193M739.786 126.479C739.786 113.51 729.275 103 716.301 103C703.333 103 692.822 113.51 692.822 126.479C692.822 139.453 703.333 149.964 716.301 149.964C729.275 149.964 739.786 139.453 739.786 126.479Z" stroke="black" stroke-width="4" stroke-miterlimit="10" stroke-linecap="round" stroke-linejoin="round"/>
<path d="M507.15 822.193H491.15V182.198H507.15V822.193Z" fill="#FFB300" stroke="black" stroke-width="4" stroke-miterlimit="10" stroke-linecap="round" stroke-linejoin="round"/>
<path d="M491.15 272.099V741.359C496.442 739.995 501.775 738.839 507.15 737.87V268.109C501.76 269.193 496.411 270.464 491.15 272.099Z" fill="black"/>
<path d="M491.15 272.099V741.359C496.442 739.995 501.775 738.839 507.15 737.87V268.109C501.76 269.193 496.411 270.464 491.15 272.099Z" stroke="black" stroke-width="4" stroke-miterlimit="10" stroke-linecap="round" stroke-linejoin="round"/>
<path d="M491.15 795.391V822.193H507.15V789.859C501.713 791.406 496.359 793.193 491.15 795.391Z" fill="black"/>
<path d="M491.15 795.391V822.193H507.15V789.859C501.713 791.406 496.359 793.193 491.15 795.391Z" stroke="black" stroke-width="4" stroke-miterlimit="10" stroke-linecap="round" stroke-linejoin="round"/>
<path d="M507.15 211.807V182.198H491.15V218.474L507.15 211.807Z" fill="black" stroke="black" stroke-width="4" stroke-miterlimit="10" stroke-linecap="round" stroke-linejoin="round"/>
<path d="M720.322 502.198C720.322 624.343 621.301 723.369 499.15 723.369C376.999 723.369 277.979 624.343 277.979 502.198C277.979 380.047 376.999 281.021 499.15 281.021C621.301 281.021 720.322 380.047 720.322 502.198Z" fill="#495CDE"/>
<path d="M720.322 502.198C720.322 624.343 621.301 723.369 499.15 723.369C376.999 723.369 277.979 624.343 277.979 502.198C277.979 380.047 376.999 281.021 499.15 281.021C621.301 281.021 720.322 380.047 720.322 502.198Z" stroke="black" stroke-width="4" stroke-miterlimit="10" stroke-linecap="round" stroke-linejoin="round"/>
<path d="M665.281 411.14L695.026 402.104L678.833 373.995L665.281 411.14Z" fill="black"/>
<path d="M665.281 411.14L695.026 402.104L678.833 373.995L665.281 411.14Z" stroke="black" stroke-width="4" stroke-miterlimit="10" stroke-linecap="round" stroke-linejoin="round"/>
<path d="M622.817 502.198C622.817 624.343 567.452 723.369 499.15 723.369C430.853 723.369 375.483 624.343 375.483 502.198C375.483 380.047 430.853 281.021 499.15 281.021C567.452 281.021 622.817 380.047 622.817 502.198Z" fill="#495CDE"/>
<path d="M499.15 723.369C567.452 723.369 622.817 624.343 622.817 502.198C622.817 380.047 567.452 281.021 499.15 281.021M499.15 723.369C430.854 723.369 375.484 624.343 375.484 502.198C375.484 380.047 430.854 281.021 499.15 281.021M499.15 723.369V281.021M277.979 502.198H720.322" stroke="black" stroke-width="4" stroke-miterlimit="10" stroke-linecap="round" stroke-linejoin="round"/>
<mask id="mask0_773_1882" style="mask-type:luminance" maskUnits="userSpaceOnUse" x="277" y="280" width="444" height="118">
<path d="M277.911 280.364H720.578V397.698H277.911V280.364Z" fill="white"/>
</mask>
<g mask="url(#mask0_773_1882)">
<mask id="mask1_773_1882" style="mask-type:luminance" maskUnits="userSpaceOnUse" x="277" y="281" width="444" height="443">
<path d="M277.979 502.192C277.979 624.343 376.999 723.369 499.15 723.369C621.301 723.369 720.322 624.343 720.322 502.192C720.322 380.047 621.301 281.021 499.15 281.021C376.999 281.021 277.979 380.047 277.979 502.192Z" fill="white"/>
</mask>
<g mask="url(#mask1_773_1882)">
<path d="M720.322 243.307C720.322 327.172 621.301 395.156 499.15 395.156C376.999 395.156 277.979 327.172 277.979 243.307" stroke="black" stroke-width="4" stroke-miterlimit="10" stroke-linecap="round" stroke-linejoin="round"/>
</g>
</g>
<mask id="mask2_773_1882" style="mask-type:luminance" maskUnits="userSpaceOnUse" x="277" y="607" width="444" height="118">
<path d="M277.911 607.031H720.578V724.365H277.911V607.031Z" fill="white"/>
</mask>
<g mask="url(#mask2_773_1882)">
<mask id="mask3_773_1882" style="mask-type:luminance" maskUnits="userSpaceOnUse" x="277" y="281" width="444" height="443">
<path d="M277.979 502.192C277.979 624.343 376.999 723.369 499.15 723.369C621.301 723.369 720.322 624.343 720.322 502.192C720.322 380.047 621.301 281.021 499.15 281.021C376.999 281.021 277.979 380.047 277.979 502.192Z" fill="white"/>
</mask>
<g mask="url(#mask3_773_1882)">
<path d="M277.979 761.083C277.979 677.219 376.999 609.234 499.15 609.234C621.301 609.234 720.322 677.219 720.322 761.083" stroke="black" stroke-width="4" stroke-miterlimit="10" stroke-linecap="round" stroke-linejoin="round"/>
</g>
</g>
<path d="M522.634 823.609C522.634 836.578 512.119 847.094 499.15 847.094C486.181 847.094 475.671 836.578 475.671 823.609C475.671 810.641 486.181 800.125 499.15 800.125C512.119 800.125 522.634 810.641 522.634 823.609Z" fill="#FF7E00"/>
<path d="M522.634 823.609C522.634 836.578 512.119 847.094 499.15 847.094C486.181 847.094 475.671 836.578 475.671 823.609C475.671 810.641 486.181 800.125 499.15 800.125C512.119 800.125 522.634 810.641 522.634 823.609Z" stroke="black" stroke-width="4" stroke-miterlimit="10" stroke-linecap="round" stroke-linejoin="round"/>
<path d="M522.634 180.781C522.634 193.75 512.119 204.266 499.15 204.266C486.181 204.266 475.671 193.75 475.671 180.781C475.671 167.813 486.181 157.297 499.15 157.297C512.119 157.297 522.634 167.813 522.634 180.781Z" fill="#FF7E00"/>
<path d="M522.634 180.781C522.634 193.75 512.119 204.266 499.15 204.266C486.181 204.266 475.671 193.75 475.671 180.781C475.671 167.812 486.181 157.297 499.15 157.297C512.119 157.297 522.634 167.812 522.634 180.781Z" stroke="black" stroke-width="4" stroke-miterlimit="10" stroke-linecap="round" stroke-linejoin="round"/>
<path d="M359.213 415.12L394.973 307.422L352.812 335.656L359.213 415.12Z" fill="black"/>
<path d="M359.213 415.12L394.973 307.422L352.812 335.656L359.213 415.12Z" stroke="black" stroke-width="4" stroke-miterlimit="10" stroke-linecap="round" stroke-linejoin="round"/>
<path d="M918.031 186.578H678.823C669.062 186.578 661.146 194.49 661.146 204.255V408.016C661.146 411.318 665.557 412.432 667.125 409.526L682.567 380.953C685.656 375.24 691.625 371.677 698.119 371.677H918.031C927.797 371.677 935.713 363.766 935.713 354V204.255C935.713 194.49 927.797 186.578 918.031 186.578Z" fill="#00B36C"/>
<path d="M918.031 186.578H678.823C669.062 186.578 661.146 194.49 661.146 204.255V408.016C661.146 411.318 665.557 412.432 667.125 409.526L682.567 380.953C685.656 375.24 691.625 371.677 698.119 371.677H918.031C927.797 371.677 935.713 363.766 935.713 354V204.255C935.713 194.49 927.797 186.578 918.031 186.578Z" stroke="black" stroke-width="4" stroke-miterlimit="10" stroke-linecap="round" stroke-linejoin="round"/>
<path d="M128.854 216.547H343.359C352.115 216.547 359.214 223.646 359.214 232.401V415.12C359.214 418.083 355.26 419.083 353.849 416.479L340.005 390.854C337.234 385.729 331.88 382.536 326.057 382.536H128.854C120.099 382.536 113 375.438 113 366.682V232.401C113 223.646 120.099 216.547 128.854 216.547Z" fill="#FFB300"/>
<path d="M128.854 216.547H343.359C352.115 216.547 359.214 223.646 359.214 232.401V415.12C359.214 418.083 355.26 419.083 353.849 416.479L340.005 390.854C337.234 385.729 331.88 382.536 326.057 382.536H128.854C120.099 382.536 113 375.438 113 366.682V232.401C113 223.646 120.099 216.547 128.854 216.547Z" stroke="black" stroke-width="4" stroke-miterlimit="10" stroke-linecap="round" stroke-linejoin="round"/>
<path d="M855.854 274.156C852.01 274.156 848.291 274.708 844.77 275.718C835.729 258.896 817.968 247.458 797.536 247.458C776.999 247.458 759.171 259.01 750.171 275.968C746.385 274.791 742.364 274.156 738.192 274.156C716.416 274.156 698.692 291.458 697.979 313.057H896.067C895.354 291.458 877.63 274.156 855.854 274.156Z" fill="#F6EED6"/>
<path d="M855.854 274.156C852.01 274.156 848.291 274.708 844.77 275.718C835.729 258.896 817.968 247.458 797.536 247.458C776.999 247.458 759.171 259.01 750.171 275.968C746.385 274.791 742.364 274.156 738.192 274.156C716.416 274.156 698.692 291.458 697.979 313.057H896.067C895.354 291.458 877.63 274.156 855.854 274.156Z" stroke="black" stroke-width="4" stroke-miterlimit="10" stroke-linecap="round" stroke-linejoin="round"/>
<path d="M245.551 346.833C238.515 353.864 227.109 353.864 220.072 346.833C213.036 339.797 213.036 328.385 220.072 321.349C227.109 314.312 238.515 314.312 245.551 321.349C252.588 328.385 252.588 339.797 245.551 346.833Z" fill="#00B36C"/>
<path d="M245.551 346.833C238.515 353.864 227.109 353.864 220.072 346.833C213.036 339.797 213.036 328.385 220.072 321.349C227.109 314.312 238.515 314.312 245.551 321.349C252.588 328.385 252.588 339.797 245.551 346.833Z" stroke="black" stroke-width="4" stroke-miterlimit="10" stroke-linecap="round" stroke-linejoin="round"/>
<path d="M265.578 310.338C263.271 310.338 260.964 309.463 259.203 307.698C244.651 293.151 220.974 293.151 206.422 307.698C202.901 311.224 197.193 311.224 193.672 307.698C190.151 304.177 190.151 298.469 193.672 294.948C215.255 273.364 250.37 273.364 271.953 294.948C275.479 298.469 275.479 304.177 271.953 307.698C270.193 309.463 267.885 310.338 265.578 310.338Z" fill="#00B36C"/>
<path d="M265.578 310.338C263.271 310.338 260.964 309.463 259.203 307.698C244.651 293.151 220.974 293.151 206.422 307.698C202.901 311.224 197.193 311.224 193.672 307.698C190.151 304.177 190.151 298.469 193.672 294.948C215.255 273.364 250.37 273.364 271.953 294.948C275.479 298.469 275.479 304.177 271.953 307.698C270.193 309.463 267.885 310.338 265.578 310.338Z" stroke="black" stroke-width="4" stroke-miterlimit="10" stroke-linecap="round" stroke-linejoin="round"/>
<path d="M283.082 281.869C280.775 281.869 278.467 280.989 276.707 279.229C252.504 255.026 213.118 255.026 188.915 279.229C185.395 282.75 179.686 282.75 176.16 279.229C172.645 275.703 172.645 269.994 176.16 266.474C207.4 235.234 258.223 235.234 289.462 266.474C292.983 269.994 292.983 275.703 289.462 279.229C287.702 280.989 285.389 281.869 283.082 281.869Z" fill="#00B36C"/>
<path d="M283.082 281.869C280.775 281.869 278.467 280.989 276.707 279.229C252.504 255.026 213.118 255.026 188.915 279.229C185.395 282.75 179.686 282.75 176.16 279.229C172.645 275.703 172.645 269.994 176.16 266.474C207.4 235.234 258.223 235.234 289.462 266.474C292.983 269.994 292.983 275.703 289.462 279.229C287.702 280.989 285.389 281.869 283.082 281.869Z" stroke="black" stroke-width="4" stroke-miterlimit="10" stroke-linecap="round" stroke-linejoin="round"/>
</svg>
