<svg width="1000" height="1000" viewBox="0 0 1000 1000" fill="none" xmlns="http://www.w3.org/2000/svg">
<path d="M869.75 499.698C869.75 703.974 704.151 869.578 499.875 869.578C295.599 869.578 130 703.974 130 499.698C130 295.422 295.599 129.823 499.875 129.823C704.151 129.823 869.75 295.422 869.75 499.698Z" fill="#F6EED6"/>
<path d="M869.75 499.698C869.75 703.974 704.151 869.578 499.875 869.578C295.599 869.578 130 703.974 130 499.698C130 295.422 295.599 129.823 499.875 129.823C704.151 129.823 869.75 295.422 869.75 499.698Z" stroke="black" stroke-width="4" stroke-miterlimit="10" stroke-linecap="round" stroke-linejoin="round"/>
<path d="M796.77 364.511H609.541C609.541 364.511 641.666 338.912 665.76 341.922C689.854 344.938 694.942 356.302 715.458 348.948C742.062 339.412 771.171 326.36 796.77 364.511Z" fill="#F6EED6"/>
<path d="M796.77 364.511H609.541C609.541 364.511 641.666 338.912 665.76 341.922C689.854 344.938 694.942 356.302 715.458 348.948C742.062 339.412 771.171 326.36 796.77 364.511Z" stroke="black" stroke-width="4" stroke-miterlimit="10" stroke-linecap="round" stroke-linejoin="round"/>
<path d="M619.583 229.484H460.963C460.963 229.484 468.489 216.932 482.041 215.427C485.432 215.052 488.729 215.052 491.76 215.265C500.38 215.864 508.713 212.088 514.223 205.437C518.635 200.114 525.801 195.036 537.26 194.349C550.062 193.578 559.208 199.734 565.098 205.948C571.051 212.234 579.359 215.594 588.01 215.432C597.458 215.26 609.781 217.828 619.583 229.484Z" fill="#F6EED6"/>
<path d="M619.583 229.484H460.963C460.963 229.484 468.489 216.932 482.041 215.427C485.432 215.052 488.729 215.052 491.76 215.265C500.38 215.864 508.713 212.088 514.223 205.437C518.635 200.114 525.801 195.036 537.26 194.349C550.062 193.578 559.208 199.734 565.098 205.948C571.051 212.234 579.359 215.594 588.01 215.432C597.458 215.26 609.781 217.828 619.583 229.484Z" stroke="black" stroke-width="4" stroke-miterlimit="10" stroke-linecap="round" stroke-linejoin="round"/>
<path d="M434.214 42.505H407.094V16.5259H434.214V42.505Z" fill="#FF7E00" stroke="black" stroke-width="4" stroke-miterlimit="10" stroke-linecap="round" stroke-linejoin="round"/>
<path d="M429.14 165.771H385.838V70.859C385.838 68.2132 387.979 66.0674 390.624 66.0674H424.354C426.999 66.0674 429.14 68.2132 429.14 70.859V165.771Z" fill="#495CDE" stroke="black" stroke-width="4" stroke-miterlimit="10" stroke-linecap="round" stroke-linejoin="round"/>
<path d="M486.542 187.229H328.438V92.3177C328.438 89.6719 330.578 87.5312 333.224 87.5312H481.755C484.401 87.5312 486.542 89.6719 486.542 92.3177V187.229Z" fill="#495CDE" stroke="black" stroke-width="4" stroke-miterlimit="10" stroke-linecap="round" stroke-linejoin="round"/>
<path d="M328.438 187.229H486.542V113.281L328.438 120.057V187.229Z" fill="black" stroke="black" stroke-width="4" stroke-miterlimit="10" stroke-linecap="round" stroke-linejoin="round"/>
<path d="M515.645 676.854H299.332V128.312C299.332 125.667 301.473 123.526 304.118 123.526H510.858C513.504 123.526 515.645 125.667 515.645 128.312V676.854Z" fill="#495CDE" stroke="black" stroke-width="4" stroke-miterlimit="10" stroke-linecap="round" stroke-linejoin="round"/>
<path d="M474.542 676.854H340.438V177.286H474.542V676.854Z" fill="#495CDE" stroke="black" stroke-width="4" stroke-miterlimit="10" stroke-linecap="round" stroke-linejoin="round"/>
<path d="M429.093 676.854H385.885V177.286H429.093V676.854Z" fill="#495CDE" stroke="black" stroke-width="4" stroke-miterlimit="10" stroke-linecap="round" stroke-linejoin="round"/>
<path d="M810.275 676.854H459.707V426.125H825.634V661.495C825.634 669.979 818.759 676.854 810.275 676.854Z" fill="#FF7E00"/>
<path d="M810.275 676.854H459.707V426.125H825.634V661.495C825.634 669.979 818.759 676.854 810.275 676.854Z" stroke="black" stroke-width="4" stroke-miterlimit="10" stroke-linecap="round" stroke-linejoin="round"/>
<path d="M730.155 609.198H616.572V515.698H730.155V609.198ZM567.853 672.984H495.285V496.828H567.853V672.984Z" fill="#F8EED3" stroke="black" stroke-width="4" stroke-miterlimit="10" stroke-linecap="round" stroke-linejoin="round"/>
<path d="M740.718 614.739H606.01C604.775 614.739 603.775 613.739 603.775 612.505V601.979C603.775 600.745 604.775 599.745 606.01 599.745H740.718C741.952 599.745 742.952 600.745 742.952 601.979V612.505C742.952 613.739 741.952 614.739 740.718 614.739Z" fill="#495CDE"/>
<path d="M740.718 614.739H606.01C604.775 614.739 603.775 613.739 603.775 612.505V601.979C603.775 600.745 604.775 599.745 606.01 599.745H740.718C741.952 599.745 742.952 600.745 742.952 601.979V612.505C742.952 613.739 741.952 614.739 740.718 614.739Z" stroke="black" stroke-width="4" stroke-miterlimit="10" stroke-linecap="round" stroke-linejoin="round"/>
<path d="M811.717 676.854H755.816V426.125H825.634V662.938C825.634 670.625 819.405 676.854 811.717 676.854Z" fill="#495CDE"/>
<path d="M811.717 676.854H755.816V426.125H825.634V662.938C825.634 670.625 819.405 676.854 811.717 676.854Z" stroke="black" stroke-width="4" stroke-miterlimit="10" stroke-linecap="round" stroke-linejoin="round"/>
<path d="M825.634 436.292L459.707 427.255V426.125H825.634V436.292Z" fill="black" stroke="black" stroke-width="4" stroke-miterlimit="10" stroke-linecap="round" stroke-linejoin="round"/>
<path d="M506.733 461.958C492.051 461.958 480.145 473.864 480.145 488.547V515.901H562.212L588.806 461.958H506.733Z" fill="#F8EED3" stroke="black" stroke-width="4" stroke-miterlimit="10" stroke-linecap="round" stroke-linejoin="round"/>
<path d="M558.686 461.958H506.733C492.051 461.958 480.145 473.864 480.145 488.547V515.901H532.098V488.547C532.098 473.864 544.004 461.958 558.686 461.958Z" fill="#F8EED3"/>
<path d="M558.686 461.958H506.733C492.051 461.958 480.145 473.864 480.145 488.547V515.901H532.098V488.547C532.098 473.864 544.004 461.958 558.686 461.958Z" stroke="black" stroke-width="4" stroke-miterlimit="10" stroke-linecap="round" stroke-linejoin="round"/>
<path d="M566.717 461.958H514.764C500.082 461.958 488.176 473.864 488.176 488.547V515.901H540.129V488.547C540.129 467.536 552.035 461.958 566.717 461.958Z" fill="#495CDE"/>
<path d="M566.717 461.958H514.764C500.082 461.958 488.176 473.864 488.176 488.547V515.901H540.129V488.547C540.129 467.536 552.035 461.958 566.717 461.958Z" stroke="black" stroke-width="4" stroke-miterlimit="10" stroke-linecap="round" stroke-linejoin="round"/>
<path d="M528.197 461.958H506.733C492.051 461.958 480.145 473.864 480.145 488.547V515.901H501.603V488.547C501.603 473.864 513.509 461.958 528.197 461.958Z" fill="#495CDE"/>
<path d="M528.197 461.958H506.733C492.051 461.958 480.145 473.864 480.145 488.547V515.901H501.603V488.547C501.603 473.864 513.509 461.958 528.197 461.958Z" stroke="black" stroke-width="4" stroke-miterlimit="10" stroke-linecap="round" stroke-linejoin="round"/>
<path d="M544.259 461.958H517.171C505.592 461.958 496.207 471.343 496.207 482.922V515.901H517.665V488.547C517.665 468.791 529.572 461.958 544.259 461.958Z" fill="#F8EED3"/>
<path d="M544.259 461.958H517.171C505.592 461.958 496.207 471.343 496.207 482.922V515.901H517.665V488.547C517.665 468.791 529.572 461.958 544.259 461.958Z" stroke="black" stroke-width="4" stroke-miterlimit="10" stroke-linecap="round" stroke-linejoin="round"/>
<path d="M588.807 461.958C574.12 461.958 562.219 473.864 562.219 488.547V515.901H588.807V461.958Z" fill="#495CDE" stroke="black" stroke-width="4" stroke-miterlimit="10" stroke-linecap="round" stroke-linejoin="round"/>
<path d="M406.749 65.7188V9M299.832 177.906H515.676" stroke="black" stroke-width="4" stroke-miterlimit="10" stroke-linecap="round" stroke-linejoin="round"/>
<path d="M647.691 564.896L685.566 527.021L647.691 564.896ZM665.02 571.192L688.853 547.359L665.02 571.192ZM508.645 588.989L546.525 551.114L508.645 588.989ZM525.978 595.286L549.806 571.453L525.978 595.286Z" fill="#495CDE"/>
<path d="M647.691 564.896L685.566 527.021M665.02 571.192L688.853 547.359M508.645 588.989L546.525 551.114M525.978 595.286L549.806 571.453" stroke="black" stroke-width="4" stroke-miterlimit="10" stroke-linecap="round" stroke-linejoin="round"/>
<path d="M456.505 53.2341H422.719V27.2549H456.505V53.2341Z" fill="#FF7E00" stroke="black" stroke-width="4" stroke-miterlimit="10" stroke-linecap="round" stroke-linejoin="round"/>
<path d="M434.214 16.5259L422.719 27.255H433.729L434.214 16.5259Z" fill="black" stroke="black" stroke-width="4" stroke-miterlimit="10" stroke-linecap="round" stroke-linejoin="round"/>
<path d="M499.874 869.578C644.182 869.578 769.171 786.927 830.13 666.385H169.619C230.577 786.927 355.567 869.578 499.874 869.578Z" fill="#00B36C"/>
<path d="M499.874 869.578C644.182 869.578 769.171 786.927 830.13 666.385H169.619C230.577 786.927 355.567 869.578 499.874 869.578Z" stroke="black" stroke-width="4" stroke-miterlimit="10" stroke-linecap="round" stroke-linejoin="round"/>
<path d="M627.863 772.479C627.863 772.479 638.655 769.469 645.681 790.547C652.707 811.63 648.697 834.724 648.697 834.724L636.665 840.516C621.103 848.016 602.525 839.844 597.54 823.302L595.988 818.156L627.863 772.479Z" fill="black" stroke="black" stroke-width="4" stroke-miterlimit="10" stroke-linecap="round" stroke-linejoin="round"/>
<path d="M641.697 816.25C641.697 816.25 670.807 793.693 686.473 779.068C690.801 775.026 697.702 775.734 701.166 780.536C704.734 785.49 702.984 792.464 697.505 795.151L653.327 816.781L641.697 816.25Z" fill="#FFB300" stroke="black" stroke-width="4" stroke-miterlimit="10" stroke-linecap="round" stroke-linejoin="round"/>
<path d="M657.229 807.114C657.229 807.114 688.13 787.078 704.968 773.823C709.619 770.156 716.437 771.437 719.484 776.515C722.624 781.755 720.296 788.557 714.609 790.771L668.775 808.62L657.229 807.114Z" fill="#FFB300" stroke="black" stroke-width="4" stroke-miterlimit="10" stroke-linecap="round" stroke-linejoin="round"/>
<path d="M732.108 777.323C729.525 773.516 724.441 772.359 720.467 774.672C708.103 781.875 681.962 796.094 663.749 798.948C639.134 802.812 606.316 797.984 606.316 797.984L601.254 855.505C649.223 841.865 693.207 818.766 731.092 788.38C733.993 785.443 734.473 780.818 732.108 777.323Z" fill="#FFB300"/>
<path d="M732.108 777.323C729.525 773.516 724.441 772.359 720.467 774.672C708.103 781.875 681.962 796.094 663.749 798.948C639.134 802.812 606.316 797.984 606.316 797.984L601.254 855.505C649.223 841.865 693.207 818.766 731.092 788.38C733.993 785.443 734.473 780.818 732.108 777.323Z" stroke="black" stroke-width="4" stroke-miterlimit="10" stroke-linecap="round" stroke-linejoin="round"/>
<path d="M365.901 509.953C365.901 509.953 361.984 525.297 373.828 539.244C384.172 551.427 397.281 557.718 396.865 580.385L325.344 565.39L325.203 510.698L349.693 498.552L365.901 509.953Z" fill="#FF7E00" stroke="black" stroke-width="4" stroke-miterlimit="10" stroke-linecap="round" stroke-linejoin="round"/>
<path d="M196.932 589.135C196.932 589.135 171.333 570.693 183 539.068C190.531 518.661 227.047 486.359 223.661 460.76C220.271 435.161 214.25 421.234 223.661 400.151C233.073 379.068 268.838 369.281 268.838 369.281C268.838 369.281 280.505 342.172 306.109 332.385C331.708 322.599 359.187 341.047 361.073 378.318C361.073 378.318 385.922 383.964 390.437 409.562C394.953 435.161 382.906 465.656 382.906 465.656L300.458 508.573L278.25 580.479L196.932 589.135Z" fill="#FF7E00" stroke="black" stroke-width="4" stroke-miterlimit="10" stroke-linecap="round" stroke-linejoin="round"/>
<path d="M627.864 772.479L522.452 779.255C502.119 724.292 463.723 617.375 429.838 590.266C395.958 563.161 348.525 557.141 348.525 557.141L404.239 713.75L450.369 828.526C458.265 848.172 474.312 862.943 493.77 869.5C495.801 869.531 497.833 869.578 499.874 869.578C541.275 869.578 581.088 862.771 618.255 850.224C608.317 810.938 627.864 772.479 627.864 772.479Z" fill="#F6EED6"/>
<path d="M627.864 772.479L522.452 779.255C502.119 724.292 463.723 617.375 429.838 590.266C395.958 563.161 348.525 557.141 348.525 557.141L404.239 713.75L450.369 828.526C458.265 848.172 474.312 862.943 493.77 869.5C495.801 869.531 497.833 869.578 499.874 869.578C541.275 869.578 581.088 862.771 618.255 850.224C608.317 810.938 627.864 772.479 627.864 772.479Z" stroke="black" stroke-width="4" stroke-miterlimit="10" stroke-linecap="round" stroke-linejoin="round"/>
<path d="M335.426 516.995C335.426 516.995 340.41 518.265 347.092 518.364L335.426 516.995Z" fill="#F8EED3"/>
<path d="M335.426 516.995C335.426 516.995 340.41 518.265 347.092 518.364" stroke="black" stroke-width="4" stroke-miterlimit="10" stroke-linecap="round" stroke-linejoin="round"/>
<path d="M432.598 658.786L426.983 626.646C422.108 598.75 393.358 584.458 366.342 575.958L352.035 560.151C352.035 560.151 263.191 547.349 207.473 575.958C180.171 589.979 161.384 605.62 149.301 617.932C168.457 674.755 201.051 725.385 243.285 766.078H403.238C403.238 766.078 430.342 703.958 432.598 658.786Z" fill="#F6EED6"/>
<path d="M246.514 766.078H403.233C403.233 766.078 430.342 703.963 432.603 658.786M352.035 560.151C352.035 560.151 263.191 547.349 207.473 575.963C179.827 590.156 162.145 605.094 150.082 617.474" stroke="black" stroke-width="4" stroke-miterlimit="10" stroke-linecap="round" stroke-linejoin="round"/>
<path d="M266.203 545.089L329.448 604.573L352.036 558.391L341.495 517.984C341.495 517.984 366.344 520.995 380.651 509.703C394.953 498.406 398.719 483.349 385.167 448.714C371.615 414.078 367.474 397.516 356.177 386.219C342.625 372.667 313.26 382.458 301.214 400.526C289.167 418.599 292.557 461.516 292.557 461.516L272.224 493.135L266.203 545.089Z" fill="#FFB300" stroke="black" stroke-width="4" stroke-miterlimit="10" stroke-linecap="round" stroke-linejoin="round"/>
<path d="M350.156 481.469C350.156 481.469 355.427 489.375 364.458 487.114M524.583 779.38L471.88 783.146M361.823 440.807C361.823 440.807 362.953 451.349 371.156 462.693C373.068 465.333 373.328 468.823 372.172 471.864L371.24 474.312M329.448 604.573L315.109 623.213C313.01 625.943 308.797 625.583 307.182 622.542L266.203 545.088L329.448 604.573Z" stroke="black" stroke-width="4" stroke-miterlimit="10" stroke-linecap="round" stroke-linejoin="round"/>
<path d="M329.447 604.573L349.197 617.651C352.484 619.828 356.838 617.255 356.515 613.323L352.036 558.396L329.447 604.573Z" fill="#F8EED3" stroke="black" stroke-width="4" stroke-miterlimit="10" stroke-linecap="round" stroke-linejoin="round"/>
<path d="M192.895 706.125L207.473 671.583L192.895 706.125Z" fill="#E05B66"/>
<path d="M192.895 706.125L207.473 671.583" stroke="black" stroke-width="4" stroke-miterlimit="10" stroke-linecap="round" stroke-linejoin="round"/>
<path d="M580.177 776.245C580.177 776.245 561.073 800.38 573.875 861.37" stroke="black" stroke-width="4" stroke-miterlimit="10" stroke-linecap="round" stroke-linejoin="round"/>
<path d="M509.9 746.125L521.447 779.255L498.609 781.265L509.9 746.125ZM432.348 664.057C432.348 664.057 428.588 694.677 421.057 719.271C418.312 728.229 413.775 738.599 413.775 738.599L431.598 780.76C431.598 780.76 439.38 691.161 432.348 664.057Z" fill="black"/>
<path d="M329.822 517.234L342.624 517.984" stroke="black" stroke-width="4" stroke-miterlimit="10" stroke-linecap="round" stroke-linejoin="round"/>
<path d="M329.072 517.422L342.249 518.172L346.952 537.938L329.072 517.422Z" fill="black"/>
<path d="M277.119 473.562C277.119 473.562 274.484 490.63 286.531 512.714C296.958 531.833 307.614 576.339 280.255 583.24C249.01 591.125 243.109 556.135 212.994 565.672" fill="#FF7E00"/>
<path d="M277.119 473.562C277.119 473.562 274.484 490.63 286.531 512.714C296.958 531.833 307.614 576.339 280.255 583.24C249.01 591.125 243.109 556.135 212.994 565.672" stroke="black" stroke-width="4" stroke-miterlimit="10" stroke-linecap="round" stroke-linejoin="round"/>
<path d="M361.072 378.313C346.514 331.005 313.889 349.828 310.374 366.896C307.79 379.427 308.363 399.521 309.868 416.589C311.374 433.656 311.374 444.698 303.348 454.74C295.311 464.776 281.759 460.26 281.759 460.26L256.16 432.651L299.832 355.349" fill="#FF7E00"/>
<path d="M362.577 392.62C355.426 335.396 313.26 345.937 309.874 370.031C308.088 382.703 308.364 399.521 309.874 416.588C311.38 433.656 311.38 444.698 303.348 454.74C295.317 464.776 281.76 460.26 281.76 460.26" stroke="black" stroke-width="4" stroke-miterlimit="10" stroke-linecap="round" stroke-linejoin="round"/>
<path d="M293.447 465.787L286.155 449.844C283.806 445.333 278.514 443.214 273.702 444.859C268.827 446.531 265.942 451.557 266.962 456.609L269.332 478.797C270.686 485.531 276.051 490.734 282.822 491.88L283.483 491.99" fill="#FFB300"/>
<path d="M293.447 465.787L286.155 449.844C283.806 445.333 278.514 443.214 273.702 444.859C268.827 446.531 265.942 451.557 266.962 456.609L269.332 478.797C270.686 485.531 276.051 490.734 282.822 491.88L283.483 491.99" stroke="black" stroke-width="4" stroke-miterlimit="10" stroke-linecap="round" stroke-linejoin="round"/>
<path d="M273.729 359.87C273.729 359.87 267.708 370.786 264.697 381.703L273.729 359.87Z" fill="#F8EED3"/>
<path d="M273.729 359.87C273.729 359.87 267.708 370.786 264.697 381.703" stroke="black" stroke-width="4" stroke-miterlimit="10" stroke-linecap="round" stroke-linejoin="round"/>
<path d="M309.869 377.188C309.869 377.188 342.624 353.089 356.176 386.219" stroke="black" stroke-width="4" stroke-miterlimit="10" stroke-linecap="round" stroke-linejoin="round"/>
<path d="M331.707 444.198C331.707 444.198 336.223 436.292 346.009 438.172" stroke="black" stroke-width="5.33333" stroke-miterlimit="10" stroke-linecap="round" stroke-linejoin="round"/>
<path d="M346.858 452.901C346.858 454.802 345.322 456.339 343.426 456.339C341.525 456.339 339.988 454.802 339.988 452.901C339.988 451.005 341.525 449.469 343.426 449.469C345.322 449.469 346.858 451.005 346.858 452.901Z" fill="black"/>
<path d="M366.566 432.344C366.566 432.344 371.046 427.823 377.259 431.021" stroke="black" stroke-width="5.33333" stroke-miterlimit="10" stroke-linecap="round" stroke-linejoin="round"/>
<path d="M379.567 445.703C379.567 447.599 378.025 449.135 376.13 449.135C374.234 449.135 372.697 447.599 372.697 445.703C372.697 443.807 374.234 442.266 376.13 442.266C378.025 442.266 379.567 443.807 379.567 445.703Z" fill="black"/>
<path d="M330.953 604.573C330.953 604.573 349.781 680.62 340.745 764.948" stroke="black" stroke-width="4" stroke-miterlimit="10" stroke-linecap="round" stroke-linejoin="round"/>
<path d="M678.999 822.276C684.145 819.333 688.77 815.588 693.952 812.693C694.077 812.62 694.202 812.568 694.327 812.5C694.202 811.755 693.973 811.015 693.609 810.312C691.624 806.5 686.859 805.13 683.14 807.292C678.807 809.812 672.609 813.109 665.26 816.151C650.702 822.172 641.166 818.656 641.166 818.656L664.114 829.885C669.062 827.328 674.161 825.042 678.999 822.276Z" fill="#FFB300"/>
<path d="M243.285 766.078C298.634 819.406 370.556 855.635 450.566 866.297C439.384 818.401 403.238 766.078 403.238 766.078H243.285Z" fill="#495CDE" stroke="black" stroke-width="4" stroke-miterlimit="10" stroke-linecap="round" stroke-linejoin="round"/>
<path d="M261.936 300.135C258.546 299.76 255.249 299.76 252.217 299.969C243.598 300.573 235.264 296.797 229.754 290.141C225.342 284.823 218.176 279.74 206.717 279.052C205.441 278.974 204.212 278.984 203.009 279.042C194.639 290.281 186.9 302.016 179.832 314.188H283.014C283.014 314.188 275.488 301.641 261.936 300.135Z" fill="#F6EED6"/>
<path d="M261.936 300.135C258.546 299.76 255.249 299.76 252.217 299.969C243.598 300.573 235.264 296.797 229.754 290.141C225.342 284.823 218.176 279.74 206.717 279.052C205.441 278.974 204.212 278.984 203.009 279.042C194.639 290.281 186.9 302.016 179.832 314.188H283.014C283.014 314.188 275.488 301.641 261.936 300.135Z" stroke="black" stroke-width="4" stroke-miterlimit="10" stroke-linecap="round" stroke-linejoin="round"/>
<path d="M855.531 406.172H447.885C442.307 406.172 437.781 410.698 437.781 416.276C437.781 421.854 442.307 426.38 447.885 426.38H855.531C861.109 426.38 865.63 421.854 865.63 416.276C865.63 410.698 861.109 406.172 855.531 406.172Z" fill="#FF7E00"/>
<path d="M855.531 406.172H447.885C442.307 406.172 437.781 410.698 437.781 416.276C437.781 421.854 442.307 426.38 447.885 426.38H855.531C861.109 426.38 865.63 421.854 865.63 416.276C865.63 410.698 861.109 406.172 855.531 406.172Z" stroke="black" stroke-width="4" stroke-miterlimit="10" stroke-linecap="round" stroke-linejoin="round"/>
<path d="M855.531 406.172H727.885C722.307 406.172 717.781 410.698 717.781 416.276C717.781 421.854 722.307 426.38 727.885 426.38H855.531C861.109 426.38 865.63 421.854 865.63 416.276C865.63 410.698 861.109 406.172 855.531 406.172Z" fill="#495CDE"/>
<path d="M855.531 406.172H727.885C722.307 406.172 717.781 410.698 717.781 416.276C717.781 421.854 722.307 426.38 727.885 426.38H855.531C861.109 426.38 865.63 421.854 865.63 416.276C865.63 410.698 861.109 406.172 855.531 406.172Z" stroke="black" stroke-width="4" stroke-miterlimit="10" stroke-linecap="round" stroke-linejoin="round"/>
<path d="M308.14 683.01H242.635V664.938H308.14V683.01Z" fill="#F8EED3" stroke="black" stroke-width="4" stroke-miterlimit="10" stroke-linecap="round" stroke-linejoin="round"/>
<path d="M272.729 791.552H418.297M869.75 499.698C869.75 703.974 704.151 869.578 499.875 869.578C295.599 869.578 130 703.974 130 499.698C130 370.161 196.594 256.177 297.411 190.109" stroke="black" stroke-width="4" stroke-miterlimit="10" stroke-linecap="round" stroke-linejoin="round"/>
<path d="M641.166 818.662C641.166 818.662 650.702 822.172 665.26 816.151C672.609 813.11 678.807 809.813 683.14 807.292C686.859 805.13 691.624 806.5 693.609 810.318C694.255 811.563 694.525 812.922 694.442 814.245" stroke="black" stroke-width="4" stroke-miterlimit="10" stroke-linecap="round" stroke-linejoin="round"/>
</svg>
