<svg width="1000" height="1000" viewBox="0 0 1000 1000" fill="none" xmlns="http://www.w3.org/2000/svg">
<path d="M869.755 499.875C869.755 704.151 704.156 869.75 499.875 869.75C295.599 869.75 130 704.151 130 499.875C130 295.599 295.599 130 499.875 130C704.156 130 869.755 295.599 869.755 499.875Z" fill="#F6EED6"/>
<path d="M869.755 499.875C869.755 704.151 704.156 869.75 499.875 869.75C295.599 869.75 130 704.151 130 499.875C130 295.599 295.599 130 499.875 130C704.156 130 869.755 295.599 869.755 499.875Z" stroke="black" stroke-width="4" stroke-miterlimit="10" stroke-linecap="round" stroke-linejoin="round"/>
<path d="M758.569 500.089C758.569 359.953 659.918 242.875 528.283 214.453L533.512 207.854H461.882L461.871 207.912C302.533 210.297 174.09 340.183 174.09 500.089C174.09 661.49 304.934 792.328 466.329 792.328H528.939L528.98 785.573C660.267 756.891 758.569 639.979 758.569 500.089Z" fill="#495CDE"/>
<path d="M758.569 500.089C758.569 359.953 659.918 242.875 528.283 214.453L533.512 207.854H461.882L461.871 207.912C302.533 210.297 174.09 340.183 174.09 500.089C174.09 661.49 304.934 792.328 466.329 792.328H528.939L528.98 785.573C660.267 756.891 758.569 639.98 758.569 500.089Z" stroke="black" stroke-width="4" stroke-miterlimit="10" stroke-linecap="round" stroke-linejoin="round"/>
<path d="M577.558 229.802C548.599 233.86 519.938 239.776 491.881 248.339C426.86 268.182 368.042 303.271 321.042 352.557C273.849 402.047 244.782 467.396 245.672 536.292C246.537 602.797 275.146 665.052 320.172 713.203C342.766 737.36 368.37 758.958 396.625 776.214C403.714 780.542 411.084 784.682 418.667 788.438C434.177 790.985 450.094 792.328 466.329 792.328H528.938L528.98 785.573C660.266 756.896 758.568 639.979 758.568 500.089C758.568 378.078 683.782 273.557 577.558 229.802Z" fill="black"/>
<path d="M326.068 244.224H437.672M220.245 343.412H331.854M261.469 293.151H373.078M197.219 607.88H308.823M263.979 708.771H375.583M180.516 447.865H292.12M180.516 552.318H292.12M176.75 495.849H288.359M194.823 394.953H306.427M577.557 229.802C548.599 233.86 519.938 239.776 491.88 248.339C426.859 268.182 368.042 303.271 321.042 352.557C273.849 402.047 244.781 467.396 245.672 536.292C246.536 602.797 275.146 665.052 320.172 713.203C342.766 737.36 368.37 758.959 396.625 776.214C403.714 780.542 411.083 784.682 418.667 788.438C434.177 790.985 450.094 792.328 466.328 792.328H528.938L528.979 785.573C660.266 756.896 758.568 639.979 758.568 500.089C758.568 378.078 683.781 273.557 577.557 229.802Z" stroke="black" stroke-width="4" stroke-miterlimit="10" stroke-linecap="round" stroke-linejoin="round"/>
<path d="M220.053 658.026L330.407 656.771L220.053 658.026Z" fill="#F6EED6"/>
<path d="M220.053 658.026L330.407 656.771" stroke="black" stroke-width="4" stroke-miterlimit="10" stroke-linecap="round" stroke-linejoin="round"/>
<path d="M335.105 761.229H446.71" stroke="black" stroke-width="4" stroke-miterlimit="10" stroke-linecap="round" stroke-linejoin="round"/>
<path d="M825.745 500.089C825.745 661.49 694.907 792.328 533.511 792.328C372.11 792.328 241.271 661.49 241.271 500.089C241.271 338.693 372.11 207.854 533.511 207.854C694.907 207.854 825.745 338.693 825.745 500.089Z" fill="#FFB300"/>
<path d="M731.761 338.016C742.422 330.818 754.203 326.427 766.448 323.625C752.974 305.865 737.511 289.698 720.401 275.443C712.839 286.557 706.61 298.563 702.089 311.245C696.657 326.474 693.761 342.11 692.417 358.177C691.563 368.349 690.761 378.807 691.615 389.047C698.099 368.162 713.901 350.083 731.761 338.016Z" fill="black"/>
<path d="M731.761 338.016C742.422 330.818 754.203 326.427 766.448 323.625C752.974 305.865 737.511 289.698 720.401 275.443C712.839 286.557 706.61 298.563 702.089 311.245C696.657 326.474 693.761 342.11 692.417 358.177C691.563 368.349 690.761 378.807 691.615 389.047C698.099 368.162 713.901 350.083 731.761 338.016Z" stroke="black" stroke-width="4" stroke-miterlimit="10" stroke-linecap="round" stroke-linejoin="round"/>
<path d="M453.382 220.651L827.694 594.834M261.954 391.37L643.85 773.261M248.715 436.636L614.595 802.516" stroke="#F8EED3" stroke-width="4" stroke-miterlimit="10" stroke-linecap="round" stroke-linejoin="round"/>
<path d="M575.51 538.282C575.51 523.198 565.036 508.12 549.536 499.74V575.917C564.62 571.73 575.51 558.323 575.51 542.823V538.282ZM534.458 473.766V401.188C518.536 403.698 506.391 416.688 506.391 433.026V436.485C506.391 451.985 517.281 465.808 534.458 473.766ZM593.943 538.282V542.823C593.943 568.797 574.672 590.162 549.536 594.771V611.11C549.536 616.136 545.766 618.646 541.995 618.646C538.224 618.646 534.458 616.136 534.458 611.11V595.188C506.807 592.677 485.859 570.474 485.859 542.823C485.859 537.797 490.052 533.61 495.078 533.61C500.104 533.61 504.297 537.797 504.297 542.823C504.297 560.417 516.859 574.245 534.458 576.756V493.875C505.552 483.401 487.958 460.782 487.958 436.485V433.026C487.958 406.636 508.484 385.266 534.458 382.756V366.834C534.458 361.808 538.224 359.292 541.995 359.292C545.766 359.292 549.536 361.808 549.536 366.839V383.172C573.833 387.365 591.849 408.308 591.849 433.026C591.849 438.052 587.656 442.24 582.63 442.24C577.604 442.24 573.417 438.052 573.417 433.026C573.417 418.36 563.365 405.797 549.536 402.026V479.631C576.349 490.105 593.943 513.146 593.943 538.282Z" fill="#495CDE"/>
<path d="M575.51 538.282C575.51 523.198 565.036 508.12 549.536 499.74V575.917C564.62 571.73 575.51 558.323 575.51 542.823V538.282ZM534.458 473.766V401.188C518.536 403.698 506.391 416.688 506.391 433.026V436.485C506.391 451.985 517.281 465.808 534.458 473.766ZM593.943 538.282V542.823C593.943 568.797 574.672 590.162 549.536 594.771V611.11C549.536 616.136 545.766 618.646 541.995 618.646C538.224 618.646 534.458 616.136 534.458 611.11V595.188C506.807 592.677 485.859 570.474 485.859 542.823C485.859 537.797 490.052 533.61 495.078 533.61C500.104 533.61 504.297 537.797 504.297 542.823C504.297 560.417 516.859 574.245 534.458 576.756V493.875C505.552 483.401 487.958 460.782 487.958 436.485V433.026C487.958 406.636 508.484 385.266 534.458 382.756V366.834C534.458 361.808 538.224 359.292 541.995 359.292C545.766 359.292 549.536 361.808 549.536 366.839V383.172C573.833 387.365 591.849 408.308 591.849 433.026C591.849 438.052 587.656 442.24 582.63 442.24C577.604 442.24 573.417 438.052 573.417 433.026C573.417 418.36 563.365 405.797 549.536 402.026V479.631C576.349 490.105 593.943 513.146 593.943 538.282Z" stroke="black" stroke-width="4" stroke-miterlimit="10" stroke-linecap="round" stroke-linejoin="round"/>
<path d="M534.459 401.187C534.459 401.187 542.391 399.922 549.537 402.026L534.459 401.187ZM534.459 493.875C534.459 493.875 547.652 498.156 551.626 501.047L534.459 493.875Z" fill="#495CDE"/>
<path d="M534.459 401.187C534.459 401.187 542.391 399.922 549.537 402.026M534.459 493.875C534.459 493.875 547.652 498.156 551.626 501.047" stroke="black" stroke-width="4" stroke-miterlimit="10" stroke-linecap="round" stroke-linejoin="round"/>
<path d="M534.459 382.755V386.912M549.537 383.172V387.396M534.459 474.854V479.016M549.537 479.115V483.333" stroke="black" stroke-width="4" stroke-miterlimit="10" stroke-linecap="round" stroke-linejoin="round"/>
<path d="M534.459 595.188C534.459 595.188 543.079 596.281 553.074 593.99L534.459 595.188Z" fill="#495CDE"/>
<path d="M534.459 595.188C534.459 595.188 543.079 596.281 553.074 593.99" stroke="black" stroke-width="4" stroke-miterlimit="10" stroke-linecap="round" stroke-linejoin="round"/>
<path d="M534.459 576.756V582.677M549.537 575.917V582.073" stroke="black" stroke-width="4" stroke-miterlimit="10" stroke-linecap="round" stroke-linejoin="round"/>
<path d="M535.314 595.016L549.538 594.771L550.121 601.698L534.59 606.031L535.314 595.016ZM535.314 494.969L549.538 498.761L549.038 503.453L534.59 505.985L535.314 494.969ZM535.314 400.88L549.22 401.422L549.038 405.573L534.59 409.906L535.314 400.88Z" fill="black"/>
<path d="M757.609 500.089C757.609 623.86 657.276 724.193 533.51 724.193C409.74 724.193 309.406 623.86 309.406 500.089C309.406 376.323 409.74 275.99 533.51 275.99C657.276 275.99 757.609 376.323 757.609 500.089Z" stroke="black" stroke-width="4" stroke-miterlimit="10" stroke-linecap="round" stroke-linejoin="round"/>
<path d="M825.745 500.089C825.745 661.49 694.907 792.328 533.511 792.328C372.11 792.328 241.271 661.49 241.271 500.089C241.271 338.693 372.11 207.854 533.511 207.854C694.907 207.854 825.745 338.693 825.745 500.089Z" stroke="black" stroke-width="4" stroke-miterlimit="10" stroke-linecap="round" stroke-linejoin="round"/>
<path d="M691.438 199.912L699.235 237.672C704.61 263.719 724.964 284.068 751.006 289.443L788.766 297.24C790.225 297.542 790.225 299.625 788.766 299.927L751.006 307.719C724.964 313.099 704.61 333.448 699.235 359.495L691.438 397.255C691.136 398.714 689.053 398.714 688.756 397.255L680.959 359.495C675.584 333.448 655.23 313.099 629.188 307.719L591.428 299.927C589.969 299.625 589.969 297.542 591.428 297.24L629.188 289.443C655.23 284.068 675.584 263.719 680.959 237.672L688.756 199.912C689.053 198.453 691.136 198.453 691.438 199.912Z" fill="#F6EED6"/>
<path d="M691.438 199.912L699.235 237.672C704.61 263.719 724.964 284.068 751.006 289.443L788.766 297.24C790.225 297.542 790.225 299.625 788.766 299.927L751.006 307.719C724.964 313.099 704.61 333.448 699.235 359.495L691.438 397.255C691.136 398.714 689.053 398.714 688.756 397.255L680.959 359.495C675.584 333.448 655.23 313.099 629.188 307.719L591.428 299.927C589.969 299.625 589.969 297.542 591.428 297.24L629.188 289.443C655.23 284.068 675.584 263.719 680.959 237.672L688.756 199.912C689.053 198.453 691.136 198.453 691.438 199.912Z" stroke="black" stroke-width="4" stroke-miterlimit="10" stroke-linecap="round" stroke-linejoin="round"/>
</svg>
