<svg width="1000" height="1000" viewBox="0 0 1000 1000" fill="none" xmlns="http://www.w3.org/2000/svg">
<path d="M869.75 499.724C869.75 704 704.151 869.599 499.875 869.599C295.599 869.599 130 704 130 499.724C130 295.443 295.599 129.844 499.875 129.844C704.151 129.844 869.75 295.443 869.75 499.724Z" fill="#F6EED6"/>
<path d="M869.75 499.724C869.75 704 704.151 869.599 499.875 869.599C295.599 869.599 130 704 130 499.724C130 295.443 295.599 129.844 499.875 129.844C704.151 129.844 869.75 295.443 869.75 499.724Z" stroke="black" stroke-width="4" stroke-miterlimit="10" stroke-linecap="round" stroke-linejoin="round"/>
<path d="M527.964 73.0675H500.844V47.0884H527.964V73.0675Z" fill="#00B36C" stroke="black" stroke-width="4" stroke-miterlimit="10" stroke-linecap="round" stroke-linejoin="round"/>
<path d="M500.5 96.2811V39.5571" stroke="black" stroke-width="4" stroke-miterlimit="10" stroke-linecap="round" stroke-linejoin="round"/>
<path d="M550.255 83.797H516.469V57.8179H550.255V83.797Z" fill="#00B36C" stroke="black" stroke-width="4" stroke-miterlimit="10" stroke-linecap="round" stroke-linejoin="round"/>
<path d="M527.964 47.0884L516.469 57.8175H527.479L527.964 47.0884Z" fill="black" stroke="black" stroke-width="4" stroke-miterlimit="10" stroke-linecap="round" stroke-linejoin="round"/>
<path d="M516.651 102.484H484.698C481.422 102.484 478.766 99.828 478.766 96.5519C478.766 93.2759 481.422 90.6196 484.698 90.6196H516.651C519.927 90.6196 522.583 93.2759 522.583 96.5519C522.583 99.828 519.927 102.484 516.651 102.484Z" fill="#495CDE"/>
<path d="M516.651 102.484H484.698C481.422 102.484 478.766 99.828 478.766 96.5519C478.766 93.2759 481.422 90.6196 484.698 90.6196H516.651C519.927 90.6196 522.583 93.2759 522.583 96.5519C522.583 99.828 519.927 102.484 516.651 102.484Z" stroke="black" stroke-width="4" stroke-miterlimit="10" stroke-linecap="round" stroke-linejoin="round"/>
<path d="M500.676 102.787C412.629 102.787 341.254 174.162 341.254 262.208V271.833H660.098V262.208C660.098 174.162 588.717 102.787 500.676 102.787Z" fill="#FFB300"/>
<path d="M500.676 102.787C412.629 102.787 341.254 174.162 341.254 262.209V271.834H660.098V262.209C660.098 174.162 588.717 102.787 500.676 102.787Z" stroke="black" stroke-width="4" stroke-miterlimit="10" stroke-linecap="round" stroke-linejoin="round"/>
<path d="M396.941 238.708C396.941 163.49 443.02 102.516 499.863 102.516C556.702 102.516 602.785 163.49 602.785 238.708M506.78 35.0521C506.78 38.3958 504.072 41.1094 500.728 41.1094C497.384 41.1094 494.676 38.3958 494.676 35.0521C494.676 31.7083 497.384 29 500.728 29C504.072 29 506.78 31.7083 506.78 35.0521Z" stroke="black" stroke-width="4" stroke-miterlimit="10" stroke-linecap="round" stroke-linejoin="round"/>
<path d="M460.941 238.708C460.941 163.49 478.368 102.516 499.863 102.516C521.358 102.516 538.78 163.49 538.78 238.708" stroke="black" stroke-width="4" stroke-miterlimit="10" stroke-linecap="round" stroke-linejoin="round"/>
<path d="M660.724 243.469H340.625V346.099H660.724V243.469Z" fill="#495CDE" stroke="black" stroke-width="4" stroke-miterlimit="10" stroke-linecap="round" stroke-linejoin="round"/>
<path d="M660.724 243.469H340.625V251.365L660.724 259.958V243.469Z" fill="black" stroke="black" stroke-width="4" stroke-miterlimit="10" stroke-linecap="round" stroke-linejoin="round"/>
<path d="M703.333 546.24H298.016V346.099H703.333V546.24Z" fill="#495CDE" stroke="black" stroke-width="4" stroke-miterlimit="10" stroke-linecap="round" stroke-linejoin="round"/>
<path d="M703.333 370.224L298.016 356.682V346.099H703.333V370.224Z" fill="black" stroke="black" stroke-width="4" stroke-miterlimit="10" stroke-linecap="round" stroke-linejoin="round"/>
<path d="M315.083 546.24H298.016V346.099H315.083V546.24ZM703.417 546.24H686.349V346.099H703.417V546.24Z" fill="#FF7E00" stroke="black" stroke-width="4" stroke-miterlimit="10" stroke-linecap="round" stroke-linejoin="round"/>
<path d="M574.546 546.24H557.479V346.099H574.546V546.24Z" fill="#FFB300" stroke="black" stroke-width="4" stroke-miterlimit="10" stroke-linecap="round" stroke-linejoin="round"/>
<path d="M574.546 362.266L557.479 369.24V346.099H574.546V362.266Z" fill="black" stroke="black" stroke-width="4" stroke-miterlimit="10" stroke-linecap="round" stroke-linejoin="round"/>
<path d="M443.952 546.24H426.879V346.099H443.952V546.24Z" fill="#FFB300" stroke="black" stroke-width="4" stroke-miterlimit="10" stroke-linecap="round" stroke-linejoin="round"/>
<path d="M443.984 362.265L426.917 369.239V346.099H443.984V362.265ZM536.234 546.239H465.115V451.286C465.115 431.646 481.036 415.724 500.677 415.724C520.312 415.724 536.234 431.646 536.234 451.286V546.239ZM666.833 546.239H595.708V451.286C595.708 431.646 611.63 415.724 631.271 415.724C650.911 415.724 666.833 431.646 666.833 451.286V546.239ZM405.641 546.239H334.516V451.286C334.516 431.646 350.438 415.724 370.078 415.724C389.719 415.724 405.641 431.646 405.641 451.286V546.239ZM527.349 352.463H474V303.031C474 288.297 485.943 276.354 500.677 276.354C515.406 276.354 527.349 288.297 527.349 303.031V352.463ZM625.302 352.463H571.958V303.031C571.958 288.297 583.901 276.354 598.63 276.354C613.359 276.354 625.302 288.297 625.302 303.031V352.463Z" fill="black" stroke="black" stroke-width="4" stroke-miterlimit="10" stroke-linecap="round" stroke-linejoin="round"/>
<path d="M429.391 352.463H376.047V303.031C376.047 288.297 387.99 276.354 402.719 276.354C417.453 276.354 429.391 288.297 429.391 303.031V352.463Z" fill="black" stroke="black" stroke-width="4" stroke-miterlimit="10" stroke-linecap="round" stroke-linejoin="round"/>
<path d="M707.098 359.385H294.254C287.884 359.385 282.723 354.224 282.723 347.859C282.723 341.49 287.884 336.328 294.254 336.328H707.098C713.462 336.328 718.624 341.49 718.624 347.859C718.624 354.224 713.462 359.385 707.098 359.385Z" fill="#FFB300"/>
<path d="M707.098 359.385H294.254C287.884 359.385 282.723 354.224 282.723 347.859C282.723 341.49 287.884 336.328 294.254 336.328H707.098C713.462 336.328 718.624 341.49 718.624 347.859C718.624 354.224 713.462 359.385 707.098 359.385Z" stroke="black" stroke-width="4" stroke-miterlimit="10" stroke-linecap="round" stroke-linejoin="round"/>
<path d="M672.432 251.708H328.922C322.552 251.708 317.391 246.547 317.391 240.177C317.391 233.812 322.552 228.651 328.922 228.651H672.432C678.797 228.651 683.958 233.812 683.958 240.177C683.958 246.547 678.797 251.708 672.432 251.708Z" fill="#FFB300"/>
<path d="M672.432 251.708H328.922C322.552 251.708 317.391 246.547 317.391 240.177C317.391 233.812 322.552 228.651 328.922 228.651H672.432C678.797 228.651 683.958 233.812 683.958 240.177C683.958 246.547 678.797 251.708 672.432 251.708Z" stroke="black" stroke-width="4" stroke-miterlimit="10" stroke-linecap="round" stroke-linejoin="round"/>
<path d="M499.875 869.599C688.396 869.599 843.969 728.557 866.849 546.24H132.906C155.786 728.557 311.359 869.599 499.875 869.599Z" fill="#00B36C"/>
<path d="M499.875 869.599C688.396 869.599 843.969 728.557 866.849 546.24H132.906C155.786 728.557 311.359 869.599 499.875 869.599Z" stroke="black" stroke-width="4" stroke-miterlimit="10" stroke-linecap="round" stroke-linejoin="round"/>
<path d="M552.213 668.068C552.213 668.068 557.083 680.578 572.369 686.141L577.583 661.12C577.583 661.12 560.557 656.948 552.213 668.068Z" fill="black"/>
<path d="M552.213 668.068C552.213 668.068 557.083 680.578 572.369 686.141L577.583 661.12C577.583 661.12 560.557 656.948 552.213 668.068Z" stroke="black" stroke-width="4" stroke-miterlimit="10" stroke-linecap="round" stroke-linejoin="round"/>
<path d="M573.76 659.729L516.422 856.76L603.995 830.177L644.651 677.453L573.76 659.729Z" fill="#E05B66" stroke="black" stroke-width="4" stroke-miterlimit="10" stroke-linecap="round" stroke-linejoin="round"/>
<path d="M696.172 529.287L699.542 487.761L761.443 438.896L781.547 530.313L711.719 578.979L696.172 529.287Z" fill="#E05B66" stroke="black" stroke-width="4" stroke-miterlimit="10"/>
<path d="M864.359 562.88L778.484 517.047L716.614 570.474L696.671 530.354L626.411 559.177C605.791 567.63 586.765 583.943 578.973 604.823L552.213 668.068C552.213 668.068 568.546 659.729 593.036 678.302C618.354 697.5 627.973 691.005 627.973 691.005L597.739 836.432L681.077 822.219C776.166 768.677 845.187 674.307 864.359 562.88Z" fill="#FFB300"/>
<path d="M864.359 562.88L778.484 517.047L716.614 570.474L696.671 530.354L626.411 559.177C605.791 567.63 586.765 583.943 578.973 604.823L552.213 668.068C552.213 668.068 568.546 659.729 593.036 678.302C618.354 697.5 627.973 691.005 627.973 691.005L597.739 836.432L681.077 822.219C776.166 768.677 845.187 674.307 864.359 562.88Z" stroke="black" stroke-width="4" stroke-miterlimit="10" stroke-linecap="round" stroke-linejoin="round"/>
<path d="M829.848 666.198L827.806 656.136C826.14 647.276 828.311 638.13 833.78 630.969L837.676 625.865" stroke="black" stroke-width="4" stroke-miterlimit="10" stroke-linecap="round" stroke-linejoin="round"/>
<path d="M660.498 380.38C660.498 380.38 649.889 390.542 650.936 424.781C651.806 453.24 641.967 481.662 657.467 499.261C676.035 520.333 715.837 504.412 715.837 504.412L753.368 436.948L735.217 353.974L660.498 380.38Z" fill="#E05B66"/>
<path d="M713.109 428.292H726.141" stroke="#FFB300" stroke-width="4" stroke-miterlimit="10" stroke-linecap="round" stroke-linejoin="round"/>
<path d="M660.5 380.38C660.5 380.38 649.891 390.542 650.938 424.781C651.807 453.24 641.969 481.662 657.469 499.261C676.036 520.334 715.839 504.412 715.839 504.412M613.375 759.807L642.109 623.787C644.802 617.36 643.781 609.974 639.453 604.511L636.427 600.693" stroke="black" stroke-width="4" stroke-miterlimit="10" stroke-linecap="round" stroke-linejoin="round"/>
<path d="M715.567 364.609C715.567 364.609 701.166 388.099 676.656 390.542C652.146 392.984 637.422 376.906 636.312 362.589C635.208 348.276 647.63 334.563 666.156 344.344C666.156 344.344 657.463 333.136 664.713 321.974C671.963 310.813 682.651 315.287 692.416 326.755C702.182 338.224 704.052 336.776 715.312 334.177C726.567 331.573 738.755 332.995 741.37 345.771C741.37 345.771 786.541 341.583 792.297 386.531C795.458 411.214 779.526 439.261 776.812 446.021C767.317 469.646 770.797 481.458 770.797 481.458L750.062 442.797L730.265 441.438C725.088 439.745 721.729 434.755 722.104 429.323L722.687 420.854C722.87 418.198 721.541 415.662 719.25 414.302L713.651 410.974C708.458 407.886 706.172 401.557 708.192 395.865L715.567 364.609Z" fill="#F6EED6" stroke="black" stroke-width="4" stroke-miterlimit="10" stroke-linecap="round" stroke-linejoin="round"/>
<path d="M683.734 472.047C683.734 472.047 679.885 477.688 673.4 475.995" stroke="black" stroke-width="4" stroke-miterlimit="10" stroke-linecap="round" stroke-linejoin="round"/>
<path d="M733.25 444.495L738.677 426.75C740.51 421.688 745.771 418.729 751.047 419.787C756.396 420.86 760.12 425.729 759.76 431.172L760.365 454.781C759.88 462.037 754.979 468.245 748.031 470.391L747.359 470.599" fill="#E05B66"/>
<path d="M733.25 444.495L738.677 426.75C740.51 421.688 745.771 418.729 751.047 419.787C756.396 420.86 760.12 425.729 759.76 431.172L760.365 454.781C759.88 462.037 754.979 468.245 748.031 470.391L747.359 470.599" stroke="black" stroke-width="4" stroke-miterlimit="10" stroke-linecap="round" stroke-linejoin="round"/>
<path d="M705.79 422.823C705.79 422.823 699.421 415.594 689.676 419.635" stroke="black" stroke-width="5.33333" stroke-miterlimit="10" stroke-linecap="round" stroke-linejoin="round"/>
<path d="M691.943 435.083C692.349 437.052 694.271 438.318 696.24 437.912C698.203 437.505 699.474 435.583 699.068 433.615C698.662 431.651 696.74 430.386 694.771 430.787C692.807 431.193 691.537 433.115 691.943 435.083Z" fill="black"/>
<path d="M664.864 419.547C664.864 419.547 659.249 415.812 653.494 420.458" stroke="black" stroke-width="5.33333" stroke-miterlimit="10" stroke-linecap="round" stroke-linejoin="round"/>
<path d="M654.238 436.172C654.644 438.136 656.566 439.401 658.535 438.995C660.504 438.594 661.769 436.667 661.363 434.703C660.957 432.735 659.035 431.469 657.066 431.875C655.103 432.281 653.837 434.203 654.238 436.172Z" fill="black"/>
<path d="M737.229 337.75C737.229 337.75 743.922 345.437 741.406 355.083M711.318 370.422C711.318 370.422 717.698 362.849 719.969 355.802M662 329.292C662 329.292 659.776 341.667 673.281 351" stroke="black" stroke-width="4" stroke-miterlimit="10" stroke-linecap="round" stroke-linejoin="round"/>
<path d="M653.338 471.036C653.338 471.036 656.119 464.083 662.374 461.302M687.395 458.526C687.395 458.526 698.515 462.693 700.947 471.38M667.932 399.188H688.437M672.005 405.833H684.364" stroke="black" stroke-width="2.66667" stroke-miterlimit="10" stroke-linecap="round" stroke-linejoin="round"/>
<path d="M632.14 670.151C632.14 670.151 621.369 671.891 603.114 657.448C579.01 638.38 562.291 647.219 562.291 647.219" stroke="black" stroke-width="4" stroke-miterlimit="10" stroke-linecap="round" stroke-linejoin="round"/>
<path d="M661.927 446.865H653.776C649.838 446.865 646.739 443.516 647.046 439.594L648.77 417.484C649.046 413.974 651.974 411.266 655.5 411.266H663.651C667.583 411.266 670.687 414.615 670.38 418.536L668.656 440.646C668.38 444.156 665.447 446.865 661.927 446.865ZM705.63 446.865H689.291C685.531 446.865 682.567 443.516 682.859 439.594L684.51 417.484C684.77 413.974 687.572 411.266 690.942 411.266H707.281C711.046 411.266 714.01 414.615 713.718 418.536L712.067 440.646C711.802 444.156 709 446.865 705.63 446.865Z" stroke="#FFB300" stroke-width="4" stroke-miterlimit="10" stroke-linecap="round" stroke-linejoin="round"/>
<path d="M674.188 426.505C674.188 426.505 675.234 435.589 667.932 448.552C666.422 451.24 667.094 454.641 668.75 457.24L670.078 459.333" stroke="black" stroke-width="4" stroke-miterlimit="10" stroke-linecap="round" stroke-linejoin="round"/>
<path d="M670.02 428.292H683.051" stroke="#FFB300" stroke-width="4" stroke-miterlimit="10" stroke-linecap="round" stroke-linejoin="round"/>
<path d="M696.67 530.354L683.941 544.198C680.253 548.214 681.571 554.661 686.54 556.906L716.613 570.474L696.67 530.354ZM716.618 570.474L778.483 517.047L788.951 534.906C792.446 540.875 789.436 548.536 782.816 550.531L716.618 570.474Z" fill="#FFB300" stroke="black" stroke-width="4" stroke-miterlimit="10" stroke-linecap="round" stroke-linejoin="round"/>
<path d="M716.619 570.474L714.15 629.146L716.619 570.474Z" fill="#FF7E00"/>
<path d="M716.619 570.474L714.15 629.146" stroke="black" stroke-width="4" stroke-miterlimit="10" stroke-linecap="round" stroke-linejoin="round"/>
<path d="M802.066 646.63H739.863V629.953H802.066V646.63Z" fill="#FFB300" stroke="black" stroke-width="4" stroke-miterlimit="10" stroke-linecap="round" stroke-linejoin="round"/>
<path d="M712.416 381.031C712.416 381.031 729.442 375.818 747.859 382.771C761.265 387.828 775.661 390.411 791.296 384.161M709.635 395.281C709.635 395.281 729.442 389.026 747.859 395.974C761.265 401.031 775.661 403.62 791.296 397.365" stroke="black" stroke-width="4" stroke-miterlimit="10" stroke-linecap="round" stroke-linejoin="round"/>
<path d="M697.473 509.953L696.775 526.287L714.15 505.787L697.473 509.953ZM403.291 637.125C403.291 637.125 405.005 653.13 379.291 662.688L372.166 639.406L403.291 637.125Z" fill="black" stroke="black" stroke-width="4" stroke-miterlimit="10" stroke-linecap="round" stroke-linejoin="round"/>
<path d="M367.572 625.797L411.088 793L333.942 750.953L301.51 658.911L367.572 625.797Z" fill="#FFB300" stroke="black" stroke-width="4" stroke-miterlimit="10" stroke-linecap="round" stroke-linejoin="round"/>
<path d="M195.806 682C192.316 685.536 188.837 689.786 185.426 694.521C235.681 775.469 316.306 835.573 411.395 858.917C388.264 742.318 342.145 682.708 342.145 682.708L195.806 682Z" fill="#495CDE" stroke="black" stroke-width="4" stroke-miterlimit="10" stroke-linecap="round" stroke-linejoin="round"/>
<path d="M152.546 607.432L149.447 618.385C159.077 646.838 172.083 673.734 187.979 698.609L207.796 614.208L152.546 607.432Z" fill="#FFB300" stroke="black" stroke-width="4" stroke-miterlimit="10" stroke-linecap="round" stroke-linejoin="round"/>
<path d="M323.515 473.995C323.515 473.995 344.369 481.64 342.281 503.88C342.281 503.88 361.739 510.135 354.791 537.932L285.64 509.437L298.843 474.687L323.515 473.995ZM216.484 436.114C216.484 436.114 197.025 438.203 188.338 454.88C179.65 471.562 184.515 485.458 184.515 485.458C184.515 485.458 167.489 491.37 162.275 503.531C157.062 515.693 159.843 528.552 166.791 536.198L247.067 516.042L255.057 430.557L216.484 436.114Z" fill="#763D12" stroke="black" stroke-width="4" stroke-miterlimit="10" stroke-linecap="round" stroke-linejoin="round"/>
<path d="M200.327 650.349L210.275 605.172L327.165 635.755L332.379 672.245C335.999 669.49 339.796 650.188 366.431 649.307C398.056 648.266 404.051 637.839 403.811 637.297C392.759 608.464 381.27 578.568 372.957 557.125C365.499 537.885 349.816 523 330.212 516.547L303.884 507.875L239.822 508.969C239.822 508.969 171.832 509.615 154.457 556.177L140.941 589.271C145.441 607.375 151.27 624.953 158.332 641.896C171.556 640.802 186.483 641.271 200.327 650.349Z" fill="#E05B66"/>
<path d="M151.493 622.828C166.634 621.063 185.348 619.177 202.41 630.37M200.327 650.349L210.275 605.172L327.165 635.755L332.379 672.245C335.999 669.49 339.796 650.188 366.431 649.307C398.056 648.266 404.051 637.839 403.811 637.297C392.759 608.464 381.27 578.568 372.957 557.125C365.499 537.885 349.816 523 330.212 516.547L303.884 507.875L239.822 508.969C239.822 508.969 171.832 509.615 154.457 556.177L140.941 589.271C145.441 607.375 151.27 624.953 158.332 641.896C171.556 640.802 186.483 641.271 200.327 650.349Z" stroke="black" stroke-width="4" stroke-miterlimit="10" stroke-linecap="round" stroke-linejoin="round"/>
<path d="M328.207 649.136C331.827 646.38 335.624 627.078 362.259 626.198C381.608 625.563 391.363 621.412 395.967 618.162" stroke="black" stroke-width="4" stroke-miterlimit="10" stroke-linecap="round" stroke-linejoin="round"/>
<path d="M304.749 509.088L297.29 472.151L246.858 442.135L239.301 508.792L252.624 520.213C275.212 543.495 307.53 533.068 304.749 509.088Z" fill="#FFB300"/>
<path d="M304.749 509.088L297.29 472.151L246.858 442.135L239.301 508.792L252.624 520.213C275.212 543.495 307.53 533.068 304.749 509.088Z" stroke="black" stroke-width="4" stroke-miterlimit="10" stroke-linecap="round" stroke-linejoin="round"/>
<path d="M245.676 441.677C245.676 441.677 243.243 445.5 246.717 452.099C250.191 458.703 263.051 476.427 252.973 493.453C252.973 493.453 272.504 517.089 264.785 533.417C255.754 552.531 236.29 546.276 236.29 546.276C236.29 546.276 225.243 556.495 208.493 555.656C180.691 554.266 174.785 523.688 174.785 523.688" fill="#763D12"/>
<path d="M245.676 441.677C245.676 441.677 243.243 445.5 246.717 452.099C250.191 458.703 263.051 476.427 252.973 493.453C252.973 493.453 272.504 517.089 264.785 533.417C255.754 552.531 236.29 546.276 236.29 546.276C236.29 546.276 225.243 556.495 208.493 555.656C180.691 554.266 174.785 523.688 174.785 523.688" stroke="black" stroke-width="4" stroke-miterlimit="10" stroke-linecap="round" stroke-linejoin="round"/>
<path d="M315.113 367.891C315.113 367.891 328.514 387.203 332.842 414.125C336.436 436.5 345.499 457.906 336.025 473.995C324.681 493.26 294.077 486.125 294.077 486.125L248.238 447.276L256.962 365.938L315.113 367.891Z" fill="#FFB300"/>
<path d="M318.688 380.859C318.688 380.859 328.516 387.203 332.844 414.125C336.438 436.5 345.5 457.906 336.026 473.995C324.682 493.26 285.25 486.63 285.25 486.63" stroke="black" stroke-width="4" stroke-miterlimit="10" stroke-linecap="round" stroke-linejoin="round"/>
<path d="M259.229 432.292L262.479 431.677C267.922 430.646 271.687 425.64 271.167 420.125L270.755 415.729C270.505 413.109 271.531 410.542 273.5 408.797C280.276 402.807 295.562 387.458 295.021 371.479C295.021 371.479 300.927 380.864 313.094 384.338C324.396 387.568 328.818 395.89 330.552 402.844C330.552 402.844 331.161 391.286 328.38 377.385C325.729 364.114 316.104 347.989 293.76 356.547C291.703 357.333 289.406 357.271 287.391 356.385C280.542 353.385 263.208 347.828 243.594 357.234C218.224 369.396 201.198 400.672 212.318 440.286" fill="#763D12"/>
<path d="M259.229 432.292L262.479 431.677C267.922 430.646 271.687 425.64 271.167 420.125L270.755 415.729C270.505 413.109 271.531 410.542 273.5 408.797C280.276 402.807 295.562 387.458 295.021 371.479C295.021 371.479 300.927 380.864 313.094 384.338C324.396 387.568 328.818 395.89 330.552 402.844C330.552 402.844 331.161 391.286 328.38 377.385C325.729 364.114 316.104 347.989 293.76 356.547C291.703 357.333 289.406 357.271 287.391 356.385C280.542 353.385 263.208 347.828 243.594 357.234C218.224 369.396 201.198 400.672 212.318 440.286" stroke="black" stroke-width="4" stroke-miterlimit="10" stroke-linecap="round" stroke-linejoin="round"/>
<path d="M290.416 421.61C290.416 421.61 294.848 416.917 301.885 418.479M322.468 417.063C322.468 417.063 327.687 414.573 332.26 417.787" stroke="black" stroke-width="5.33333" stroke-miterlimit="10" stroke-linecap="round" stroke-linejoin="round"/>
<path d="M207.796 614.729C207.796 614.729 193.551 682.495 191.119 686.318L340.197 682.495C340.197 682.495 333.984 665.781 339.156 650.87C348.187 624.807 358.635 600.562 347.755 575.104L217.874 574.422L207.796 614.729Z" fill="#E05B66"/>
<path d="M191.463 685.62L341.588 682.146C341.588 682.146 335.119 668.323 338.458 652.26C343.202 629.438 361.739 603.958 346.452 574.333M191.119 685.802L211.557 598.63C213.963 588.969 220.479 582.323 228.869 579.745M313.557 418.891C313.557 418.891 314.39 427.786 321.176 437.432C322.755 439.677 322.937 442.62 321.926 445.172L321.114 447.224" stroke="black" stroke-width="4" stroke-miterlimit="10" stroke-linecap="round" stroke-linejoin="round"/>
<path d="M288.26 487.922L300.89 489.724L303.979 505.703L288.26 487.922Z" fill="black" stroke="black" stroke-width="4" stroke-miterlimit="10" stroke-linecap="round" stroke-linejoin="round"/>
<path d="M262.884 433.698L255.155 421.109C252.733 417.573 248.092 416.344 244.238 418.213C240.332 420.104 238.431 424.604 239.795 428.724L244.04 447.036C245.863 452.531 250.879 456.333 256.66 456.604L257.222 456.63" fill="#FFB300"/>
<path d="M262.884 433.698L255.155 421.109C252.733 417.573 248.092 416.344 244.238 418.213C240.332 420.104 238.431 424.604 239.795 428.724L244.04 447.036C245.863 452.531 250.879 456.333 256.66 456.604L257.222 456.63" stroke="black" stroke-width="4" stroke-miterlimit="10" stroke-linecap="round" stroke-linejoin="round"/>
<path d="M307.14 761.854H301.515C285.437 761.854 271.604 772.01 266.322 786.427" stroke="black" stroke-width="4" stroke-miterlimit="10" stroke-linecap="round" stroke-linejoin="round"/>
<path d="M302.89 434.386C302.192 435.88 300.41 436.521 298.921 435.818C297.426 435.115 296.785 433.334 297.489 431.844C298.192 430.354 299.968 429.714 301.462 430.417C302.952 431.115 303.593 432.896 302.89 434.386ZM331.822 430.771C331.119 432.261 329.343 432.901 327.848 432.203C326.358 431.5 325.718 429.719 326.416 428.229C327.119 426.735 328.9 426.094 330.39 426.797C331.884 427.5 332.525 429.281 331.822 430.771Z" fill="black"/>
<path d="M303.27 452.792L320.51 456.745C321.885 457.057 322.604 458.584 321.953 459.839C320.354 462.922 316.697 467.557 309.572 466.042C301.932 464.422 300.671 458.469 300.619 454.927C300.604 453.526 301.901 452.479 303.27 452.792Z" fill="#F6EED6"/>
<path d="M303.27 452.792L320.51 456.745C321.885 457.057 322.604 458.584 321.953 459.839C320.354 462.922 316.697 467.557 309.572 466.042C301.932 464.422 300.671 458.469 300.619 454.927C300.604 453.526 301.901 452.479 303.27 452.792Z" stroke="black" stroke-width="4" stroke-miterlimit="10" stroke-linecap="round" stroke-linejoin="round"/>
<path d="M247.5 489.63C247.5 489.63 253.667 493.193 258.969 502.229L247.5 489.63ZM294.328 378.083C294.328 378.083 295.891 371.828 294.151 364.531L294.328 378.083ZM229.172 551.141C229.172 551.141 237.51 546.969 239.943 538.63L229.172 551.141Z" fill="#493100"/>
<path d="M247.5 489.63C247.5 489.63 253.667 493.193 258.969 502.229M294.328 378.083C294.328 378.083 295.891 371.828 294.151 364.531M229.172 551.141C229.172 551.141 237.51 546.969 239.943 538.63" stroke="black" stroke-width="4" stroke-miterlimit="10" stroke-linecap="round" stroke-linejoin="round"/>
<path d="M258.098 542.536C258.098 542.536 270.697 549.052 288.072 546.969C305.447 544.885 318.65 529.943 318.301 513.26" stroke="black" stroke-width="4" stroke-miterlimit="10" stroke-linecap="round" stroke-linejoin="round"/>
<path d="M334.203 502.662C334.203 502.662 343.583 502.141 349.839 508.917L334.203 502.662Z" fill="#493100"/>
<path d="M334.203 502.662C334.203 502.662 343.583 502.141 349.839 508.917" stroke="black" stroke-width="4" stroke-miterlimit="10" stroke-linecap="round" stroke-linejoin="round"/>
<path d="M265.724 291.14C242.37 294.062 237.443 305.083 217.557 297.953C210.161 295.302 202.563 292.375 194.906 290.417C189.849 297.771 185.052 305.312 180.531 313.036H320.224C320.224 313.036 289.083 288.219 265.724 291.14Z" fill="#F6EED6"/>
<path d="M265.724 291.14C242.37 294.062 237.443 305.083 217.557 297.953C210.161 295.302 202.563 292.375 194.906 290.417C189.849 297.771 185.052 305.312 180.531 313.036H320.224C320.224 313.036 289.083 288.219 265.724 291.14Z" stroke="black" stroke-width="4" stroke-miterlimit="10" stroke-linecap="round" stroke-linejoin="round"/>
<path d="M777.379 264.818C765.921 265.511 758.749 270.589 754.342 275.912C748.832 282.563 740.499 286.339 731.879 285.74C728.842 285.526 725.551 285.526 722.16 285.901C708.608 287.406 701.082 299.959 701.082 299.959H811.212C803.488 287.943 795.077 276.401 786.051 265.391C783.368 264.86 780.483 264.636 777.379 264.818Z" fill="#F6EED6"/>
<path d="M437.895 800.99C437.895 800.99 447.655 765.417 467.884 741.005M777.379 264.818C765.921 265.511 758.749 270.589 754.342 275.912C748.832 282.563 740.499 286.339 731.879 285.74C728.842 285.526 725.551 285.526 722.16 285.901C708.608 287.406 701.082 299.959 701.082 299.959H811.212C803.488 287.943 795.077 276.401 786.051 265.391C783.368 264.86 780.483 264.636 777.379 264.818Z" stroke="black" stroke-width="4" stroke-miterlimit="10" stroke-linecap="round" stroke-linejoin="round"/>
<path d="M479.743 736.818C479.743 741.057 476.306 744.49 472.072 744.49C467.832 744.49 464.395 741.057 464.395 736.818C464.395 732.583 467.832 729.146 472.072 729.146C476.306 729.146 479.743 732.583 479.743 736.818Z" fill="#E05B66"/>
<path d="M479.743 736.818C479.743 741.057 476.306 744.49 472.072 744.49C467.832 744.49 464.395 741.057 464.395 736.818C464.395 732.583 467.832 729.146 472.072 729.146C476.306 729.146 479.743 732.583 479.743 736.818Z" stroke="black" stroke-width="4" stroke-miterlimit="10" stroke-linecap="round" stroke-linejoin="round"/>
<path d="M444.254 745.057C444.254 748.547 441.426 751.38 437.936 751.38C434.441 751.38 431.613 748.547 431.613 745.057C431.613 741.568 434.441 738.74 437.936 738.74C441.426 738.74 444.254 741.568 444.254 745.057Z" fill="#E05B66"/>
<path d="M444.254 745.057C444.254 748.547 441.426 751.38 437.936 751.38C434.441 751.38 431.613 748.547 431.613 745.057C431.613 741.568 434.441 738.74 437.936 738.74C441.426 738.74 444.254 741.568 444.254 745.057Z" stroke="black" stroke-width="4" stroke-miterlimit="10" stroke-linecap="round" stroke-linejoin="round"/>
<path d="M709.9 702.99C709.9 707.229 706.468 710.662 702.229 710.662C697.994 710.662 694.557 707.229 694.557 702.99C694.557 698.755 697.994 695.318 702.229 695.318C706.468 695.318 709.9 698.755 709.9 702.99Z" fill="#E05B66"/>
<path d="M709.9 702.99C709.9 707.229 706.468 710.662 702.229 710.662C697.994 710.662 694.557 707.229 694.557 702.99C694.557 698.755 697.994 695.318 702.229 695.318C706.468 695.318 709.9 698.755 709.9 702.99Z" stroke="black" stroke-width="4" stroke-miterlimit="10" stroke-linecap="round" stroke-linejoin="round"/>
<path d="M499.874 869.599C635.057 869.599 753.275 797.068 817.801 688.812C784.697 691.031 734.083 703.677 699.781 755.39C698.937 756.667 697.426 757.333 695.916 757.062C677.197 753.667 556.354 737.302 500.182 867.526C500.166 867.557 500.119 867.557 500.109 867.526C443.937 737.302 323.088 753.672 304.369 757.062C302.864 757.333 301.354 756.667 300.505 755.39C266.015 703.385 215.02 690.89 181.932 688.776C246.447 797.052 364.682 869.599 499.874 869.599Z" fill="#00B36C"/>
<path d="M499.874 869.599C635.057 869.599 753.275 797.068 817.801 688.812C784.697 691.031 734.083 703.677 699.781 755.39C698.937 756.667 697.426 757.333 695.916 757.062C677.197 753.667 556.354 737.302 500.182 867.526C500.166 867.557 500.119 867.557 500.109 867.526C443.937 737.302 323.088 753.672 304.369 757.062C302.864 757.333 301.354 756.667 300.505 755.39C266.015 703.385 215.02 690.89 181.932 688.776C246.447 797.052 364.682 869.599 499.874 869.599Z" stroke="black" stroke-width="4" stroke-miterlimit="10" stroke-linecap="round" stroke-linejoin="round"/>
<path d="M285.141 761.235C285.141 761.235 305.021 755.214 329.083 754.693L285.141 761.235ZM685.068 755.479C685.068 755.479 700.76 756.526 712.531 761.755L685.068 755.479Z" fill="#00B36C"/>
<path d="M285.141 761.235C285.141 761.235 305.021 755.214 329.083 754.693M685.068 755.479C685.068 755.479 700.76 756.526 712.531 761.755" stroke="black" stroke-width="4" stroke-miterlimit="10" stroke-linecap="round" stroke-linejoin="round"/>
<path d="M437.073 751.953C437.073 751.953 437.359 769.474 434.203 783.552M688.63 754.255C688.63 754.255 687.932 730.193 698.74 709.969" stroke="black" stroke-width="4" stroke-miterlimit="10" stroke-linecap="round" stroke-linejoin="round"/>
<path d="M670.025 712.682C670.025 716.26 672.926 719.161 676.505 719.161C680.088 719.161 682.989 716.26 682.989 712.682C682.989 709.099 680.088 706.198 676.505 706.198C672.926 706.198 670.025 709.099 670.025 712.682Z" fill="#E05B66"/>
<path d="M687.994 755.984C687.994 755.984 688.583 735.661 679.452 718.573M670.025 712.682C670.025 716.26 672.926 719.161 676.505 719.161C680.088 719.161 682.989 716.26 682.989 712.682C682.989 709.099 680.088 706.198 676.505 706.198C672.926 706.198 670.025 709.099 670.025 712.682Z" stroke="black" stroke-width="4" stroke-miterlimit="10" stroke-linecap="round" stroke-linejoin="round"/>
</svg>
