<svg width="1000" height="1000" viewBox="0 0 1000 1000" fill="none" xmlns="http://www.w3.org/2000/svg">
<path d="M869.75 499.875C869.75 704.151 704.151 869.75 499.875 869.75C295.599 869.75 130 704.151 130 499.875C130 295.599 295.599 130 499.875 130C704.151 130 869.75 295.599 869.75 499.875Z" fill="#F6EED6"/>
<path d="M869.75 499.875C869.75 704.151 704.151 869.75 499.875 869.75C295.599 869.75 130 704.151 130 499.875C130 295.599 295.599 130 499.875 130C704.151 130 869.75 295.599 869.75 499.875Z" stroke="black" stroke-width="4" stroke-miterlimit="10" stroke-linecap="round" stroke-linejoin="round"/>
<path d="M774.723 611.084C784.536 586.979 803.484 569.36 825.942 560.558C834.015 557.396 839.859 550.224 840.911 541.62C842.588 527.922 843.463 513.985 843.463 499.834C843.463 485.688 842.588 471.745 840.911 458.052C839.859 449.443 834.015 442.271 825.942 439.11C803.484 430.313 784.536 412.693 774.723 388.589C764.911 364.485 766.171 338.641 776.098 316.662C779.65 308.787 778.859 299.594 773.619 292.719C754.572 267.719 732.161 245.427 707.062 226.506C700.161 221.308 690.963 220.563 683.104 224.162C661.176 234.209 635.338 235.604 611.182 225.922C587.025 216.24 569.301 197.381 560.385 174.969C557.182 166.922 549.994 161.115 541.395 160.11C528.275 158.573 514.932 157.776 501.4 157.776C487.869 157.776 474.525 158.573 461.406 160.11C452.807 161.115 445.619 166.922 442.416 174.969C433.499 197.381 415.775 216.24 391.614 225.922C367.463 235.604 341.624 234.209 319.697 224.162C311.838 220.563 302.64 221.308 295.739 226.506C270.635 245.427 248.229 267.719 229.182 292.719C223.942 299.594 223.145 308.787 226.702 316.662C236.63 338.641 237.89 364.485 228.077 388.589C218.265 412.693 199.317 430.313 176.859 439.11C168.786 442.271 162.942 449.443 161.89 458.052C160.213 471.745 159.338 485.688 159.338 499.834C159.338 513.985 160.213 527.922 161.89 541.62C162.942 550.224 168.786 557.396 176.859 560.558C199.317 569.36 218.265 586.979 228.077 611.084C237.89 635.188 236.63 661.032 226.702 683.011C223.145 690.886 223.942 700.078 229.182 706.948C248.229 731.948 270.635 754.245 295.739 773.162C302.64 778.365 311.838 779.11 319.697 775.511C341.624 765.464 367.463 764.068 391.614 773.75C415.775 783.433 433.499 802.287 442.416 824.703C445.619 832.75 452.807 838.558 461.406 839.563C474.525 841.099 487.869 841.896 501.4 841.896C514.932 841.896 528.275 841.099 541.395 839.563C549.994 838.558 557.182 832.75 560.385 824.703C569.301 802.287 587.025 783.433 611.182 773.75C635.338 764.068 661.176 765.464 683.104 775.511C690.963 779.11 700.161 778.365 707.062 773.162C732.161 754.245 754.572 731.948 773.619 706.948C778.859 700.078 779.65 690.886 776.093 683.011C766.171 661.032 764.911 635.188 774.723 611.084Z" fill="#FFB300"/>
<path d="M774.723 611.084C784.536 586.98 803.484 569.36 825.942 560.558C834.015 557.396 839.859 550.224 840.911 541.62C842.588 527.922 843.463 513.985 843.463 499.834C843.463 485.688 842.588 471.745 840.911 458.052C839.859 449.443 834.015 442.271 825.942 439.11C803.484 430.313 784.536 412.693 774.723 388.589C764.911 364.485 766.171 338.641 776.098 316.662C779.65 308.787 778.859 299.594 773.619 292.719C754.572 267.719 732.161 245.427 707.062 226.506C700.161 221.308 690.963 220.563 683.104 224.162C661.176 234.209 635.338 235.604 611.182 225.922C587.025 216.24 569.301 197.381 560.385 174.969C557.182 166.922 549.994 161.115 541.395 160.11C528.275 158.573 514.932 157.776 501.4 157.776C487.869 157.776 474.525 158.573 461.406 160.11C452.807 161.115 445.619 166.922 442.416 174.969C433.499 197.381 415.775 216.24 391.614 225.922C367.463 235.604 341.624 234.209 319.697 224.162C311.838 220.563 302.64 221.308 295.739 226.506C270.635 245.427 248.229 267.719 229.182 292.719C223.942 299.594 223.145 308.787 226.702 316.662C236.63 338.641 237.89 364.485 228.077 388.589C218.265 412.693 199.317 430.313 176.859 439.11C168.786 442.271 162.942 449.443 161.89 458.052C160.213 471.745 159.338 485.688 159.338 499.834C159.338 513.985 160.213 527.922 161.89 541.62C162.942 550.224 168.786 557.396 176.859 560.558C199.317 569.36 218.265 586.98 228.077 611.084C237.89 635.188 236.63 661.032 226.702 683.011C223.145 690.886 223.942 700.078 229.182 706.948C248.229 731.948 270.635 754.245 295.739 773.162C302.64 778.365 311.838 779.11 319.697 775.511C341.624 765.464 367.463 764.068 391.614 773.75C415.775 783.433 433.499 802.287 442.416 824.703C445.619 832.75 452.807 838.558 461.406 839.563C474.525 841.099 487.869 841.896 501.4 841.896C514.932 841.896 528.275 841.099 541.395 839.563C549.994 838.558 557.182 832.75 560.385 824.703C569.301 802.287 587.025 783.433 611.182 773.75C635.338 764.068 661.176 765.464 683.104 775.511C690.963 779.11 700.161 778.365 707.062 773.162C732.161 754.245 754.572 731.948 773.619 706.948C778.859 700.078 779.65 690.886 776.093 683.011C766.171 661.032 764.911 635.188 774.723 611.084Z" stroke="black" stroke-width="4" stroke-miterlimit="10" stroke-linecap="round" stroke-linejoin="round"/>
<path d="M744.51 499.833C744.51 634.099 635.666 742.943 501.4 742.943C367.135 742.943 258.291 634.099 258.291 499.833C258.291 365.568 367.135 256.724 501.4 256.724C635.666 256.724 744.51 365.568 744.51 499.833Z" fill="#F6EED6"/>
<path d="M744.51 499.834C744.51 634.099 635.666 742.943 501.4 742.943C367.135 742.943 258.291 634.099 258.291 499.834C258.291 365.568 367.135 256.724 501.4 256.724C635.666 256.724 744.51 365.568 744.51 499.834Z" stroke="black" stroke-width="4" stroke-miterlimit="10" stroke-linecap="round" stroke-linejoin="round"/>
<path d="M255.631 514.792C255.631 514.792 260.324 526.86 275.079 532.23L280.11 508.084C280.11 508.084 263.678 504.063 255.631 514.792Z" fill="black"/>
<path d="M255.631 514.792C255.631 514.792 260.324 526.86 275.079 532.23L280.11 508.084C280.11 508.084 263.678 504.063 255.631 514.792Z" stroke="black" stroke-width="4" stroke-miterlimit="10" stroke-linecap="round" stroke-linejoin="round"/>
<path d="M276.416 506.745L263.635 550.677C271.572 587.995 288.072 622.141 310.979 650.969L344.822 523.844L276.416 506.745Z" fill="#E05B66" stroke="black" stroke-width="4" stroke-miterlimit="10" stroke-linecap="round" stroke-linejoin="round"/>
<path d="M255.631 514.792C255.631 514.792 256.704 514.245 258.699 513.755C258.594 511.886 258.511 510.011 258.449 508.13L255.631 514.792Z" fill="#495CDE" stroke="black" stroke-width="4" stroke-miterlimit="10" stroke-linecap="round" stroke-linejoin="round"/>
<path d="M591.197 535.464C614.359 536.651 627.223 525.833 627.223 525.833L592.744 449.646C585.676 434.031 573.369 421.386 557.952 413.896L473.958 369.068C473.958 369.068 463.02 415.083 425.666 414.073C397.249 413.302 395.02 381.906 395.02 381.906L327.218 409.719C307.322 417.88 288.963 433.62 281.447 453.766L258.447 508.13C258.51 510.011 258.593 511.886 258.697 513.755C264.369 512.36 277.536 511.406 295.02 524.667C319.447 543.188 328.729 536.922 328.729 536.922L306.286 644.875C350.598 704.391 421.494 742.943 501.4 742.943C523.994 742.943 545.869 739.849 566.624 734.083L528.874 541.688C542.551 524.469 568.036 534.276 591.197 535.464Z" fill="#495CDE"/>
<path d="M591.197 535.464C614.359 536.651 627.223 525.834 627.223 525.834L592.744 449.646C585.676 434.031 573.369 421.386 557.952 413.896L473.958 369.068C473.958 369.068 463.02 415.083 425.666 414.073C397.249 413.302 395.02 381.906 395.02 381.906L327.218 409.719C307.322 417.88 288.963 433.62 281.447 453.766L258.447 508.13C258.51 510.011 258.593 511.886 258.697 513.755C264.369 512.36 277.536 511.406 295.02 524.667C319.447 543.188 328.729 536.922 328.729 536.922L306.286 644.875C350.598 704.391 421.494 742.943 501.4 742.943C523.994 742.943 545.869 739.849 566.624 734.084L528.874 541.688C542.551 524.469 568.036 534.276 591.197 535.464Z" stroke="black" stroke-width="4" stroke-miterlimit="10" stroke-linecap="round" stroke-linejoin="round"/>
<path d="M380.578 387.823C380.578 387.823 386.755 431.182 426.005 432.245C477.594 433.636 492.635 379.412 492.635 379.412" stroke="black" stroke-width="4" stroke-miterlimit="10" stroke-linecap="round" stroke-linejoin="round"/>
<path d="M485.098 216.292C486.431 212.839 486.874 208.953 486.114 204.886C484.567 196.578 477.926 189.917 469.624 188.339C465.489 187.552 461.535 188.011 458.035 189.386C456.27 190.078 454.296 189.333 453.478 187.62C450.119 180.589 442.957 175.724 434.64 175.724C428.775 175.724 423.483 178.151 419.692 182.052C418.16 183.63 415.551 183.568 414.27 181.771C410.489 176.469 404.291 173.005 397.275 173.005C387.666 173.005 379.588 179.505 377.16 188.344C376.608 190.37 374.4 191.417 372.452 190.625C369.249 189.328 365.645 188.818 361.869 189.354C352.66 190.662 345.421 198.302 344.551 207.563C344.108 212.323 345.312 216.771 347.655 220.432C348.593 221.901 348.348 223.787 347.077 224.985C343.765 228.12 341.749 232.604 341.931 237.568C342.249 246.063 349.27 253.099 357.765 253.422C367.166 253.781 374.9 246.266 374.9 236.943C374.9 233.807 374.004 230.88 372.483 228.386C379.541 225.516 384.608 218.818 385.134 210.865C388.556 213.318 392.739 214.776 397.275 214.776C404.963 214.776 411.66 210.615 415.285 204.432C418.384 212.089 425.874 217.495 434.64 217.495C438.624 217.495 442.327 216.365 445.494 214.432C447.666 222.25 454.254 228.208 462.416 229.458C460.228 232.995 459.035 237.214 459.317 241.745C460.004 252.776 469.478 261.505 480.525 261.313C491.895 261.12 501.046 251.844 501.046 240.432C501.046 231.354 495.249 223.646 487.16 220.776C485.343 220.13 484.405 218.083 485.098 216.292Z" fill="#763D12"/>
<path d="M485.098 216.292C486.431 212.839 486.874 208.953 486.114 204.886C484.567 196.578 477.926 189.917 469.624 188.339C465.489 187.552 461.535 188.011 458.035 189.386C456.27 190.078 454.296 189.333 453.478 187.62C450.119 180.589 442.957 175.724 434.64 175.724C428.775 175.724 423.483 178.151 419.692 182.052C418.16 183.63 415.551 183.568 414.27 181.771C410.489 176.469 404.291 173.005 397.275 173.005C387.666 173.005 379.588 179.505 377.16 188.344C376.608 190.37 374.4 191.417 372.452 190.625C369.249 189.328 365.645 188.818 361.869 189.354C352.66 190.662 345.421 198.302 344.551 207.563C344.108 212.323 345.312 216.771 347.655 220.432C348.593 221.901 348.348 223.787 347.077 224.985C343.765 228.12 341.749 232.604 341.931 237.568C342.249 246.063 349.27 253.099 357.765 253.422C367.166 253.781 374.9 246.266 374.9 236.943C374.9 233.807 374.004 230.88 372.483 228.386C379.541 225.516 384.608 218.818 385.134 210.865C388.556 213.318 392.739 214.776 397.275 214.776C404.963 214.776 411.66 210.615 415.285 204.432C418.384 212.089 425.874 217.495 434.64 217.495C438.624 217.495 442.327 216.365 445.494 214.432C447.666 222.25 454.254 228.208 462.416 229.458C460.228 232.995 459.035 237.214 459.317 241.745C460.004 252.776 469.478 261.505 480.525 261.313C491.895 261.12 501.046 251.844 501.046 240.432C501.046 231.354 495.249 223.646 487.16 220.776C485.343 220.13 484.405 218.083 485.098 216.292Z" stroke="black" stroke-width="4" stroke-miterlimit="10" stroke-linecap="round" stroke-linejoin="round"/>
<path d="M395.792 362.224L395.047 383.787L420.958 356.193L395.792 362.224Z" fill="black" stroke="black" stroke-width="4" stroke-miterlimit="10" stroke-linecap="round" stroke-linejoin="round"/>
<path d="M616.938 504.375C611.271 507.411 600.818 511.453 586.235 510.693C563.334 509.5 538.136 499.812 524.631 516.755" stroke="black" stroke-width="4" stroke-miterlimit="10" stroke-linecap="round" stroke-linejoin="round"/>
<path d="M530.828 552.599L518.214 479.016C516.604 470.474 518.698 461.646 523.974 454.734L527.734 449.812" stroke="black" stroke-width="4" stroke-miterlimit="10" stroke-linecap="round" stroke-linejoin="round"/>
<path d="M457.516 293.656L447.959 265.089C435.688 228.438 391.287 214.334 360.12 237.198C360.12 237.198 349.875 247 350.886 280.037C351.724 307.495 342.235 334.922 357.188 351.901C367.193 363.261 382.355 363.427 394.881 361.406L395.021 381.912C395.021 381.912 397.25 413.302 425.667 414.073C463.021 415.084 473.959 369.068 473.959 369.068L474.12 369.151L457.516 293.656Z" fill="#E05B66" stroke="black" stroke-width="4" stroke-miterlimit="10" stroke-linecap="round" stroke-linejoin="round"/>
<path d="M394.881 361.406L395.021 381.906C395.021 381.906 424.157 369.651 427.688 350.974L394.881 361.406Z" fill="black"/>
<path d="M314.646 603.313L339.86 486.422C342.459 480.219 341.475 473.089 337.298 467.818L334.381 464.136" stroke="black" stroke-width="4" stroke-miterlimit="10" stroke-linecap="round" stroke-linejoin="round"/>
<path d="M487.287 243.13C481.734 199.76 418.333 204.922 415.266 211.979C413.313 216.479 406.135 252.141 406.135 252.141C404.188 257.63 406.391 263.74 411.401 266.719L416.807 269.927C419.016 271.24 420.297 273.687 420.12 276.25L418.604 283.505C417.927 290.401 424.323 288.552 422.979 295.958L420.453 308.573C419.615 314.63 413.037 314.453 409.271 312.396C400.797 307.771 386.302 302.995 370.984 312.026C370.984 312.026 360.135 300.667 349.281 313.542L346.25 330.281C341.203 357.875 355.667 368.719 374.854 367.13L406.714 364.583C418.729 363.729 428.266 354.13 429.042 342.109L432.063 299.323L446.531 297.422L466.542 334.729C466.542 334.729 463.188 323.328 472.349 300.531C474.969 294.01 490.339 266.948 487.287 243.13Z" fill="#763D12"/>
<path d="M382.537 325.646C382.537 325.646 378.818 331.094 372.568 329.453M487.287 243.13C481.734 199.76 418.333 204.922 415.266 211.979C413.313 216.479 406.135 252.141 406.135 252.141C404.188 257.63 406.391 263.74 411.401 266.719L416.807 269.927C419.016 271.24 420.297 273.687 420.12 276.25L418.604 283.505C417.927 290.401 424.323 288.552 422.979 295.958L420.453 308.573C419.615 314.63 413.037 314.453 409.271 312.396C400.797 307.771 386.302 302.995 370.984 312.026C370.984 312.026 360.135 300.667 349.281 313.542L346.25 330.281C341.203 357.875 355.667 368.719 374.854 367.13L406.714 364.583C418.729 363.729 428.266 354.13 429.042 342.109L432.063 299.323L446.531 297.422L466.542 334.729C466.542 334.729 463.188 323.328 472.349 300.531C474.969 294.01 490.339 266.948 487.287 243.13Z" stroke="black" stroke-width="4" stroke-miterlimit="10" stroke-linecap="round" stroke-linejoin="round"/>
<path d="M445.103 320.886L445.749 320.682C452.452 318.61 457.187 312.62 457.65 305.625L457.067 282.844C457.416 277.589 453.822 272.891 448.661 271.854C443.567 270.833 438.494 273.693 436.728 278.573L432.432 299.146C431.984 301.292 432.463 303.531 433.754 305.302L445.103 320.886Z" fill="#E05B66"/>
<path d="M445.105 320.886L445.751 320.682C452.454 318.61 457.188 312.62 457.652 305.625L457.068 282.844C457.417 277.589 453.824 272.891 448.662 271.854C443.568 270.833 438.495 273.693 436.73 278.573L435.777 281.641C433.313 289.583 431.844 297.802 431.417 306.104L431.053 313.12" stroke="black" stroke-width="4" stroke-miterlimit="10" stroke-linecap="round" stroke-linejoin="round"/>
<path d="M402.437 272.761C402.437 272.761 397.249 267.599 388.942 270.964M362.572 272.063C362.572 272.063 357.567 268.818 352.338 272.995" stroke="black" stroke-width="5.33333" stroke-miterlimit="10" stroke-linecap="round" stroke-linejoin="round"/>
<path d="M332.749 516.802C332.749 516.802 322.354 518.479 304.744 504.547C281.484 486.146 265.354 494.672 265.354 494.672M375.713 276.141C375.713 276.141 376.848 286.042 368.9 300.167C367.255 303.089 367.984 306.797 369.786 309.63L371.234 311.906" stroke="black" stroke-width="4" stroke-miterlimit="10" stroke-linecap="round" stroke-linejoin="round"/>
<path d="M353.656 238.412C353.656 238.412 367.453 248.511 383.943 236.057C383.943 236.057 398.75 249.516 416.922 238.078C416.922 238.078 431.391 258.943 454.276 246.49C454.276 246.49 466.724 272.401 491.625 258.266L490.615 232.354L472.615 210.818L432.734 193.318L397.401 194.328L372.5 201.396L358.703 216.537L353.656 238.412Z" fill="#763D12"/>
<path d="M353.656 238.412C353.656 238.412 367.453 248.511 383.943 236.057C383.943 236.057 398.75 249.516 416.922 238.078C416.922 238.078 431.391 258.943 454.276 246.49C454.276 246.49 457.078 252.328 462.693 256.953M477.661 261.464C477.661 261.464 490.786 263.651 498.693 250.021M382.766 178.849C382.766 178.849 374.688 185.578 376.37 198.87M369.911 207.688C371.49 201.761 377.573 198.235 383.5 199.818M447.802 201.922C453.969 198.891 461.422 201.438 464.448 207.599M449.057 181.542C449.057 181.542 457.302 190.292 457.469 200.052" stroke="black" stroke-width="4" stroke-miterlimit="10" stroke-linecap="round" stroke-linejoin="round"/>
<path d="M389.157 284.516C389.157 284.516 393.532 288.891 399.589 285.526M351.928 286.135C351.928 286.135 356.74 290.021 362.407 286.031" stroke="black" stroke-width="2.66667" stroke-miterlimit="10" stroke-linecap="round" stroke-linejoin="round"/>
<path d="M698.594 642.026L687.36 598.854L620.037 632.599L642.917 697.521C664.339 682.157 683.157 663.396 698.594 642.026Z" fill="#FFB300"/>
<path d="M698.594 642.026L687.36 598.854L620.037 632.599L642.917 697.521C664.339 682.157 683.157 663.396 698.594 642.026Z" stroke="black" stroke-width="4" stroke-miterlimit="10" stroke-linecap="round" stroke-linejoin="round"/>
<path d="M670.27 674.703C663.697 662.943 659.463 656.63 659.463 656.63L508.197 660.511C489.609 681.136 475.239 710.37 464.354 740.141C476.437 741.985 488.807 742.943 501.4 742.943C567.005 742.943 626.536 716.948 670.27 674.703Z" fill="#495CDE"/>
<path d="M670.27 674.703C663.697 662.943 659.463 656.63 659.463 656.63L508.197 660.511C489.609 681.136 475.239 710.37 464.354 740.141C476.437 741.985 488.807 742.943 501.4 742.943C567.005 742.943 626.536 716.948 670.27 674.703Z" stroke="black" stroke-width="4" stroke-miterlimit="10" stroke-linecap="round" stroke-linejoin="round"/>
<path d="M435.65 610.948C435.65 610.948 436.359 626.886 453.359 631.662L456.609 616.891C446.63 617.839 438.994 617.5 435.65 610.948Z" fill="black"/>
<path d="M435.65 610.948C435.65 610.948 436.359 626.886 453.359 631.662L456.609 616.891C446.63 617.839 438.994 617.5 435.65 610.948Z" stroke="black" stroke-width="4" stroke-miterlimit="10" stroke-linecap="round" stroke-linejoin="round"/>
<path d="M468.234 577.469L425.875 730.964C445.583 737.401 466.401 741.396 487.969 742.568L524.542 584.375L468.234 577.469Z" fill="#FFB300" stroke="black" stroke-width="4" stroke-miterlimit="10" stroke-linecap="round" stroke-linejoin="round"/>
<path d="M578.162 453.812C578.162 476.193 560.027 494.328 537.646 494.328C515.271 494.328 497.131 476.193 497.131 453.812C497.131 431.438 515.271 413.297 537.646 413.297C560.027 413.297 578.162 431.438 578.162 453.812Z" fill="#F6EED6"/>
<path d="M578.162 453.813C578.162 476.193 560.027 494.328 537.646 494.328C515.271 494.328 497.131 476.193 497.131 453.813C497.131 431.438 515.271 413.297 537.646 413.297C560.027 413.297 578.162 431.438 578.162 453.813Z" stroke="black" stroke-width="4" stroke-miterlimit="10" stroke-linecap="round" stroke-linejoin="round"/>
<path d="M547.953 456.406C553.917 464.86 560.75 472.943 568.255 480.349C574.422 473.24 578.161 463.964 578.161 453.813C578.161 431.438 560.026 413.302 537.646 413.302C534.479 413.302 531.396 413.677 528.438 414.365C531.167 429.578 539.307 444.151 547.953 456.406Z" fill="black"/>
<path d="M723.76 610.396C712.494 581.011 700.786 550.542 692.312 528.693C687.88 517.255 680.593 507.328 671.327 499.735C662.911 492.839 652.843 488.255 642.229 485.87L623.577 481.682C626.489 506.203 614.114 550.224 579.088 515.651C570.327 507 563.546 496.552 558.895 485.151L556.64 479.615C556.64 479.615 487.354 480.276 469.65 527.729L435.65 610.948C444.505 628.297 482.322 601.74 515.26 623.339C515.26 623.339 506.624 663.099 506.374 663.146L659.463 656.63C659.463 656.63 656.301 648.115 656.312 637.761C660.713 631.203 668.572 623.198 685.666 622.636C717.89 621.573 723.999 610.948 723.76 610.396Z" fill="#E05B66"/>
<path d="M723.76 610.396C712.494 581.011 700.786 550.542 692.312 528.693C687.88 517.255 680.593 507.328 671.327 499.735C662.911 492.839 652.843 488.255 642.229 485.87L623.577 481.682C626.489 506.203 614.114 550.224 579.088 515.651C570.327 507 563.546 496.552 558.895 485.151L556.64 479.615C556.64 479.615 487.354 480.276 469.65 527.729L435.65 610.948C444.505 628.297 482.322 601.74 515.26 623.339C515.26 623.339 506.624 663.099 506.374 663.146L659.463 656.63C659.463 656.63 656.301 648.115 656.312 637.761C660.713 631.203 668.572 623.198 685.666 622.636C717.89 621.573 723.999 610.948 723.76 610.396Z" stroke="black" stroke-width="4" stroke-miterlimit="10" stroke-linecap="round" stroke-linejoin="round"/>
<path d="M660.881 606.677C665.339 604.266 669.995 602.417 677.594 602.162C709.824 601.099 715.928 590.479 715.688 589.927" fill="#E05B66"/>
<path d="M660.881 606.677C665.339 604.266 669.995 602.417 677.594 602.162C709.824 601.099 715.928 590.479 715.688 589.927" stroke="black" stroke-width="4" stroke-miterlimit="10" stroke-linecap="round" stroke-linejoin="round"/>
<path d="M723.76 610.396C723.979 610.891 719.077 619.464 694.885 622.011L699.301 636.443C725.505 626.703 723.76 610.396 723.76 610.396Z" fill="black"/>
<path d="M442.541 595.183C456.109 602.683 489.932 584.412 519.051 603.511M723.76 610.396C723.979 610.891 719.077 619.464 694.885 622.011L699.301 636.443C725.505 626.703 723.76 610.396 723.76 610.396Z" stroke="black" stroke-width="4" stroke-miterlimit="10" stroke-linecap="round" stroke-linejoin="round"/>
<path d="M574.256 402.995C603.396 390.198 613.703 343.641 613.703 343.641C621.953 345.672 628.782 349.495 634.131 353.49C641.193 358.761 646.521 365.979 649.584 374.146C649.443 368.781 647.61 336.162 623.834 322.318C605.459 311.62 585.625 320.542 585.625 320.542C585.625 320.542 554.349 309.167 530.183 332.979C506.094 356.714 512.032 406.583 560.297 447.38L564.344 411.688L574.256 402.995Z" fill="#F6EED6" stroke="black" stroke-width="4" stroke-miterlimit="10" stroke-linecap="round" stroke-linejoin="round"/>
<path d="M651.969 383.141C651.958 383.083 651.948 383.026 651.938 382.974C650.036 371.24 643.656 360.599 634.13 353.49C628.781 349.495 621.953 345.672 613.703 343.641C613.703 343.641 603.396 390.198 574.255 402.995L564.344 411.688L556.641 479.615L558.896 485.151C563.547 496.552 570.323 507 579.089 515.651C614.969 551.068 627.078 504.005 623.339 479.922L618.812 457.49C628.552 458.479 646.922 458.229 655.214 444.151C664.865 427.76 655.63 405.943 651.969 383.141Z" fill="#FFB300"/>
<path d="M651.969 383.141C651.958 383.083 651.948 383.026 651.938 382.974C650.036 371.24 643.656 360.599 634.13 353.49C628.781 349.495 621.953 345.672 613.703 343.641C613.703 343.641 603.396 390.198 574.255 402.995L564.344 411.688L556.641 479.615L558.896 485.151C563.547 496.552 570.323 507 579.089 515.651C614.969 551.068 627.078 504.005 623.339 479.922L618.813 457.49C628.552 458.479 646.922 458.229 655.214 444.151C664.865 427.76 655.63 405.943 651.969 383.141Z" stroke="black" stroke-width="4" stroke-miterlimit="10" stroke-linecap="round" stroke-linejoin="round"/>
<path d="M608.734 390.765C608.734 390.765 613.25 385.984 620.422 387.578M641.396 385.338C641.396 385.338 646.714 382.797 651.37 386.073" stroke="black" stroke-width="5.33333" stroke-miterlimit="10" stroke-linecap="round" stroke-linejoin="round"/>
<path d="M658.126 653.906C658.126 653.906 653.808 632.771 657.209 616.406C662.042 593.146 680.709 565.578 665.126 535.391M514.725 626.359L529.61 563.349C532.063 554.745 538.704 547.969 547.256 545.349M632.313 388C632.313 388 633.162 397.063 640.079 406.896C641.688 409.182 641.87 412.177 640.844 414.781L640.016 416.87" stroke="black" stroke-width="4" stroke-miterlimit="10" stroke-linecap="round" stroke-linejoin="round"/>
<path d="M604.818 456.479L618.162 458.229L624.188 485.979L604.818 456.479Z" fill="black"/>
<path d="M580.672 403.089L572.802 390.261C570.333 386.657 565.604 385.401 561.672 387.308C557.692 389.24 555.755 393.818 557.146 398.021L561.474 416.683C563.328 422.282 568.442 426.157 574.333 426.433L574.906 426.459" fill="#FFB300"/>
<path d="M580.672 403.089L572.802 390.261C570.333 386.657 565.604 385.401 561.672 387.308C557.692 389.24 555.755 393.818 557.146 398.021L561.474 416.683C563.328 422.282 568.442 426.157 574.333 426.433L574.906 426.459" stroke="black" stroke-width="4" stroke-miterlimit="10" stroke-linecap="round" stroke-linejoin="round"/>
<path d="M612.51 402.563C612.51 402.563 617.749 406.464 623.567 402.016M643.963 399.63C643.963 399.63 648.619 403.349 653.952 398.818" stroke="black" stroke-width="2.66667" stroke-miterlimit="10" stroke-linecap="round" stroke-linejoin="round"/>
<path d="M618.813 457.49L604.287 456.125L618.813 457.49Z" fill="#FF7E00"/>
<path d="M618.813 457.49L604.287 456.125" stroke="black" stroke-width="4" stroke-miterlimit="10" stroke-linecap="round" stroke-linejoin="round"/>
<path d="M624.188 423.964C624.188 423.964 627.031 430 634.672 429.292" stroke="black" stroke-width="4" stroke-miterlimit="10" stroke-linecap="round" stroke-linejoin="round"/>
<path d="M576.427 427.146C576.427 430.729 573.521 433.636 569.943 433.636C566.359 433.636 563.453 430.729 563.453 427.146C563.453 423.568 566.359 420.662 569.943 420.662C573.521 420.662 576.427 423.568 576.427 427.146Z" fill="#F8EED3"/>
<path d="M598.953 317.344C598.953 317.344 583.318 318.583 577.453 329.068M576.427 427.146C576.427 430.729 573.521 433.635 569.943 433.635C566.359 433.635 563.453 430.729 563.453 427.146C563.453 423.568 566.359 420.661 569.943 420.661C573.521 420.661 576.427 423.568 576.427 427.146Z" stroke="black" stroke-width="4" stroke-miterlimit="10" stroke-linecap="round" stroke-linejoin="round"/>
<path d="M606.072 433.349C607.88 425.818 612.781 419.078 619.38 415.031M647.619 409.615C652.702 413.714 656.02 419.932 656.598 426.438M618.718 372.797H636.104M622.176 366.458H630.27" stroke="black" stroke-width="2.66667" stroke-miterlimit="10" stroke-linecap="round" stroke-linejoin="round"/>
</svg>
