<svg width="1000" height="1000" viewBox="0 0 1000 1000" fill="none" xmlns="http://www.w3.org/2000/svg">
<path d="M867.633 500.02C867.633 704.296 702.034 869.9 497.758 869.9C293.482 869.9 127.883 704.296 127.883 500.02C127.883 295.744 293.482 130.145 497.758 130.145C702.034 130.145 867.633 295.744 867.633 500.02Z" fill="#F6EED6"/>
<path d="M867.633 500.02C867.633 704.296 702.034 869.9 497.758 869.9C293.482 869.9 127.883 704.296 127.883 500.02C127.883 295.744 293.482 130.145 497.758 130.145C702.034 130.145 867.633 295.744 867.633 500.02Z" stroke="black" stroke-width="4" stroke-miterlimit="10" stroke-linecap="round" stroke-linejoin="round"/>
<path d="M190.988 515.057C190.988 515.057 199.566 522.109 205.285 521.156C211.004 520.202 222.441 514.104 222.441 514.104L228.155 525.921L213.478 541.166L195.754 539.452L190.988 515.057Z" fill="#E05B66"/>
<path d="M380.065 523.254H224.534C194.935 553.254 172.961 598.155 156.898 643.864C187.362 715.978 240.049 776.405 306.372 816.593H468.695C456.117 623.317 380.065 523.254 380.065 523.254Z" fill="#495CDE"/>
<path d="M380.065 523.254H224.534C194.935 553.254 172.961 598.155 156.898 643.864C187.362 715.978 240.049 776.405 306.372 816.593H468.695C456.117 623.317 380.065 523.254 380.065 523.254Z" stroke="black" stroke-width="4" stroke-miterlimit="10" stroke-linecap="round" stroke-linejoin="round"/>
<path d="M297.707 779.447L305.566 668.426C306.15 660.244 312.957 653.9 321.165 653.9H344.785M170.41 670.812C186.931 616.062 210.223 559.395 245.884 523.254" stroke="black" stroke-width="4" stroke-miterlimit="10" stroke-linecap="round" stroke-linejoin="round"/>
<path d="M183.65 577.859L173.931 603.88L238.259 589.01L183.65 577.859ZM144.863 463.4C144.863 463.4 163.16 479.984 177.077 474.265L157.254 447.963L144.863 463.4Z" fill="black" stroke="black" stroke-width="4" stroke-miterlimit="10" stroke-linecap="round" stroke-linejoin="round"/>
<path d="M141.623 380.301L82.1594 431.749C66.9458 444.911 60.2688 465.786 66.0865 485.036C69.1386 495.135 75.3208 504.4 84.4406 511.244L183.368 581.577L231.206 580.244L232.732 556.989L142.769 469.786L191.56 431.379L141.623 380.301Z" fill="#E05B66"/>
<path d="M231.206 580.244L183.363 581.577L84.4409 511.244C75.3211 504.4 69.1388 495.135 66.0867 485.036C60.2638 465.786 66.9461 444.911 82.1596 431.749L141.623 380.301L191.561 431.379L142.764 469.786L193.186 516.421C197.389 520.312 203.305 521.739 208.816 520.192L223.394 516.103" stroke="black" stroke-width="4" stroke-miterlimit="10" stroke-linecap="round" stroke-linejoin="round"/>
<path d="M123.514 452.348L164.113 489.515L123.514 452.348Z" fill="#FFB300"/>
<path d="M123.514 452.348L164.113 489.515" stroke="black" stroke-width="4" stroke-miterlimit="10" stroke-linecap="round" stroke-linejoin="round"/>
<path d="M259.493 105.827C259.446 105.249 259.384 104.666 259.301 104.083C257.618 91.9471 248.212 82.046 236.191 79.6815C230.384 78.5408 224.78 79.1763 219.816 81.1294C217.394 82.0825 214.618 81.6398 212.582 80.0148C207.53 75.9888 201.019 73.6815 193.894 74.0356C181.009 74.6815 170.103 84.4783 168.087 97.2179C167.014 103.994 168.457 110.447 171.644 115.765C173.087 118.171 172.952 121.223 171.426 123.577C168.363 128.286 166.707 134.01 167.097 140.202C167.863 152.228 176.702 162.484 188.483 165.02C189.045 165.14 189.603 165.244 190.16 165.327C194.389 165.973 198.019 168.869 199.629 172.833C203.957 183.504 214.41 191.03 226.634 191.03C239.785 191.03 250.894 182.322 254.53 170.353C269.144 168.78 280.53 156.411 280.53 141.374C280.53 130.577 274.655 121.171 265.931 116.14C262.191 113.984 259.837 110.129 259.493 105.827Z" fill="black"/>
<path d="M259.493 105.827C259.446 105.249 259.384 104.666 259.301 104.083C257.618 91.9471 248.212 82.046 236.191 79.6815C230.384 78.5408 224.78 79.1763 219.816 81.1294C217.394 82.0825 214.618 81.6398 212.582 80.0148C207.53 75.9888 201.019 73.6815 193.894 74.0356C181.009 74.6815 170.103 84.4783 168.087 97.2179C167.014 103.994 168.457 110.447 171.644 115.765C173.087 118.171 172.952 121.223 171.426 123.577C168.363 128.286 166.707 134.01 167.097 140.202C167.863 152.228 176.702 162.484 188.483 165.02C189.045 165.14 189.603 165.244 190.16 165.327C194.389 165.973 198.019 168.869 199.629 172.833C203.957 183.504 214.41 191.03 226.634 191.03C239.785 191.03 250.894 182.322 254.53 170.353C269.144 168.78 280.53 156.411 280.53 141.374C280.53 130.577 274.655 121.171 265.931 116.14C262.191 113.984 259.837 110.129 259.493 105.827Z" stroke="black" stroke-width="4" stroke-miterlimit="10" stroke-linecap="round" stroke-linejoin="round"/>
<path d="M275.669 188.009C260.701 204.306 238.94 208.671 227.07 197.765C215.206 186.858 217.727 164.806 232.701 148.515C247.675 132.223 269.43 127.858 281.3 138.765C293.164 149.671 290.643 171.718 275.669 188.009Z" fill="#FFB300"/>
<path d="M275.669 188.009C260.701 204.306 238.94 208.671 227.07 197.765C215.206 186.858 217.727 164.806 232.701 148.515C247.675 132.223 269.43 127.858 281.3 138.765C293.164 149.671 290.643 171.718 275.669 188.009Z" stroke="black" stroke-width="4" stroke-miterlimit="10" stroke-linecap="round" stroke-linejoin="round"/>
<path d="M267.42 280.994C267.42 280.994 240.253 273.937 237.852 244.89C237.67 242.661 236.659 240.588 234.972 239.13C229.889 234.723 219.217 224.239 216.722 211.994C213.066 194.083 218.873 167.755 246.925 160.583C249.154 160.015 251.113 158.656 252.274 156.671C255.576 151.02 264.081 139.359 279.238 136.52C295.79 133.416 304.8 141.192 308.878 146.51C310.743 148.947 313.857 150.083 316.873 149.525C323.331 148.338 334.623 148.317 344.045 159.01C354.404 170.77 352.43 192.937 352.43 192.937L267.42 280.994ZM418.758 487.989C418.758 487.989 423.524 493.801 434.769 465.88C445.545 439.13 411.519 434.619 411.519 434.619L418.758 487.989Z" fill="black" stroke="black" stroke-width="4" stroke-miterlimit="10" stroke-linecap="round" stroke-linejoin="round"/>
<path d="M404.367 463.213L451.701 493.629C463.263 500.952 474.549 504.056 486.643 500.619C510.737 493.765 522.305 468.395 510.247 446.437L491.951 413.655L411.799 434.051L404.367 463.213Z" fill="#E05B66" stroke="black" stroke-width="4" stroke-miterlimit="10" stroke-linecap="round" stroke-linejoin="round"/>
<path d="M261.701 317.973L205.206 334.036C191.216 338.015 178.331 345.166 167.56 354.937L101.977 414.416C101.977 414.416 122.18 406.411 141.242 430.046C151.674 442.984 160.966 468.265 177.742 473.598L228.919 424.708L376.633 448.343L418.758 487.989C418.758 487.989 413.424 447.583 438.581 432.333C463.742 417.088 460.69 399.551 460.69 399.551L409.206 351.942C396.508 340.197 380.805 332.213 363.836 328.864L335.659 323.312L261.701 317.973Z" fill="#F6EED6" stroke="black" stroke-width="4" stroke-miterlimit="10" stroke-linecap="round" stroke-linejoin="round"/>
<path d="M405.801 445.202C405.801 445.202 413.52 424.327 421.238 417.468" stroke="black" stroke-width="4" stroke-miterlimit="10" stroke-linecap="round" stroke-linejoin="round"/>
<path d="M509.107 444.437L426.097 292.244L427.482 277.577C427.024 270.01 423.54 262.947 417.816 257.973L371.488 217.713L377.592 288.239L359.67 301.583C359.67 301.583 367.576 317.072 386.55 320.13C390.285 320.729 393.337 323.442 394.467 327.051L433.628 458.161L509.107 444.437Z" fill="#E05B66"/>
<path d="M368.066 309.947C368.066 309.947 375.65 316.223 379.311 317.27L411.223 293.208L368.066 309.947Z" fill="black"/>
<path d="M509.107 444.437L426.097 292.244L427.482 277.577C427.024 270.01 423.54 262.947 417.816 257.973L371.488 217.713L377.592 288.239L359.67 301.583C359.67 301.583 367.576 317.072 386.55 320.13C390.285 320.729 393.337 323.442 394.467 327.051L433.628 458.161" stroke="black" stroke-width="4" stroke-miterlimit="10" stroke-linecap="round" stroke-linejoin="round"/>
<path d="M408.764 294.749L373.186 310.286C368.608 312.286 363.269 310.197 361.269 305.614L326.868 226.848C324.868 222.27 326.957 216.931 331.54 214.931L367.113 199.395C371.696 197.39 377.03 199.484 379.03 204.062L413.436 282.833C415.436 287.411 413.347 292.749 408.764 294.749Z" fill="#495CDE"/>
<path d="M408.764 294.749L373.186 310.286C368.608 312.286 363.269 310.197 361.269 305.614L326.868 226.848C324.868 222.27 326.957 216.931 331.54 214.931L367.113 199.395C371.696 197.39 377.03 199.484 379.03 204.062L413.436 282.833C415.436 287.411 413.347 292.749 408.764 294.749Z" stroke="black" stroke-width="4" stroke-miterlimit="10" stroke-linecap="round" stroke-linejoin="round"/>
<path d="M396.483 285.905L373.358 296.01C370.019 297.468 366.123 295.942 364.665 292.598L338.326 232.301C336.868 228.957 338.394 225.067 341.738 223.608L364.858 213.51C368.201 212.046 372.092 213.572 373.55 216.916L399.889 277.213C401.347 280.556 399.821 284.447 396.483 285.905Z" fill="#F8EED3"/>
<path d="M396.483 285.905L373.358 296.01C370.019 297.468 366.123 295.942 364.665 292.598L338.326 232.301C336.868 228.957 338.394 225.067 341.738 223.608L364.858 213.51C368.201 212.046 372.092 213.572 373.55 216.916L399.889 277.213C401.347 280.556 399.821 284.447 396.483 285.905Z" stroke="black" stroke-width="4" stroke-miterlimit="10" stroke-linecap="round" stroke-linejoin="round"/>
<path d="M409.681 234.4L382.259 215.645C381.217 215.015 380.436 214.025 380.066 212.859C378.816 208.9 382.629 205.218 386.54 206.603L399.102 212.707C402.727 213.994 405.462 217.025 406.368 220.765L409.681 234.4Z" fill="#E05B66" stroke="black" stroke-width="4" stroke-miterlimit="10" stroke-linecap="round" stroke-linejoin="round"/>
<path d="M397.414 238.968L383.737 225.713C382.591 224.759 381.867 223.395 381.722 221.91C381.268 217.233 386.378 214.072 390.362 216.572C397.237 220.89 404.617 227.176 409.8 230.77C419.143 237.249 417.232 256.692 417.232 256.692L397.414 238.968Z" fill="#E05B66" stroke="black" stroke-width="4" stroke-miterlimit="10" stroke-linecap="round" stroke-linejoin="round"/>
<path d="M401.128 250.499L387.55 237.15C386.404 236.197 385.68 234.832 385.534 233.348C385.081 228.671 390.19 225.509 394.169 228.009C401.05 232.327 408.336 238.707 413.518 242.301C422.857 248.78 420.951 268.223 420.951 268.223L401.128 250.499Z" fill="#E05B66" stroke="black" stroke-width="4" stroke-miterlimit="10" stroke-linecap="round" stroke-linejoin="round"/>
<path d="M426.743 289.979L428.655 279.828C429.852 273.723 427.946 267.385 423.483 263.052C421.519 261.14 419.446 259.39 417.79 257.859L417.045 257.171L402.384 245.083C399.149 242.385 394.201 243.906 393.045 247.958C392.451 250.041 393.066 252.27 394.623 253.776C400.618 259.546 407.967 263.895 413.488 279.692L426.743 289.979Z" fill="#E05B66"/>
<path d="M413.316 282.307C407.796 266.51 400.618 259.546 394.624 253.776C393.066 252.27 392.452 250.041 393.046 247.958C394.202 243.906 399.15 242.385 402.384 245.083L417.046 257.171L417.79 257.859C419.447 259.39 421.52 261.14 423.483 263.052C427.947 267.385 429.853 273.723 428.655 279.828L425.697 291.374M120.754 398.312C120.754 398.312 137.618 392.499 156.681 416.135C167.113 429.072 175.457 453.302 192.228 458.635" stroke="black" stroke-width="4" stroke-miterlimit="10" stroke-linecap="round" stroke-linejoin="round"/>
<path d="M335.654 323.312L326.045 277.317L270.087 244.02L261.701 317.973L315.837 367.53L335.654 323.312Z" fill="#E05B66" stroke="black" stroke-width="4" stroke-miterlimit="10" stroke-linecap="round" stroke-linejoin="round"/>
<path d="M345.785 178.364C345.785 178.364 356.405 185.817 360.066 215.843C363.103 240.806 375.493 264.306 364.311 281.739C350.915 302.619 314.04 294.03 314.04 294.03L268.566 243.254L277.03 165.286L345.785 178.364Z" fill="#E05B66"/>
<path d="M345.784 178.364C345.784 178.364 356.404 185.817 360.065 215.843C363.102 240.806 375.492 264.306 364.31 281.739C350.914 302.619 314.039 294.03 314.039 294.03M329.633 262.822C329.633 262.822 334.174 270.458 342.716 268.78" stroke="black" stroke-width="4" stroke-miterlimit="10" stroke-linecap="round" stroke-linejoin="round"/>
<path d="M311.629 227.145C311.629 227.145 316.228 219.978 325.275 222.208M347.316 217.754C347.316 217.754 352.051 214.187 358.91 217.619" stroke="black" stroke-width="5.33333" stroke-miterlimit="10" stroke-linecap="round" stroke-linejoin="round"/>
<path d="M198.805 451.775C198.805 451.775 196.899 491.041 224.535 523.249H380.066C380.066 523.249 412.279 438.817 392.076 391.546L226.633 394.978L198.805 451.775Z" fill="#F6EED6"/>
<path d="M199.092 452.921C199.66 473.791 207.097 505.525 224.535 523.254H380.066C380.066 523.254 412.279 438.817 392.076 391.546" stroke="black" stroke-width="4" stroke-miterlimit="10" stroke-linecap="round" stroke-linejoin="round"/>
<path d="M228.727 423.947L178.602 472.744L228.727 423.947Z" fill="#FF7E00"/>
<path d="M228.727 423.947L178.602 472.744" stroke="black" stroke-width="4" stroke-miterlimit="10" stroke-linecap="round" stroke-linejoin="round"/>
<path d="M129.232 456.348L150.962 461.879L143.529 469.884L129.232 456.348ZM225.868 426.999L211.003 500.952L199.378 455.395L225.868 426.999Z" fill="black" stroke="black" stroke-width="4" stroke-miterlimit="10" stroke-linecap="round" stroke-linejoin="round"/>
<path d="M316.004 239.062C316.004 239.062 321.743 242.557 327.483 237.812M348.879 234.775C348.879 234.775 354.624 238.27 360.363 233.525" stroke="black" stroke-width="2.66667" stroke-miterlimit="10" stroke-linecap="round" stroke-linejoin="round"/>
<path d="M261.701 317.973L289.873 381.093C291.227 384.129 295.118 385.02 297.654 382.874L315.837 367.53L261.701 317.973ZM335.654 323.312L315.837 367.53L336.842 376.26C340.467 377.765 344.337 374.687 343.68 370.817L335.654 323.312Z" fill="#F6EED6"/>
<path d="M315.837 367.53L297.654 382.874C295.118 385.02 291.227 384.129 289.873 381.093L261.701 317.973L315.837 367.53ZM315.837 367.53L335.654 323.312L343.68 370.817C344.337 374.687 340.467 377.765 336.842 376.26L315.837 367.53Z" stroke="black" stroke-width="4" stroke-miterlimit="10" stroke-linecap="round" stroke-linejoin="round"/>
<path d="M315.832 367.53C315.832 367.53 338.327 426.614 321.743 520.963" stroke="black" stroke-width="4" stroke-miterlimit="10" stroke-linecap="round" stroke-linejoin="round"/>
<path d="M394.936 399.171C394.936 399.171 416.092 445.489 409.227 479.223L396.076 465.499C396.076 465.499 406.941 427.759 394.936 399.171Z" fill="black"/>
<path d="M394.936 399.171C394.936 399.171 416.092 445.489 409.227 479.223L396.076 465.499C396.076 465.499 406.941 427.759 394.936 399.171Z" stroke="black" stroke-width="4" stroke-miterlimit="10" stroke-linecap="round" stroke-linejoin="round"/>
<path d="M334.534 229.275C336.571 242.395 330.555 254.223 321.107 255.686C311.654 257.15 302.347 247.702 300.31 234.577C298.274 221.457 304.289 209.634 313.737 208.166C323.19 206.702 332.503 216.15 334.534 229.275ZM369.352 224.317C371.31 236.582 366.805 247.499 359.295 248.702C351.779 249.9 344.097 240.931 342.138 228.666C340.18 216.4 344.68 205.483 352.196 204.28C359.711 203.082 367.394 212.051 369.352 224.317Z" stroke="#FFB300" stroke-width="4" stroke-miterlimit="10" stroke-linecap="round" stroke-linejoin="round"/>
<path d="M338.477 225.426C338.477 225.426 339.023 235.322 346.138 246.306C347.794 248.864 347.872 252.129 346.643 254.916L345.654 257.155" stroke="black" stroke-width="4" stroke-miterlimit="10" stroke-linecap="round" stroke-linejoin="round"/>
<path d="M334.702 230.676C334.702 230.676 337.754 227.244 341.566 228.77M275.426 235.348L300.301 225.338" stroke="#FFB300" stroke-width="4" stroke-miterlimit="10" stroke-linecap="round" stroke-linejoin="round"/>
<path d="M316.024 294.812L330.035 296.817L333.467 314.541L316.024 294.812ZM274.566 239.634L278.587 238.681C282.357 237.791 284.686 233.994 283.764 230.223L282.29 224.197C282.29 224.197 303.446 212.473 300.014 191.603C300.014 191.603 332.894 198.463 346.045 172.16L296.868 155.577L269.706 157.009L259.701 175.879L253.982 203.608L274.566 239.634Z" fill="black" stroke="black" stroke-width="4" stroke-miterlimit="10" stroke-linecap="round" stroke-linejoin="round"/>
<path d="M279.357 241.14L271.331 226.853C268.795 222.832 263.696 221.27 259.347 223.181C254.93 225.114 252.633 230.02 253.972 234.645L257.91 255.129C259.691 261.296 265.092 265.728 271.493 266.27L272.113 266.322M221.18 555.291L260.941 553.452C264.102 553.359 266.67 550.869 266.868 547.713C267.071 544.468 264.701 541.624 261.467 541.249L223.451 536.52C216.113 535.827 209.988 535.286 204.561 530.306" fill="#E05B66"/>
<path d="M279.357 241.14L271.331 226.853C268.795 222.832 263.696 221.27 259.347 223.181C254.93 225.114 252.633 230.02 253.972 234.645L257.91 255.129C259.691 261.296 265.092 265.728 271.493 266.27L272.113 266.322M221.18 555.291L260.941 553.452C264.102 553.359 266.67 550.869 266.868 547.713C267.071 544.468 264.701 541.624 261.467 541.249L223.451 536.52C216.113 535.827 209.988 535.286 204.561 530.306" stroke="black" stroke-width="4" stroke-miterlimit="10" stroke-linecap="round" stroke-linejoin="round"/>
<path d="M205.727 541.775L213.31 545.083C218.315 547.583 230.362 549.624 235.878 550.572L262.789 553.926C265.997 554.468 268.221 557.426 267.846 560.661C267.487 563.801 264.794 566.156 261.633 566.088L222.445 562.968" fill="#E05B66"/>
<path d="M205.727 541.775L213.31 545.083C218.315 547.583 230.362 549.624 235.878 550.572L262.789 553.926C265.997 554.468 268.221 557.426 267.846 560.661C267.487 563.801 264.794 566.156 261.633 566.088L222.445 562.968" stroke="black" stroke-width="4" stroke-miterlimit="10" stroke-linecap="round" stroke-linejoin="round"/>
<path d="M203.68 551.682L204.023 551.9C210.029 555.702 216.622 558.51 223.565 560.01L223.706 560.041L257.779 566.161C260.935 566.963 262.909 570.093 262.273 573.286C261.659 576.39 258.784 578.51 255.638 578.187L210.617 572.442" fill="#E05B66"/>
<path d="M203.68 551.682L204.023 551.9C210.029 555.702 216.622 558.51 223.565 560.01L223.706 560.041L257.779 566.161C260.935 566.963 262.909 570.093 262.273 573.286C261.659 576.39 258.784 578.51 255.638 578.187L210.617 572.442" stroke="black" stroke-width="4" stroke-miterlimit="10" stroke-linecap="round" stroke-linejoin="round"/>
<path d="M197.561 567.244C212.337 574.244 238.139 575.958 247.092 577.932C250.483 578.682 252.592 582.062 251.79 585.437C251.113 588.286 248.165 590.421 245.243 590.192C218.254 588.046 189.624 590.734 175.551 581.005C170.004 577.171 165.931 572.557 163.504 569.374C161.306 566.494 158.65 563.999 155.686 561.916L150.582 558.322" fill="#E05B66"/>
<path d="M197.561 567.244C212.337 574.244 238.139 575.958 247.092 577.932C250.483 578.682 252.592 582.062 251.79 585.437C251.113 588.286 248.165 590.421 245.243 590.192C218.254 588.046 189.624 590.734 175.551 581.005C170.004 577.171 165.931 572.557 163.504 569.374C161.306 566.494 158.65 563.999 155.686 561.916L150.582 558.322" stroke="black" stroke-width="4" stroke-miterlimit="10" stroke-linecap="round" stroke-linejoin="round"/>
<path d="M896.629 596.01C896.629 596.01 902.926 623.239 883.478 633.244L870.145 602.682L896.629 596.01Z" fill="black" stroke="black" stroke-width="4" stroke-miterlimit="10" stroke-linecap="round" stroke-linejoin="round"/>
<path d="M924.322 687.421L874.587 585.176L790.681 616.015L836.249 716.593L924.322 687.421ZM626.02 506.176L621.691 463.655L668.436 402.64L709.556 487.098L652.874 550.999L626.02 506.176Z" fill="#FFB300" stroke="black" stroke-width="4" stroke-miterlimit="10" stroke-linecap="round" stroke-linejoin="round"/>
<path d="M536.555 572.301L626.758 507.103L655.654 541.556L703.44 474.874L799.299 499.723C816.711 503.535 832.242 513.322 843.19 527.384L896.628 596.009C896.628 596.009 886.258 610.088 862.549 614.535C838.841 618.978 810.685 615.275 801.055 636.02L836.617 714.556L766.971 758.27L614.346 756.046L536.555 572.301Z" fill="#495CDE" stroke="black" stroke-width="4" stroke-miterlimit="10" stroke-linecap="round" stroke-linejoin="round"/>
<path d="M880.997 576.827C876.008 581.275 866.424 587.91 851.487 590.697C828.044 595.072 800.206 591.426 790.68 611.848" stroke="black" stroke-width="4" stroke-miterlimit="10" stroke-linecap="round" stroke-linejoin="round"/>
<path d="M655.098 540.999L663.988 723.447L655.098 540.999Z" fill="#495CDE"/>
<path d="M655.098 540.999L663.988 723.447" stroke="black" stroke-width="4" stroke-miterlimit="10" stroke-linecap="round" stroke-linejoin="round"/>
<path d="M805.686 646.577L784.285 598.968C780.577 590.718 780.541 581.286 784.192 573.01L786.791 567.114" stroke="black" stroke-width="4" stroke-miterlimit="10" stroke-linecap="round" stroke-linejoin="round"/>
<path d="M556.186 369.296C556.186 369.296 548.222 381.707 557.301 414.864C564.842 442.421 561.931 472.468 581.191 485.989C604.269 502.187 639.353 477.28 639.353 477.28L660.097 402.634L622.868 325.952L556.186 369.296Z" fill="#FFB300"/>
<path d="M556.186 369.296C556.186 369.296 548.222 381.707 557.301 414.864C564.842 442.421 561.931 472.468 581.191 485.989C604.269 502.187 639.353 477.28 639.353 477.28" stroke="black" stroke-width="4" stroke-miterlimit="10" stroke-linecap="round" stroke-linejoin="round"/>
<path d="M692.645 556.395L703.999 474.874L656.207 540.999L686.363 559.374C688.915 560.931 692.233 559.358 692.645 556.395Z" fill="#495CDE"/>
<path d="M692.645 556.395L703.999 474.874L656.207 540.999L686.363 559.374C688.915 560.931 692.233 559.358 692.645 556.395Z" stroke="black" stroke-width="4" stroke-miterlimit="10" stroke-linecap="round" stroke-linejoin="round"/>
<path d="M626.389 508.03L628.545 560.379C628.701 564.202 633.451 565.869 635.962 562.983L655.097 540.999L626.389 508.03Z" fill="#495CDE" stroke="black" stroke-width="4" stroke-miterlimit="10" stroke-linecap="round" stroke-linejoin="round"/>
<path d="M621.201 754.38C621.201 754.38 653.988 715.484 673.993 707.702C688.342 702.119 721.285 708.551 738.753 712.63C746.592 714.463 754.696 714.76 762.644 713.51L917.654 673.807L933.488 705.546C950.691 739.744 925.915 780.088 887.639 780.218L795.128 780.494L621.201 754.38Z" fill="#FFB300"/>
<path d="M917.654 673.807L933.488 705.546C950.691 739.744 925.915 780.088 887.639 780.218L795.128 780.494L621.201 754.38C621.201 754.38 653.988 715.484 673.993 707.702C688.342 702.119 721.285 708.551 738.753 712.635C746.592 714.463 754.696 714.76 762.644 713.515L857.066 689.327" stroke="black" stroke-width="4" stroke-miterlimit="10" stroke-linecap="round" stroke-linejoin="round"/>
<path d="M644.727 753.822C644.727 753.822 661.763 733.447 669.174 727.15L644.727 753.822ZM661.393 753.822C661.393 753.822 678.435 733.447 685.841 727.15L661.393 753.822ZM678.065 757.895C678.065 757.895 695.107 737.525 702.513 731.223L678.065 757.895ZM695.477 763.083C695.477 763.083 709.555 748.265 716.961 741.968C716.961 741.968 723.258 755.307 742.523 758.27" fill="#FFB300"/>
<path d="M644.727 753.822C644.727 753.822 661.763 733.447 669.174 727.15M661.393 753.822C661.393 753.822 678.435 733.447 685.841 727.15M678.065 757.895C678.065 757.895 695.107 737.525 702.513 731.223M695.477 763.083C695.477 763.083 709.555 748.265 716.961 741.968C716.961 741.968 723.258 755.307 742.523 758.27" stroke="black" stroke-width="4" stroke-miterlimit="10" stroke-linecap="round" stroke-linejoin="round"/>
<path d="M583.414 686.031L595.503 611.098C596.617 604.192 593.888 597.223 588.378 592.911L584.523 589.9" stroke="black" stroke-width="4" stroke-miterlimit="10" stroke-linecap="round" stroke-linejoin="round"/>
<path d="M606.196 340.958C606.196 340.958 597.68 367.26 574.342 375.411C551.003 383.556 532.847 371.333 528.404 357.629C523.956 343.921 532.847 327.619 553.222 332.806C553.222 332.806 542.113 323.916 546.555 311.322C551.003 298.723 562.482 300.577 574.712 309.468C586.936 318.359 588.415 316.51 598.79 311.322C609.16 306.135 621.389 304.655 626.946 316.51C626.946 316.51 670.024 301.791 686.217 344.291C695.107 367.629 686.081 398.728 685.102 405.968C682.326 426.53 687.253 441.166 687.253 441.166L658.248 409.119L638.613 412.452C633.165 412.02 628.712 407.942 627.8 402.551L625.644 389.853L615.238 386.64C609.446 384.848 605.727 379.213 606.357 373.181L606.196 340.958Z" fill="#763D12" stroke="black" stroke-width="4" stroke-miterlimit="10" stroke-linecap="round" stroke-linejoin="round"/>
<path d="M607.648 446.27C607.648 446.27 606.154 456.249 596.451 458.166M578.039 412.468C578.039 412.468 581.721 423.114 578.971 437.723C578.326 441.124 579.654 444.598 582.143 446.999L584.148 448.931" stroke="black" stroke-width="4" stroke-miterlimit="10" stroke-linecap="round" stroke-linejoin="round"/>
<path d="M642.008 412.275L643.133 393.692C643.727 388.322 648.164 384.197 653.56 383.984C659.034 383.775 663.815 387.65 664.742 393.046L670.883 415.937C672.117 423.129 668.794 430.333 662.523 434.067L661.914 434.426" fill="#FFB300"/>
<path d="M642.008 412.275L643.133 393.692C643.727 388.322 648.164 384.197 653.56 383.984C659.034 383.775 663.815 387.65 664.742 393.046L670.883 415.937C672.117 423.129 668.794 430.333 662.523 434.067L661.914 434.426" stroke="black" stroke-width="4" stroke-miterlimit="10" stroke-linecap="round" stroke-linejoin="round"/>
<path d="M608.519 402.103C608.519 402.103 600.602 396.546 592.045 402.786" stroke="black" stroke-width="5.33333" stroke-miterlimit="10" stroke-linecap="round" stroke-linejoin="round"/>
<path d="M597.894 417.327C598.753 419.15 600.925 419.932 602.748 419.072C604.571 418.213 605.358 416.041 604.498 414.218C603.639 412.395 601.467 411.614 599.644 412.468C597.816 413.327 597.035 415.499 597.894 417.327Z" fill="black"/>
<path d="M569.654 406.478C569.654 406.478 563.3 404.156 558.779 410.041" stroke="black" stroke-width="5.33333" stroke-miterlimit="10" stroke-linecap="round" stroke-linejoin="round"/>
<path d="M563.201 425.197C564.061 427.02 566.238 427.801 568.061 426.947C569.884 426.088 570.665 423.911 569.806 422.088C568.951 420.265 566.774 419.484 564.951 420.343C563.129 421.197 562.347 423.374 563.201 425.197Z" fill="black"/>
<path d="M821.43 679.733L851.435 690.103L828.466 696.405L821.43 679.733Z" fill="black" stroke="black" stroke-width="4" stroke-miterlimit="10" stroke-linecap="round" stroke-linejoin="round"/>
<path d="M621.014 309.655C621.014 309.655 629.353 315.582 629.165 325.582M603.421 347.624C603.421 347.624 607.863 338.733 608.421 331.327M545.629 319.098C545.629 319.098 546.374 331.697 561.743 337.624" stroke="black" stroke-width="4" stroke-miterlimit="10" stroke-linecap="round" stroke-linejoin="round"/>
<path d="M774.779 753.822H634.503C626.711 753.822 619.669 749.171 616.612 741.999L544.518 572.848C542.466 568.025 537.727 564.895 532.482 564.895H509.758C514.164 564.895 518.143 567.525 519.872 571.577L598.628 756.364C600.19 760.025 602.258 763.359 604.727 766.312C606.247 768.114 607.93 769.76 609.727 771.26C610.862 772.202 612.029 773.103 613.263 773.916C614.055 774.442 614.872 774.942 615.701 775.405C618.195 776.806 620.841 777.942 623.607 778.78C625.299 779.296 627.044 779.687 628.815 779.973C629.924 780.155 631.044 780.301 632.18 780.385C633.164 780.458 634.148 780.494 635.143 780.494H801.451C801.451 765.765 789.508 753.822 774.779 753.822Z" fill="black"/>
<path d="M774.779 753.822H634.503C626.711 753.822 619.669 749.171 616.612 741.999L544.518 572.848C542.466 568.025 537.727 564.895 532.482 564.895H509.758C514.164 564.895 518.143 567.525 519.872 571.577L598.628 756.364C600.19 760.025 602.258 763.359 604.727 766.312C606.247 768.114 607.93 769.76 609.727 771.26C610.862 772.202 612.029 773.103 613.263 773.916C614.055 774.442 614.872 774.942 615.701 775.405C618.195 776.806 620.841 777.942 623.607 778.78C625.299 779.296 627.044 779.687 628.815 779.973C629.924 780.155 631.044 780.301 632.18 780.385C633.164 780.458 634.148 780.494 635.143 780.494H801.451C801.451 765.765 789.508 753.822 774.779 753.822Z" stroke="black" stroke-width="4" stroke-miterlimit="10" stroke-linecap="round" stroke-linejoin="round"/>
<path d="M598.628 756.364L519.873 571.577C518.144 567.525 514.165 564.895 509.758 564.895H312.18C300.889 564.895 293.269 576.426 297.696 586.812L372.982 763.463C377.383 773.791 387.529 780.494 398.758 780.494H635.144C619.237 780.494 604.868 770.999 598.628 756.364Z" fill="#00B36C"/>
<path d="M598.628 756.364L519.873 571.577C518.144 567.525 514.165 564.895 509.758 564.895H312.18C300.889 564.895 293.269 576.426 297.696 586.812L372.982 763.463C377.383 773.791 387.529 780.494 398.758 780.494H635.144C619.237 780.494 604.868 770.999 598.628 756.364Z" stroke="black" stroke-width="4" stroke-miterlimit="10" stroke-linecap="round" stroke-linejoin="round"/>
<path d="M465.415 672.843C469.581 686.41 461.962 697.405 448.394 697.405C434.826 697.405 420.456 686.41 416.29 672.843C412.123 659.275 419.743 648.28 433.311 648.28C446.878 648.28 461.253 659.275 465.415 672.843Z" fill="#F8EED3"/>
<path d="M465.415 672.843C469.581 686.41 461.962 697.405 448.394 697.405C434.826 697.405 420.456 686.41 416.29 672.843C412.123 659.275 419.743 648.28 433.311 648.28C446.878 648.28 461.253 659.275 465.415 672.843Z" stroke="black" stroke-width="4" stroke-miterlimit="10" stroke-linecap="round" stroke-linejoin="round"/>
<path d="M739.477 779.989H256.039C320.867 836.01 405.352 869.9 497.758 869.9C590.164 869.9 674.648 836.01 739.477 779.989Z" fill="#FFB300"/>
<path d="M739.477 779.989H256.039C320.867 836.01 405.352 869.9 497.758 869.9C590.164 869.9 674.648 836.01 739.477 779.989Z" stroke="black" stroke-width="4" stroke-miterlimit="10" stroke-linecap="round" stroke-linejoin="round"/>
<path d="M654.539 767.161H673.065M693.07 767.161H711.591" stroke="#495CDE" stroke-width="4" stroke-miterlimit="10" stroke-linecap="round" stroke-linejoin="round"/>
<path d="M427.441 284.312L424.561 296.082L427.441 284.312Z" fill="#495CDE"/>
<path d="M427.441 284.312L424.561 296.082" stroke="black" stroke-width="4" stroke-miterlimit="10" stroke-linecap="round" stroke-linejoin="round"/>
<path d="M623.873 486.759L626.227 510.39L638.779 477.608L623.873 486.759Z" fill="black"/>
<path d="M291.076 189.541C291.076 189.541 298.055 196.864 314.446 196.166" stroke="#E05B66" stroke-width="4" stroke-miterlimit="10" stroke-linecap="round" stroke-linejoin="round"/>
<path d="M164.639 131.489C165.17 124.468 170.305 118.015 177.024 115.921M181.311 100.322C178.852 103.822 177.597 108.155 177.805 112.426C178.014 116.697 179.68 120.884 182.467 124.134M260.175 94.874C263.472 102.713 263.238 111.968 259.54 119.629M231.186 165.009C240.477 158.895 252.535 157.187 263.16 160.483M260.394 172.463C259.722 168.171 261.482 163.692 264.529 160.588C267.576 157.489 271.785 155.681 276.081 155.015M235.561 252.009C234.727 248.301 234.467 244.431 235.092 240.676C235.717 236.926 237.253 233.285 239.748 230.41" stroke="#F6EED6" stroke-width="2.66667" stroke-miterlimit="10" stroke-linecap="round" stroke-linejoin="round"/>
</svg>
