<svg width="481" height="111" viewBox="0 0 481 111" fill="none" xmlns="http://www.w3.org/2000/svg">
<path d="M287.6 98.3999H112.7V101.7H287.6V98.3999Z" fill="#D9D8D6"/>
<path d="M480.9 10.2H261.9V13.5H480.9V10.2Z" fill="#D9D8D6"/>
<path d="M318.5 104.5L317.4 107.3H314.2L320.4 92.8999H323.3L329.4 107.3H326.2L325.1 104.5H318.5ZM321.7 96.4999L319.6 101.7H323.8L321.7 96.4999Z" fill="#0A2240"/>
<path d="M343.9 97.2999H340.9C340.7 95.9999 339.9 95.1999 338.2 95.1999C336.7 95.1999 335.7 95.8999 335.7 96.9999C335.7 97.9999 336.4 98.3999 337.7 98.6999L339.5 99.0999C342.2 99.6999 343.8 100.7 343.8 103.1C343.8 105.8 341.6 107.6 338.1 107.6C334.7 107.6 332.1 105.8 331.8 102.6H334.8C335 104 336.3 105 338.2 105C339.7 105 340.6 104.4 340.6 103.4C340.6 102.8 340.3 102.2 338.8 101.9L336.5 101.4C333.7 100.8 332.4 99.3999 332.4 97.1999C332.4 94.3999 334.6 92.5999 337.9 92.5999C340.3 92.5999 343.5 93.5999 343.9 97.2999Z" fill="#0A2240"/>
<path d="M359.4 97.2999H356.4C356.2 95.9999 355.4 95.1999 353.7 95.1999C352.2 95.1999 351.2 95.8999 351.2 96.9999C351.2 97.9999 351.9 98.3999 353.2 98.6999L355 99.0999C357.7 99.6999 359.3 100.7 359.3 103.1C359.3 105.8 357.1 107.6 353.6 107.6C350.2 107.6 347.6 105.8 347.3 102.6H350.3C350.5 104 351.8 105 353.7 105C355.2 105 356.1 104.4 356.1 103.4C356.1 102.8 355.8 102.2 354.3 101.9L352 101.4C349.2 100.8 347.9 99.3999 347.9 97.1999C347.9 94.3999 350.1 92.5999 353.4 92.5999C355.9 92.5999 359.1 93.5999 359.4 97.2999Z" fill="#0A2240"/>
<path d="M378.3 100.1C378.3 104.2 375 107.5 370.8 107.5C366.6 107.5 363.3 104.2 363.3 100.1C363.3 95.9998 366.6 92.6998 370.8 92.6998C375 92.5998 378.3 95.8998 378.3 100.1ZM375.3 100.1C375.3 97.5998 373.5 95.4998 370.9 95.4998C368.4 95.4998 366.5 97.5998 366.5 100.1C366.5 102.6 368.4 104.7 370.9 104.7C373.4 104.7 375.3 102.6 375.3 100.1Z" fill="#0A2240"/>
<path d="M394 101.4H397.1C396.5 105.1 393.8 107.5 390.1 107.5C385.9 107.5 382.6 104.4 382.6 100.1C382.6 95.7998 385.9 92.6998 390.1 92.6998C393.8 92.6998 396.5 95.0998 397.1 98.7998H394C393.5 96.7998 392.1 95.5998 390.1 95.5998C387.6 95.5998 385.7 97.3998 385.7 100.1C385.7 102.8 387.5 104.6 390.1 104.6C392.1 104.6 393.5 103.5 394 101.4Z" fill="#0A2240"/>
<path d="M404.7 107.2H401.7V92.8999H404.7V107.2Z" fill="#0A2240"/>
<path d="M412.9 104.5L411.8 107.3H408.6L414.8 92.8999H417.7L423.8 107.3H420.6L419.5 104.5H412.9ZM416.1 96.4999L414 101.7H418.2L416.1 96.4999Z" fill="#0A2240"/>
<path d="M432.2 95.6999V107.2H429.2V95.6999H424.4V92.8999H437V95.6999H432.2Z" fill="#0A2240"/>
<path d="M443.9 107.2H440.9V92.8999H443.9V107.2Z" fill="#0A2240"/>
<path d="M463.4 100.1C463.4 104.2 460.1 107.5 455.9 107.5C451.7 107.5 448.4 104.2 448.4 100.1C448.4 95.9998 451.7 92.6998 455.9 92.6998C460.1 92.5998 463.4 95.8998 463.4 100.1ZM460.3 100.1C460.3 97.5998 458.5 95.4998 455.9 95.4998C453.4 95.4998 451.5 97.5998 451.5 100.1C451.5 102.6 453.4 104.7 455.9 104.7C458.5 104.7 460.3 102.6 460.3 100.1Z" fill="#0A2240"/>
<path d="M480.9 107.2H478.5L471 98.4999V107.2H468V92.8999H470.3L477.9 101.8V92.8999H480.9V107.2Z" fill="#0A2240"/>
<path d="M126.3 19H123.9L116.4 10.3V19H113.4V4.69995H115.7L123.3 13.6V4.69995H126.3V19Z" fill="#0A2240"/>
<path d="M134.5 16.3L133.4 19.1H130.2L136.4 4.69995H139.3L145.4 19.1H142.2L141.1 16.3H134.5ZM137.7 8.29995L135.6 13.5H139.8L137.7 8.29995Z" fill="#0A2240"/>
<path d="M153.8 7.49995V19H150.8V7.49995H146V4.69995H158.6V7.49995H153.8Z" fill="#0A2240"/>
<path d="M165.5 19H162.5V4.69995H165.5V19Z" fill="#0A2240"/>
<path d="M185 11.8999C185 15.9999 181.7 19.2999 177.5 19.2999C173.3 19.2999 170 15.9999 170 11.8999C170 7.79989 173.3 4.49989 177.5 4.49989C181.7 4.39989 185 7.69989 185 11.8999ZM181.9 11.8999C181.9 9.39989 180.1 7.29989 177.5 7.29989C175 7.29989 173.1 9.39989 173.1 11.8999C173.1 14.3999 175 16.4999 177.5 16.4999C180 16.4999 181.9 14.3999 181.9 11.8999Z" fill="#0A2240"/>
<path d="M202.4 19H200L192.5 10.3V19H189.5V4.69995H191.8L199.4 13.6V4.69995H202.4V19Z" fill="#0A2240"/>
<path d="M210.6 16.3L209.5 19.1H206.3L212.5 4.69995H215.4L221.5 19.1H218.3L217.2 16.3H210.6ZM213.9 8.29995L211.8 13.5H216L213.9 8.29995Z" fill="#0A2240"/>
<path d="M235.6 19H225.3V4.69995H228.3V16.3H235.6V19Z" fill="#0A2240"/>
<path d="M154.7 76.4999H147.5L147.1 71.7999C144.3 75.1999 140.2 77.2999 134.8 77.2999C122.6 77.2999 114.1 68.5999 114.1 57.4999C114.1 45.3999 123 36.8999 134.8 36.8999C144.3 36.8999 152.6 42.2999 154.2 51.4999H144C142.3 46.9999 138.5 45.6999 135 45.6999C128.3 45.6999 123.8 50.3999 123.8 57.1999C123.8 63.2999 128.2 68.2999 135.1 68.2999C139.6 68.2999 143 66.0999 145 62.3999L134 62.2999V54.6999H154.8V76.4999H154.7Z" fill="#0A2240"/>
<path d="M201.5 57.0999C201.5 68.3999 192.6 77.2999 180.9 77.2999C169.2 77.2999 160.3 68.3999 160.3 57.0999C160.3 45.7999 169.2 36.8999 180.9 36.8999C192.6 36.8999 201.5 45.7999 201.5 57.0999ZM191.8 57.0999C191.8 50.9999 187.3 45.7999 181 45.7999C174.7 45.7999 170.2 50.8999 170.2 57.0999C170.2 63.1999 174.7 68.3999 181 68.3999C187.3 68.3999 191.8 63.1999 191.8 57.0999Z" fill="#0A2240"/>
<path d="M227.8 76.8H218L201.2 37.7H211.8L222.9 64L234 37.7H244.6L227.8 76.8Z" fill="#0A2240"/>
<path d="M257.8 53.2H275V61.4H257.8V68.0999H277.5V76.5H248.1V37.7H277.5V46.0999H257.8V53.2Z" fill="#0A2240"/>
<path d="M300 65.3H292.7V76.5999H283V37.7H300C309.7 37.7 316.1 43 316.1 51.4C316.1 56.5 313.6 60.6 309.5 63L318.6 76.5999H307.3L300 65.3ZM299.8 56.5999C303.5 56.5999 306.4 54.5 306.4 51.2999C306.4 48.1999 303.5 46.2 299.8 46.2H292.7V56.5999H299.8Z" fill="#0A2240"/>
<path d="M358 76.5H350.6L332 55.2V76.5H322.3V37.7H329.7L348.4 59.5999V37.7H358V76.5Z" fill="#0A2240"/>
<path d="M405 57.0999C405 68.3999 396.1 77.2999 384.4 77.2999C372.7 77.2999 363.8 68.3999 363.8 57.0999C363.8 45.7999 372.7 36.8999 384.4 36.8999C396.2 36.8999 405 45.7999 405 57.0999ZM395.3 57.0999C395.3 50.9999 390.8 45.7999 384.5 45.7999C378.2 45.7999 373.7 50.8999 373.7 57.0999C373.7 63.1999 378.2 68.3999 384.5 68.3999C390.7 68.3999 395.3 63.1999 395.3 57.0999Z" fill="#0A2240"/>
<path d="M427.9 65.3H420.6V76.5999H411V37.7H428C437.7 37.7 444.1 43 444.1 51.4C444.1 56.5 441.6 60.6 437.5 63L446.6 76.5999H435.3L427.9 65.3ZM427.7 56.5999C431.4 56.5999 434.3 54.5 434.3 51.2999C434.3 48.1999 431.4 46.2 427.7 46.2H420.6V56.5999H427.7Z" fill="#0A2240"/>
<path d="M480.9 49.7999H471.2C470.7 46.8999 468.9 44.4999 464.8 44.4999C461.4 44.4999 459.1 45.9999 459.1 48.4999C459.1 50.6999 460.7 51.6999 463.8 52.2999L469.2 53.5999C476.3 55.0999 480.9 58.0999 480.9 64.6999C480.9 72.4999 474.5 77.2999 464.8 77.2999C456.1 77.2999 448.2 73.0999 447.3 63.4999H457C457.6 66.8999 460.5 69.1999 465.1 69.1999C468.5 69.1999 470.6 67.7999 470.6 65.6999C470.6 64.2999 469.9 62.8999 466.5 62.2999L460.1 60.8999C452.4 59.1999 448.8 55.7999 448.8 49.5999C448.8 41.7999 455.1 36.8999 464.2 36.8999C470.5 36.7999 479.9 39.2999 480.9 49.7999Z" fill="#0A2240"/>
<path d="M48.2 82.4999V108.7C48.2 109.9 49.5 110.6 50.5 110L90.4 85.3999C90.7 85.1999 91 84.8999 91.0999 84.5999L71 67.3999L49.2999 80.5999C48.5999 80.9999 48.2 81.6999 48.2 82.4999Z" fill="#A7A8A9"/>
<path d="M91.3999 83.5999V55.4999C91.3999 54.7999 91.0999 54.1999 90.5999 53.7999L58.7999 26.4999C57.7999 25.6999 56.2999 26.3999 56.2999 27.6999V53.7999C56.2999 54.4999 56.5999 55.0999 57.0999 55.4999L91.1999 84.5999C91.2999 84.2999 91.3999 83.9999 91.3999 83.5999Z" fill="#C8C8C8"/>
<path d="M0.5 27.1V55.3C0.5 56 0.8 56.6 1.3 57L33.1 84.2C34.1 85 35.6 84.3 35.6 83V57C35.6 56.3 35.3 55.7 34.8 55.3L0.8 26.1C0.6 26.4 0.5 26.8 0.5 27.1Z" fill="#8A84D6"/>
<path d="M43.7001 28.2V1.99995C43.7001 0.799951 42.4001 0.0999511 41.4001 0.699951L1.50005 25.2999C1.20005 25.5 0.900049 25.8 0.800049 26.1L21 43.2999L42.7001 30.1C43.3 29.8 43.7001 29 43.7001 28.2Z" fill="#4D4084"/>
<path opacity="0.6" d="M91.4001 83.5999V55.4999C91.4001 54.7999 91.1 54.1999 90.6 53.7999L58.8 26.4999C57.8 25.6999 56.3 26.3999 56.3 27.6999V53.7999C56.3 54.4999 56.6 55.0999 57.1 55.4999L91.2 84.5999C91.3 84.2999 91.4001 83.9999 91.4001 83.5999Z" fill="url(#paint0_linear)"/>
<path opacity="0.6" d="M48.2 82.4999V108.7C48.2 109.9 49.5 110.6 50.5 110L90.4 85.3999C90.7 85.1999 91 84.8999 91.0999 84.5999L71 67.3999L49.2999 80.5999C48.5999 80.9999 48.2 81.6999 48.2 82.4999Z" fill="url(#paint1_linear)"/>
<path opacity="0.6" d="M0.5 27.1V55.3C0.5 56 0.8 56.6 1.3 57L33.1 84.2C34.1 85 35.6 84.3 35.6 83V57C35.6 56.3 35.3 55.7 34.8 55.3L0.8 26.1C0.6 26.4 0.5 26.8 0.5 27.1Z" fill="url(#paint2_linear)"/>
<path opacity="0.6" d="M43.7001 28.2V1.99995C43.7001 0.799951 42.4001 0.0999511 41.4001 0.699951L1.50005 25.2999C1.20005 25.5 0.900049 25.8 0.800049 26.1L21 43.2999L42.7001 30.1C43.3 29.8 43.7001 29 43.7001 28.2Z" fill="url(#paint3_linear)"/>
<defs>
<linearGradient id="paint0_linear" x1="56.2977" y1="55.3874" x2="91.4265" y2="55.3874" gradientUnits="userSpaceOnUse">
<stop stop-color="white" stop-opacity="0.4"/>
<stop offset="0.9987" stop-color="white" stop-opacity="0"/>
</linearGradient>
<linearGradient id="paint1_linear" x1="69.6754" y1="67.3832" x2="69.6754" y2="110.261" gradientUnits="userSpaceOnUse">
<stop stop-opacity="0.2"/>
<stop offset="0.9987" stop-color="white" stop-opacity="0.2"/>
</linearGradient>
<linearGradient id="paint2_linear" x1="0.5" y1="55.3735" x2="35.6287" y2="55.3735" gradientUnits="userSpaceOnUse">
<stop stop-color="white" stop-opacity="0.4"/>
<stop offset="0.9987" stop-color="white" stop-opacity="0"/>
</linearGradient>
<linearGradient id="paint3_linear" x1="0.754949" y1="21.9389" x2="43.7473" y2="21.9389" gradientUnits="userSpaceOnUse">
<stop stop-opacity="0.2"/>
<stop offset="0.9987" stop-color="white" stop-opacity="0.2"/>
</linearGradient>
</defs>
</svg>
