<svg width="1000" height="1000" viewBox="0 0 1000 1000" fill="none" xmlns="http://www.w3.org/2000/svg">
<path d="M875 497.003C875 703.003 708.226 870 502.5 870C296.774 870 130 703.003 130 497.003C130 291.002 296.774 124 502.5 124C708.226 124 875 291.002 875 497.003Z" fill="#F6EED6"/>
<path d="M869.75 499.628C869.75 703.904 704.151 869.503 499.875 869.503C295.599 869.503 130 703.904 130 499.628C130 295.352 295.599 129.748 499.875 129.748C704.151 129.748 869.75 295.352 869.75 499.628Z" stroke="black" stroke-width="4" stroke-miterlimit="10" stroke-linecap="round" stroke-linejoin="round"/>
<path d="M745.344 360.133C745.344 224.383 635.443 114.336 499.875 114.336C364.302 114.336 254.406 224.383 254.406 360.133C254.406 428.94 280.698 479.404 328.151 535.747L377.755 595.68C388.859 609.096 394.932 625.966 394.932 643.383V659.185H604.812V643.383C604.812 625.966 610.891 609.096 621.995 595.68L671.599 535.747C717.651 478.622 745.344 428.94 745.344 360.133Z" fill="#FFB300"/>
<path d="M745.344 360.133C745.344 224.383 635.443 114.336 499.875 114.336C364.302 114.336 254.406 224.383 254.406 360.133C254.406 428.94 280.698 479.404 328.151 535.747L377.755 595.68C388.859 609.096 394.932 625.966 394.932 643.383V659.185H604.813V643.383C604.813 625.966 610.891 609.096 621.995 595.68L671.599 535.747C717.651 478.622 745.344 428.94 745.344 360.133Z" stroke="black" stroke-width="4" stroke-miterlimit="10" stroke-linecap="round" stroke-linejoin="round"/>
<path d="M709.475 405.727C709.475 405.727 723.532 363.487 745.344 360.133L744.568 338.711L721.98 344.732L710.438 363.305L709.475 405.727Z" fill="black" stroke="black" stroke-width="4" stroke-miterlimit="10" stroke-linecap="round" stroke-linejoin="round"/>
<path d="M603.135 778.695H396.609L436.458 817.711C444.969 826.039 456.396 830.706 468.297 830.706H531.448C543.349 830.706 554.781 826.039 563.286 817.711L603.135 778.695Z" fill="#495CDE" stroke="black" stroke-width="4" stroke-miterlimit="10" stroke-linecap="round" stroke-linejoin="round"/>
<path d="M577.917 803.273L603.135 778.695H396.609L415.688 797.372C417.542 797.253 576.026 805.128 577.917 803.273Z" fill="black"/>
<path d="M577.917 803.273L603.135 778.695H396.609L415.688 797.372C417.542 797.253 576.026 805.128 577.917 803.273Z" stroke="black" stroke-width="4" stroke-miterlimit="10" stroke-linecap="round" stroke-linejoin="round"/>
<path d="M604.813 783.862H394.933V659.576H604.813V783.862Z" fill="#495CDE" stroke="black" stroke-width="4" stroke-miterlimit="10" stroke-linecap="round" stroke-linejoin="round"/>
<path d="M604.813 680.169L394.933 670.003V659.576H604.813V680.169ZM604.813 718.57L394.933 707.274V696.847H604.813V718.57ZM604.813 766.003L394.933 754.711V752.19H604.813V766.003Z" fill="black" stroke="black" stroke-width="4" stroke-miterlimit="10" stroke-linecap="round" stroke-linejoin="round"/>
<path d="M546.386 458.435C546.386 463.352 542.391 467.346 537.474 467.346H528.563V448.164C528.563 443.253 532.563 439.253 537.474 439.253C542.391 439.253 546.386 443.253 546.386 448.164V458.435ZM471.183 467.346H462.271C457.36 467.346 453.36 463.352 453.36 458.435V448.164C453.36 443.253 457.36 439.253 462.271 439.253C467.188 439.253 471.183 443.253 471.183 448.164V467.346ZM537.474 426.258C525.396 426.258 515.573 436.086 515.573 448.164V467.346H484.177V448.164C484.177 436.086 474.349 426.258 462.271 426.258C450.193 426.258 440.37 436.086 440.37 448.164V458.435C440.37 470.513 450.193 480.341 462.271 480.341H471.183V649.93H484.177V480.341H515.573V649.93H528.563V480.341H537.474C549.552 480.341 559.381 470.513 559.381 458.435V448.164C559.381 436.086 549.552 426.258 537.474 426.258Z" fill="#E05B66"/>
<path d="M471.183 467.346H462.271C457.36 467.346 453.36 463.352 453.36 458.435V448.164C453.36 443.253 457.36 439.253 462.271 439.253C467.188 439.253 471.183 443.253 471.183 448.164V467.346ZM471.183 467.346H531.657M471.183 480.31H531.657M546.386 458.435C546.386 463.352 542.391 467.346 537.474 467.346H528.563V448.164C528.563 443.253 532.563 439.253 537.474 439.253C542.391 439.253 546.386 443.253 546.386 448.164V458.435ZM537.474 426.258C525.396 426.258 515.573 436.086 515.573 448.164V467.346H484.177V448.164C484.177 436.086 474.349 426.258 462.271 426.258C450.193 426.258 440.37 436.086 440.37 448.164V458.435C440.37 470.513 450.193 480.341 462.271 480.341H471.183V649.93H484.177V480.341H515.573V649.93H528.563V480.341H537.474C549.552 480.341 559.381 470.513 559.381 458.435V448.164C559.381 436.086 549.552 426.258 537.474 426.258Z" stroke="black" stroke-width="4" stroke-miterlimit="10" stroke-linecap="round" stroke-linejoin="round"/>
<path d="M483.724 488.029L472.474 486.56V481.425H483.724V488.029ZM528.344 495.607L517.099 491.695V481.425H528.344V495.607ZM484.214 466.018H471.495V460.841H484.214V466.018ZM528.558 466.018H515.839V460.841H528.558V466.018Z" fill="black"/>
<path d="M607.745 668.956H392C386.172 668.956 381.448 664.232 381.448 658.404C381.448 652.576 386.172 647.852 392 647.852H607.745C613.573 647.852 618.297 652.576 618.297 658.404C618.297 664.232 613.573 668.956 607.745 668.956Z" fill="#495CDE"/>
<path d="M607.745 668.956H392C386.172 668.956 381.448 664.232 381.448 658.404C381.448 652.576 386.172 647.852 392 647.852H607.745C613.573 647.852 618.297 652.576 618.297 658.404C618.297 664.232 613.573 668.956 607.745 668.956Z" stroke="black" stroke-width="4" stroke-miterlimit="10" stroke-linecap="round" stroke-linejoin="round"/>
<path d="M607.745 710.779H392C386.172 710.779 381.448 706.055 381.448 700.227C381.448 694.393 386.172 689.669 392 689.669H607.745C613.573 689.669 618.297 694.393 618.297 700.227C618.297 706.055 613.573 710.779 607.745 710.779Z" fill="#495CDE"/>
<path d="M607.745 710.779H392C386.172 710.779 381.448 706.055 381.448 700.227C381.448 694.393 386.172 689.669 392 689.669H607.745C613.573 689.669 618.297 694.393 618.297 700.227C618.297 706.055 613.573 710.779 607.745 710.779Z" stroke="black" stroke-width="4" stroke-miterlimit="10" stroke-linecap="round" stroke-linejoin="round"/>
<path d="M607.745 752.596H392C386.172 752.596 381.448 747.872 381.448 742.044C381.448 736.216 386.172 731.492 392 731.492H607.745C613.573 731.492 618.297 736.216 618.297 742.044C618.297 747.872 613.573 752.596 607.745 752.596Z" fill="#495CDE"/>
<path d="M607.745 752.596H392C386.172 752.596 381.448 747.872 381.448 742.044C381.448 736.216 386.172 731.492 392 731.492H607.745C613.573 731.492 618.297 736.216 618.297 742.044C618.297 747.872 613.573 752.596 607.745 752.596Z" stroke="black" stroke-width="4" stroke-miterlimit="10" stroke-linecap="round" stroke-linejoin="round"/>
<path d="M607.745 794.414H392C386.172 794.414 381.448 789.69 381.448 783.862C381.448 778.034 386.172 773.31 392 773.31H607.745C613.573 773.31 618.297 778.034 618.297 783.862C618.297 789.69 613.573 794.414 607.745 794.414Z" fill="#495CDE"/>
<path d="M607.745 794.414H392C386.172 794.414 381.448 789.69 381.448 783.862C381.448 778.034 386.172 773.31 392 773.31H607.745C613.573 773.31 618.297 778.034 618.297 783.862C618.297 789.69 613.573 794.414 607.745 794.414Z" stroke="black" stroke-width="4" stroke-miterlimit="10" stroke-linecap="round" stroke-linejoin="round"/>
<path d="M709.474 270.19L714.828 296.122C718.521 314.013 732.5 327.992 750.385 331.68L776.317 337.039C777.323 337.242 777.323 338.674 776.317 338.877L750.385 344.232C732.5 347.924 718.521 361.903 714.828 379.789L709.474 405.726C709.271 406.726 707.838 406.726 707.63 405.726L702.276 379.789C698.583 361.903 684.609 347.924 666.718 344.232L640.786 338.877C639.786 338.674 639.786 337.242 640.786 337.039L666.718 331.68C684.609 327.992 698.583 314.013 702.276 296.122L707.63 270.19C707.838 269.19 709.271 269.19 709.474 270.19Z" fill="#F6EED6"/>
<path d="M709.474 270.19L714.828 296.122C718.521 314.013 732.5 327.992 750.385 331.68L776.317 337.039C777.323 337.242 777.323 338.674 776.317 338.877L750.385 344.232C732.5 347.924 718.521 361.903 714.828 379.789L709.474 405.726C709.271 406.726 707.838 406.726 707.63 405.726L702.276 379.789C698.583 361.903 684.609 347.924 666.718 344.232L640.786 338.877C639.786 338.674 639.786 337.242 640.786 337.039L666.718 331.68C684.609 327.992 698.583 314.013 702.276 296.122L707.63 270.19C707.838 269.19 709.271 269.19 709.474 270.19Z" stroke="black" stroke-width="4" stroke-miterlimit="10" stroke-linecap="round" stroke-linejoin="round"/>
<path d="M504.823 220.201C504.823 220.201 539.61 139.935 602.615 138.32L571.381 123.779L514.297 138.857L498.683 164.169L504.823 220.201Z" fill="black" stroke="black" stroke-width="4" stroke-miterlimit="10" stroke-linecap="round" stroke-linejoin="round"/>
<path d="M504.823 30.0547L512.333 66.4401C517.516 91.5339 537.12 111.143 562.214 116.32L598.599 123.836C600.005 124.122 600.005 126.128 598.599 126.419L562.214 133.93C537.12 139.112 517.516 158.721 512.333 183.815L504.823 220.201C504.531 221.602 502.526 221.602 502.234 220.201L494.724 183.815C489.542 158.721 469.932 139.112 444.839 133.93L408.453 126.419C407.052 126.128 407.052 124.122 408.453 123.836L444.839 116.32C469.932 111.143 489.542 91.5339 494.724 66.4401L502.234 30.0547C502.526 28.6484 504.531 28.6484 504.823 30.0547Z" fill="#F6EED6"/>
<path d="M504.823 30.0547L512.333 66.4401C517.516 91.5339 537.12 111.143 562.214 116.32L598.599 123.836C600.005 124.122 600.005 126.128 598.599 126.419L562.214 133.93C537.12 139.112 517.516 158.721 512.333 183.815L504.823 220.201C504.531 221.602 502.526 221.602 502.234 220.201L494.724 183.815C489.542 158.721 469.932 139.112 444.839 133.93L408.453 126.419C407.052 126.128 407.052 124.122 408.453 123.836L444.839 116.32C469.932 111.143 489.542 91.5339 494.724 66.4401L502.234 30.0547C502.526 28.6484 504.531 28.6484 504.823 30.0547Z" stroke="black" stroke-width="4" stroke-miterlimit="10" stroke-linecap="round" stroke-linejoin="round"/>
</svg>
