<svg width="1000" height="1000" viewBox="0 0 1000 1000" fill="none" xmlns="http://www.w3.org/2000/svg">
<path d="M869.75 499.875C869.75 704.151 704.151 869.755 499.875 869.755C295.599 869.755 130 704.151 130 499.875C130 295.599 295.599 130 499.875 130C704.151 130 869.75 295.599 869.75 499.875Z" fill="#F6EED6"/>
<path d="M869.75 499.875C869.75 704.151 704.151 869.755 499.875 869.755C295.599 869.755 130 704.151 130 499.875C130 295.599 295.599 130 499.875 130C704.151 130 869.75 295.599 869.75 499.875Z" stroke="black" stroke-width="4" stroke-miterlimit="10" stroke-linecap="round" stroke-linejoin="round"/>
<path d="M691.453 306.61C683.984 300.542 676.13 295.422 668.021 291.209L659.666 277.042L617.844 275.933C549.75 272.974 499.916 310.282 477.317 387.526C463.948 341.834 437.547 310.021 406.041 292.552L400.234 276.86L347.87 276.672C310.677 276.302 290.526 284.396 263.182 306.61C205.515 353.464 185.588 443.542 238.078 525.698C278.307 588.667 397.593 710.578 451.12 764.099C458.422 771.396 468.031 774.948 477.588 774.776L477.583 774.802H527.208C531.989 774.802 535.594 770.448 534.692 765.745L529.765 740.016L527.979 738.657C587.75 678.026 682.854 578.448 716.557 525.698C769.047 443.542 749.12 353.464 691.453 306.61Z" fill="#FFB300"/>
<path d="M527.5 304.459H586M516.739 355.542H547.578M265.979 304.459H365.942M224.817 355.542H330.989M209.76 406.62H320.125M211.265 457.703H330.718M229.588 508.787H358.255M264.224 559.865H402.354M306.385 610.948H451.349M353.573 662.026H504.109M395.39 707.203H506.995M439.5 751.818H551.104M691.453 306.61C683.984 300.542 676.13 295.422 668.021 291.209L659.666 277.042L617.844 275.933C549.75 272.974 499.916 310.282 477.317 387.526C463.948 341.834 437.547 310.021 406.041 292.552L400.234 276.86L347.87 276.672C310.677 276.302 290.526 284.396 263.182 306.61C205.515 353.464 185.588 443.542 238.078 525.698C278.307 588.667 397.593 710.578 451.12 764.099C458.422 771.396 468.031 774.948 477.588 774.776L477.583 774.802H527.208C531.989 774.802 535.594 770.448 534.692 765.745L529.765 740.016L527.979 738.657C587.75 678.026 682.854 578.448 716.557 525.698C769.047 443.542 749.12 353.464 691.453 306.61Z" stroke="black" stroke-width="4" stroke-miterlimit="10" stroke-linecap="round" stroke-linejoin="round"/>
<path d="M742.522 306.609C669.772 247.5 560.803 276.744 528.392 387.526C495.975 276.744 387.006 247.5 314.256 306.609C256.59 353.463 236.662 443.536 289.152 525.698C329.381 588.666 448.662 710.578 502.194 764.099C516.454 778.354 539.537 778.354 553.798 764.093C607.303 710.593 728.61 586.765 767.626 525.698C820.116 443.536 800.189 353.463 742.522 306.609Z" fill="#E05B66"/>
<path d="M742.522 306.609C669.772 247.5 560.803 276.744 528.392 387.526C495.975 276.744 387.006 247.5 314.256 306.609C256.59 353.463 236.662 443.536 289.152 525.698C329.381 588.666 448.662 710.578 502.194 764.099C516.454 778.354 539.537 778.354 553.798 764.093C607.303 710.593 728.61 586.765 767.626 525.698C820.116 443.536 800.189 353.463 742.522 306.609Z" stroke="black" stroke-width="4" stroke-miterlimit="10" stroke-linecap="round" stroke-linejoin="round"/>
<path d="M744.095 420.714C744.095 420.714 757.272 378.922 787.392 369.136L777.225 344.667L754.637 361.604C754.637 361.604 742.871 407.448 744.095 420.714Z" fill="black"/>
<path d="M744.095 420.714C744.095 420.714 757.272 378.922 787.392 369.136L777.225 344.667L754.637 361.604C754.637 361.604 742.871 407.448 744.095 420.714Z" stroke="black" stroke-width="4" stroke-miterlimit="10" stroke-linecap="round" stroke-linejoin="round"/>
<path d="M742.944 262.364L749.355 293.427C753.777 314.854 770.522 331.593 791.944 336.015L823.012 342.432C824.21 342.677 824.21 344.39 823.012 344.64L791.944 351.052C770.522 355.474 753.777 372.218 749.355 393.64L742.944 424.703C742.694 425.906 740.98 425.906 740.736 424.703L734.324 393.64C729.897 372.218 713.158 355.474 691.73 351.052L660.668 344.64C659.47 344.39 659.47 342.677 660.668 342.432L691.73 336.015C713.158 331.593 729.897 314.854 734.324 293.427L740.736 262.364C740.98 261.161 742.694 261.161 742.944 262.364Z" fill="#F6EED6"/>
<path d="M742.944 262.364L749.355 293.427C753.777 314.854 770.522 331.593 791.944 336.015L823.012 342.432C824.21 342.677 824.21 344.39 823.012 344.64L791.944 351.052C770.522 355.474 753.777 372.218 749.355 393.64L742.944 424.703C742.694 425.906 740.98 425.906 740.736 424.703L734.324 393.64C729.897 372.218 713.158 355.474 691.73 351.052L660.668 344.64C659.47 344.39 659.47 342.677 660.668 342.432L691.73 336.015C713.158 331.593 729.897 314.854 734.324 293.427L740.736 262.364C740.98 261.161 742.694 261.161 742.944 262.364Z" stroke="black" stroke-width="4" stroke-miterlimit="10" stroke-linecap="round" stroke-linejoin="round"/>
</svg>
